u2194_noise 50 - 40.ufo
<glyph name="exclam" format="1">
  <advance width="223"/>
  <unicode hex="0021"/>
  <outline>
    <contour>
      <point x="114" y="161" type="curve" smooth="yes"/>
      <point x="135" y="164"/>
      <point x="151" y="184"/>
      <point x="149" y="206" type="curve" smooth="yes"/>
      <point x="138" y="296" type="line"/>
      <point x="171" y="387" type="line" smooth="yes"/>
      <point x="173" y="393"/>
      <point x="173" y="402"/>
      <point x="172" y="408" type="curve" smooth="yes"/>
      <point x="155" y="508" type="line" smooth="yes"/>
      <point x="155" y="509"/>
      <point x="155" y="510"/>
      <point x="155" y="511" type="curve" smooth="yes"/>
      <point x="130" y="605" type="line"/>
      <point x="136" y="696" type="line"/>
      <point x="148" y="796" type="line" smooth="yes"/>
      <point x="150" y="818"/>
      <point x="134" y="838"/>
      <point x="113" y="841" type="curve" smooth="yes"/>
      <point x="91" y="843"/>
      <point x="71" y="827"/>
      <point x="68" y="806" type="curve" smooth="yes"/>
      <point x="56" y="706" type="line"/>
      <point x="50" y="603" type="line" smooth="yes"/>
      <point x="50" y="600"/>
      <point x="50" y="594"/>
      <point x="51" y="591" type="curve" smooth="yes"/>
      <point x="77" y="493" type="line"/>
      <point x="92" y="405" type="line"/>
      <point x="59" y="315" type="line" smooth="yes"/>
      <point x="58" y="310"/>
      <point x="57" y="301"/>
      <point x="57" y="296" type="curve" smooth="yes"/>
      <point x="69" y="196" type="line" smooth="yes"/>
      <point x="72" y="175"/>
      <point x="92" y="159"/>
    </contour>
    <contour>
      <point x="132" y="56" type="curve" smooth="yes"/>
      <point x="112" y="63"/>
      <point x="88" y="52"/>
      <point x="81" y="31" type="curve" smooth="yes"/>
      <point x="75" y="14" type="line" smooth="yes"/>
      <point x="68" y="-6"/>
      <point x="79" y="-30"/>
      <point x="100" y="-37" type="curve" smooth="yes"/>
      <point x="120" y="-44"/>
      <point x="144" y="-33"/>
      <point x="151" y="-12" type="curve" smooth="yes"/>
      <point x="157" y="5" type="line" smooth="yes"/>
      <point x="164" y="25"/>
      <point x="153" y="49"/>
    </contour>
  </outline>
</glyph>
<glyph name="numbersign" format="1">
  <advance width="786"/>
  <unicode hex="0023"/>
  <outline>
    <contour>
      <point x="317" y="286" type="line" smooth="yes"/>
      <point x="317" y="287"/>
      <point x="318" y="289"/>
      <point x="318" y="290" type="curve" smooth="yes"/>
      <point x="341" y="388" type="line"/>
      <point x="367" y="484" type="line"/>
      <point x="406" y="559" type="line"/>
      <point x="496" y="559" type="line"/>
      <point x="494" y="507" type="line"/>
      <point x="461" y="412" type="line" smooth="yes"/>
      <point x="460" y="409"/>
      <point x="459" y="403"/>
      <point x="459" y="399" type="curve" smooth="yes"/>
      <point x="458" y="306" type="line"/>
      <point x="433" y="239" type="line"/>
      <point x="301" y="239" type="line"/>
    </contour>
    <contour>
      <point x="429" y="-12" type="curve" smooth="yes"/>
      <point x="459" y="86" type="line"/>
      <point x="488" y="159" type="line"/>
      <point x="635" y="159" type="line" smooth="yes"/>
      <point x="657" y="159"/>
      <point x="675" y="177"/>
      <point x="675" y="199" type="curve" smooth="yes"/>
      <point x="675" y="221"/>
      <point x="657" y="239"/>
      <point x="635" y="239" type="curve" smooth="yes"/>
      <point x="518" y="239" type="line"/>
      <point x="536" y="285" type="line" smooth="yes"/>
      <point x="537" y="289"/>
      <point x="538" y="295"/>
      <point x="538" y="299" type="curve" smooth="yes"/>
      <point x="539" y="392" type="line"/>
      <point x="572" y="486" type="line" smooth="yes"/>
      <point x="573" y="489"/>
      <point x="574" y="494"/>
      <point x="574" y="497" type="curve" smooth="yes"/>
      <point x="576" y="559" type="line"/>
      <point x="696" y="559" type="line" smooth="yes"/>
      <point x="718" y="559"/>
      <point x="736" y="577"/>
      <point x="736" y="599" type="curve" smooth="yes"/>
      <point x="736" y="621"/>
      <point x="718" y="639"/>
      <point x="696" y="639" type="curve" smooth="yes"/>
      <point x="615" y="639" type="line"/>
      <point x="642" y="676" type="line" smooth="yes"/>
      <point x="645" y="680"/>
      <point x="648" y="688"/>
      <point x="648" y="693" type="curve" smooth="yes"/>
      <point x="664" y="793" type="line" smooth="yes"/>
      <point x="668" y="814"/>
      <point x="653" y="835"/>
      <point x="631" y="838" type="curve" smooth="yes"/>
      <point x="610" y="842"/>
      <point x="589" y="827"/>
      <point x="586" y="805" type="curve" smooth="yes"/>
      <point x="571" y="715" type="line"/>
      <point x="517" y="639" type="line"/>
      <point x="419" y="639" type="line"/>
      <point x="415" y="693" type="line"/>
      <point x="450" y="785" type="line" smooth="yes"/>
      <point x="458" y="805"/>
      <point x="447" y="829"/>
      <point x="427" y="836" type="curve" smooth="yes"/>
      <point x="407" y="844"/>
      <point x="383" y="833"/>
      <point x="376" y="813" type="curve" smooth="yes"/>
      <point x="338" y="713" type="line" smooth="yes"/>
      <point x="336" y="709"/>
      <point x="335" y="701"/>
      <point x="335" y="697" type="curve" smooth="yes"/>
      <point x="339" y="639" type="line"/>
      <point x="220" y="639" type="line" smooth="yes"/>
      <point x="198" y="639"/>
      <point x="180" y="621"/>
      <point x="180" y="599" type="curve" smooth="yes"/>
      <point x="180" y="577"/>
      <point x="198" y="559"/>
      <point x="220" y="559" type="curve" smooth="yes"/>
      <point x="316" y="559" type="line"/>
      <point x="294" y="517" type="line" smooth="yes"/>
      <point x="293" y="515"/>
      <point x="292" y="512"/>
      <point x="291" y="510" type="curve" smooth="yes"/>
      <point x="263" y="410" type="line"/>
      <point x="240" y="310" type="line"/>
      <point x="216" y="239" type="line"/>
      <point x="90" y="239" type="line" smooth="yes"/>
      <point x="68" y="239"/>
      <point x="50" y="221"/>
      <point x="50" y="199" type="curve" smooth="yes"/>
      <point x="50" y="177"/>
      <point x="68" y="159"/>
      <point x="90" y="159" type="curve" smooth="yes"/>
      <point x="203" y="159" type="line"/>
      <point x="199" y="108" type="line"/>
      <point x="163" y="14" type="line" smooth="yes"/>
      <point x="155" y="-7"/>
      <point x="165" y="-30"/>
      <point x="185" y="-38" type="curve" smooth="yes"/>
      <point x="206" y="-46"/>
      <point x="229" y="-36"/>
      <point x="237" y="-16" type="curve" smooth="yes"/>
      <point x="276" y="84" type="line" smooth="yes"/>
      <point x="278" y="88"/>
      <point x="279" y="93"/>
      <point x="279" y="97" type="curve" smooth="yes"/>
      <point x="283" y="159" type="line"/>
      <point x="402" y="159" type="line"/>
      <point x="384" y="114" type="line" smooth="yes"/>
      <point x="383" y="113"/>
      <point x="383" y="111"/>
      <point x="383" y="110" type="curve" smooth="yes"/>
      <point x="353" y="10" type="line" smooth="yes"/>
      <point x="346" y="-10"/>
      <point x="359" y="-33"/>
      <point x="380" y="-39" type="curve" smooth="yes"/>
      <point x="400" y="-46"/>
      <point x="423" y="-33"/>
    </contour>
  </outline>
</glyph>
<glyph name="dollar" format="1">
  <advance width="800"/>
  <unicode hex="0024"/>
  <outline>
    <contour>
      <point x="345" y="490" type="curve" smooth="yes"/>
      <point x="357" y="439" type="line"/>
      <point x="293" y="439" type="line"/>
      <point x="250" y="444" type="line"/>
      <point x="157" y="484" type="line"/>
      <point x="131" y="597" type="line"/>
      <point x="148" y="668" type="line"/>
      <point x="179" y="729" type="line"/>
      <point x="282" y="759" type="line"/>
      <point x="358" y="759" type="line"/>
      <point x="350" y="705" type="line"/>
      <point x="339" y="603" type="line" smooth="yes"/>
      <point x="339" y="602"/>
      <point x="339" y="599"/>
      <point x="339" y="597" type="curve" smooth="yes"/>
      <point x="344" y="497" type="line" smooth="yes"/>
      <point x="344" y="495"/>
      <point x="345" y="492"/>
    </contour>
    <contour>
      <point x="462" y="191" type="line" smooth="yes"/>
      <point x="464" y="198"/>
      <point x="462" y="209"/>
      <point x="460" y="215" type="curve" smooth="yes"/>
      <point x="421" y="302" type="line"/>
      <point x="438" y="359" type="line"/>
      <point x="504" y="359" type="line"/>
      <point x="586" y="354" type="line"/>
      <point x="631" y="319" type="line"/>
      <point x="669" y="198" type="line"/>
      <point x="659" y="131" type="line"/>
      <point x="622" y="70" type="line"/>
      <point x="512" y="39" type="line"/>
      <point x="439" y="39" type="line"/>
      <point x="443" y="94" type="line"/>
    </contour>
    <contour>
      <point x="282" y="-41" type="curve" smooth="yes"/>
      <point x="518" y="-41" type="line" smooth="yes"/>
      <point x="521" y="-41"/>
      <point x="526" y="-40"/>
      <point x="529" y="-39" type="curve" smooth="yes"/>
      <point x="659" y="-3" type="line" smooth="yes"/>
      <point x="667" y="0"/>
      <point x="678" y="8"/>
      <point x="682" y="15" type="curve" smooth="yes"/>
      <point x="732" y="97" type="line" smooth="yes"/>
      <point x="734" y="101"/>
      <point x="736" y="107"/>
      <point x="737" y="111" type="curve" smooth="yes"/>
      <point x="750" y="195" type="line" smooth="yes"/>
      <point x="750" y="200"/>
      <point x="750" y="208"/>
      <point x="748" y="213" type="curve" smooth="yes"/>
      <point x="703" y="355" type="line" smooth="yes"/>
      <point x="701" y="361"/>
      <point x="695" y="370"/>
      <point x="689" y="374" type="curve" smooth="yes"/>
      <point x="625" y="424" type="line" smooth="yes"/>
      <point x="620" y="429"/>
      <point x="610" y="432"/>
      <point x="603" y="433" type="curve" smooth="yes"/>
      <point x="510" y="439" type="line"/>
      <point x="440" y="439" type="line"/>
      <point x="424" y="505" type="line"/>
      <point x="419" y="598" type="line"/>
      <point x="430" y="693" type="line"/>
      <point x="439" y="759" type="line"/>
      <point x="505" y="759" type="line"/>
      <point x="596" y="728" type="line"/>
      <point x="648" y="669" type="line"/>
      <point x="643" y="602" type="line" smooth="yes"/>
      <point x="642" y="580"/>
      <point x="659" y="561"/>
      <point x="680" y="559" type="curve" smooth="yes"/>
      <point x="702" y="558"/>
      <point x="721" y="575"/>
      <point x="723" y="596" type="curve" smooth="yes"/>
      <point x="728" y="680" type="line" smooth="yes"/>
      <point x="729" y="689"/>
      <point x="725" y="702"/>
      <point x="719" y="709" type="curve" smooth="yes"/>
      <point x="649" y="789" type="line" smooth="yes"/>
      <point x="645" y="794"/>
      <point x="638" y="799"/>
      <point x="632" y="801" type="curve" smooth="yes"/>
      <point x="524" y="837" type="line" smooth="yes"/>
      <point x="520" y="838"/>
      <point x="515" y="839"/>
      <point x="511" y="839" type="curve" smooth="yes"/>
      <point x="276" y="839" type="line" smooth="yes"/>
      <point x="273" y="839"/>
      <point x="268" y="838"/>
      <point x="265" y="837" type="curve" smooth="yes"/>
      <point x="140" y="801" type="line" smooth="yes"/>
      <point x="131" y="798"/>
      <point x="120" y="789"/>
      <point x="116" y="781" type="curve" smooth="yes"/>
      <point x="75" y="700" type="line" smooth="yes"/>
      <point x="73" y="698"/>
      <point x="72" y="694"/>
      <point x="71" y="691" type="curve" smooth="yes"/>
      <point x="51" y="606" type="line" smooth="yes"/>
      <point x="50" y="601"/>
      <point x="50" y="593"/>
      <point x="51" y="588" type="curve" smooth="yes"/>
      <point x="83" y="447" type="line" smooth="yes"/>
      <point x="86" y="436"/>
      <point x="96" y="423"/>
      <point x="106" y="419" type="curve" smooth="yes"/>
      <point x="224" y="368" type="line" smooth="yes"/>
      <point x="227" y="367"/>
      <point x="232" y="366"/>
      <point x="235" y="366" type="curve" smooth="yes"/>
      <point x="286" y="359" type="line" smooth="yes"/>
      <point x="288" y="359"/>
      <point x="290" y="359"/>
      <point x="291" y="359" type="curve" smooth="yes"/>
      <point x="355" y="359" type="line"/>
      <point x="341" y="310" type="line" smooth="yes"/>
      <point x="338" y="302"/>
      <point x="339" y="290"/>
      <point x="342" y="283" type="curve" smooth="yes"/>
      <point x="381" y="194" type="line"/>
      <point x="364" y="107" type="line" smooth="yes"/>
      <point x="364" y="105"/>
      <point x="363" y="103"/>
      <point x="363" y="102" type="curve" smooth="yes"/>
      <point x="359" y="39" type="line"/>
      <point x="284" y="39" type="line"/>
      <point x="221" y="45" type="line"/>
      <point x="179" y="79" type="line"/>
      <point x="152" y="207" type="line" smooth="yes"/>
      <point x="148" y="228"/>
      <point x="126" y="243"/>
      <point x="105" y="238" type="curve" smooth="yes"/>
      <point x="84" y="234"/>
      <point x="69" y="212"/>
      <point x="74" y="191" type="curve" smooth="yes"/>
      <point x="104" y="49" type="line" smooth="yes"/>
      <point x="106" y="41"/>
      <point x="112" y="31"/>
      <point x="118" y="26" type="curve" smooth="yes"/>
      <point x="180" y="-25" type="line" smooth="yes"/>
      <point x="185" y="-29"/>
      <point x="195" y="-33"/>
      <point x="202" y="-34" type="curve" smooth="yes"/>
      <point x="278" y="-41" type="line" smooth="yes"/>
      <point x="279" y="-41"/>
      <point x="281" y="-41"/>
    </contour>
  </outline>
</glyph>
<glyph name="percent" format="1">
  <advance width="776"/>
  <unicode hex="0025"/>
  <outline>
    <contour>
      <point x="90" y="559" type="curve" smooth="yes"/>
      <point x="329" y="559" type="line" smooth="yes"/>
      <point x="350" y="559"/>
      <point x="368" y="576"/>
      <point x="369" y="598" type="curve" smooth="yes"/>
      <point x="372" y="698" type="line" smooth="yes"/>
      <point x="373" y="719"/>
      <point x="355" y="738"/>
      <point x="333" y="739" type="curve" smooth="yes"/>
      <point x="312" y="740"/>
      <point x="293" y="722"/>
      <point x="292" y="700" type="curve" smooth="yes"/>
      <point x="290" y="639" type="line"/>
      <point x="132" y="639" type="line"/>
      <point x="133" y="668" type="line"/>
      <point x="180" y="728" type="line"/>
      <point x="295" y="761" type="line" smooth="yes"/>
      <point x="316" y="766"/>
      <point x="328" y="789"/>
      <point x="322" y="810" type="curve" smooth="yes"/>
      <point x="317" y="831"/>
      <point x="294" y="843"/>
      <point x="273" y="837" type="curve" smooth="yes"/>
      <point x="145" y="801" type="line" smooth="yes"/>
      <point x="138" y="799"/>
      <point x="129" y="793"/>
      <point x="125" y="787" type="curve" smooth="yes"/>
      <point x="62" y="706" type="line" smooth="yes"/>
      <point x="58" y="701"/>
      <point x="54" y="691"/>
      <point x="54" y="684" type="curve" smooth="yes"/>
      <point x="50" y="601" type="line" smooth="yes"/>
      <point x="49" y="578"/>
      <point x="67" y="559"/>
    </contour>
    <contour>
      <point x="134" y="-29" type="curve" smooth="yes"/>
      <point x="210" y="51" type="line" smooth="yes"/>
      <point x="212" y="53"/>
      <point x="214" y="56"/>
      <point x="215" y="58" type="curve" smooth="yes"/>
      <point x="264" y="140" type="line"/>
      <point x="306" y="216" type="line"/>
      <point x="374" y="293" type="line"/>
      <point x="441" y="373" type="line" smooth="yes"/>
      <point x="443" y="376"/>
      <point x="446" y="380"/>
      <point x="447" y="383" type="curve" smooth="yes"/>
      <point x="477" y="455" type="line"/>
      <point x="558" y="530" type="line" smooth="yes"/>
      <point x="560" y="532"/>
      <point x="563" y="535"/>
      <point x="565" y="538" type="curve" smooth="yes"/>
      <point x="613" y="614" type="line"/>
      <point x="686" y="691" type="line" smooth="yes"/>
      <point x="689" y="695"/>
      <point x="693" y="701"/>
      <point x="695" y="706" type="curve" smooth="yes"/>
      <point x="723" y="786" type="line" smooth="yes"/>
      <point x="730" y="806"/>
      <point x="719" y="830"/>
      <point x="698" y="837" type="curve" smooth="yes"/>
      <point x="678" y="844"/>
      <point x="654" y="833"/>
      <point x="647" y="812" type="curve" smooth="yes"/>
      <point x="622" y="740" type="line"/>
      <point x="552" y="667" type="line" smooth="yes"/>
      <point x="550" y="665"/>
      <point x="548" y="662"/>
      <point x="547" y="660" type="curve" smooth="yes"/>
      <point x="500" y="585" type="line"/>
      <point x="417" y="508" type="line" smooth="yes"/>
      <point x="413" y="505"/>
      <point x="409" y="499"/>
      <point x="407" y="495" type="curve" smooth="yes"/>
      <point x="376" y="420" type="line"/>
      <point x="312" y="345" type="line"/>
      <point x="243" y="265" type="line" smooth="yes"/>
      <point x="241" y="264"/>
      <point x="239" y="260"/>
      <point x="238" y="258" type="curve" smooth="yes"/>
      <point x="194" y="178" type="line"/>
      <point x="149" y="103" type="line"/>
      <point x="76" y="27" type="line" smooth="yes"/>
      <point x="61" y="11"/>
      <point x="62" y="-15"/>
      <point x="77" y="-30" type="curve" smooth="yes"/>
      <point x="93" y="-45"/>
      <point x="119" y="-44"/>
    </contour>
    <contour>
      <point x="498" y="-40" type="curve" smooth="yes"/>
      <point x="652" y="-4" type="line" smooth="yes"/>
      <point x="662" y="-1"/>
      <point x="674" y="8"/>
      <point x="678" y="17" type="curve" smooth="yes"/>
      <point x="720" y="98" type="line" smooth="yes"/>
      <point x="722" y="102"/>
      <point x="724" y="110"/>
      <point x="724" y="115" type="curve" smooth="yes"/>
      <point x="726" y="198" type="line" smooth="yes"/>
      <point x="726" y="221"/>
      <point x="708" y="239"/>
      <point x="686" y="239" type="curve" smooth="yes"/>
      <point x="532" y="239" type="line" smooth="yes"/>
      <point x="510" y="239"/>
      <point x="492" y="221"/>
      <point x="492" y="199" type="curve" smooth="yes"/>
      <point x="492" y="99" type="line" smooth="yes"/>
      <point x="492" y="77"/>
      <point x="510" y="59"/>
      <point x="532" y="59" type="curve" smooth="yes"/>
      <point x="554" y="59"/>
      <point x="572" y="77"/>
      <point x="572" y="99" type="curve" smooth="yes"/>
      <point x="572" y="159" type="line"/>
      <point x="645" y="159" type="line"/>
      <point x="645" y="126" type="line"/>
      <point x="616" y="70" type="line"/>
      <point x="480" y="38" type="line" smooth="yes"/>
      <point x="459" y="33"/>
      <point x="445" y="11"/>
      <point x="450" y="-10" type="curve" smooth="yes"/>
      <point x="455" y="-31"/>
      <point x="477" y="-45"/>
    </contour>
  </outline>
</glyph>
<glyph name="ampersand" format="1">
  <advance width="806"/>
  <unicode hex="0026"/>
  <outline>
    <contour>
      <point x="378" y="441" type="line"/>
      <point x="326" y="441" type="line"/>
      <point x="333" y="495" type="line"/>
      <point x="348" y="593" type="line"/>
      <point x="363" y="716" type="line"/>
      <point x="429" y="754" type="line"/>
      <point x="504" y="761" type="line"/>
      <point x="542" y="761" type="line"/>
      <point x="548" y="704" type="line"/>
      <point x="532" y="610" type="line" smooth="yes"/>
      <point x="531" y="607"/>
      <point x="531" y="603"/>
      <point x="531" y="600" type="curve" smooth="yes"/>
      <point x="539" y="482" type="line"/>
      <point x="482" y="448" type="line"/>
    </contour>
    <contour>
      <point x="163" y="120" type="line" smooth="yes"/>
      <point x="163" y="123"/>
      <point x="162" y="128"/>
      <point x="161" y="131" type="curve" smooth="yes"/>
      <point x="132" y="202" type="line"/>
      <point x="159" y="319" type="line"/>
      <point x="204" y="354" type="line"/>
      <point x="317" y="361" type="line"/>
      <point x="381" y="361" type="line"/>
      <point x="435" y="299" type="line"/>
      <point x="470" y="224" type="line" smooth="yes"/>
      <point x="470" y="224"/>
      <point x="470" y="224"/>
      <point x="470" y="223" type="curve"/>
      <point x="398" y="165" type="line" smooth="yes"/>
      <point x="397" y="164"/>
      <point x="396" y="163"/>
      <point x="395" y="163" type="curve" smooth="yes"/>
      <point x="327" y="96" type="line" smooth="yes"/>
      <point x="326" y="95"/>
      <point x="323" y="92"/>
      <point x="322" y="90" type="curve" smooth="yes"/>
      <point x="292" y="45" type="line"/>
      <point x="169" y="70" type="line"/>
    </contour>
    <contour>
      <point x="343" y="-21" type="curve" smooth="yes"/>
      <point x="386" y="42" type="line"/>
      <point x="450" y="104" type="line"/>
      <point x="524" y="164" type="line"/>
      <point x="554" y="134" type="line"/>
      <point x="626" y="55" type="line"/>
      <point x="684" y="-23" type="line" smooth="yes"/>
      <point x="697" y="-40"/>
      <point x="722" y="-44"/>
      <point x="740" y="-31" type="curve" smooth="yes"/>
      <point x="757" y="-18"/>
      <point x="761" y="7"/>
      <point x="748" y="25" type="curve" smooth="yes"/>
      <point x="689" y="105" type="line" smooth="yes"/>
      <point x="688" y="106"/>
      <point x="687" y="107"/>
      <point x="686" y="108" type="curve" smooth="yes"/>
      <point x="612" y="188" type="line"/>
      <point x="571" y="231" type="line"/>
      <point x="578" y="241" type="line"/>
      <point x="645" y="304" type="line" smooth="yes"/>
      <point x="646" y="305"/>
      <point x="648" y="307"/>
      <point x="649" y="309" type="curve" smooth="yes"/>
      <point x="702" y="375" type="line" smooth="yes"/>
      <point x="716" y="392"/>
      <point x="713" y="418"/>
      <point x="696" y="431" type="curve" smooth="yes"/>
      <point x="679" y="445"/>
      <point x="653" y="442"/>
      <point x="640" y="425" type="curve" smooth="yes"/>
      <point x="588" y="361" type="line"/>
      <point x="523" y="300" type="line"/>
      <point x="505" y="338" type="line" smooth="yes"/>
      <point x="504" y="341"/>
      <point x="501" y="345"/>
      <point x="499" y="347" type="curve" smooth="yes"/>
      <point x="481" y="368" type="line"/>
      <point x="497" y="369" type="line" smooth="yes"/>
      <point x="502" y="369"/>
      <point x="511" y="371"/>
      <point x="515" y="374" type="curve" smooth="yes"/>
      <point x="602" y="427" type="line" smooth="yes"/>
      <point x="613" y="434"/>
      <point x="622" y="450"/>
      <point x="621" y="464" type="curve" smooth="yes"/>
      <point x="611" y="601" type="line"/>
      <point x="627" y="695" type="line" smooth="yes"/>
      <point x="628" y="698"/>
      <point x="628" y="703"/>
      <point x="628" y="706" type="curve" smooth="yes"/>
      <point x="619" y="805" type="line" smooth="yes"/>
      <point x="617" y="825"/>
      <point x="599" y="841"/>
      <point x="579" y="841" type="curve" smooth="yes"/>
      <point x="502" y="841" type="line" smooth="yes"/>
      <point x="501" y="841"/>
      <point x="499" y="841"/>
      <point x="499" y="841" type="curve" smooth="yes"/>
      <point x="413" y="833" type="line" smooth="yes"/>
      <point x="408" y="833"/>
      <point x="401" y="831"/>
      <point x="397" y="828" type="curve" smooth="yes"/>
      <point x="306" y="776" type="line" smooth="yes"/>
      <point x="297" y="770"/>
      <point x="288" y="757"/>
      <point x="286" y="746" type="curve" smooth="yes"/>
      <point x="268" y="605" type="line"/>
      <point x="253" y="505" type="line"/>
      <point x="245" y="437" type="line"/>
      <point x="186" y="433" type="line" smooth="yes"/>
      <point x="179" y="433"/>
      <point x="169" y="429"/>
      <point x="164" y="425" type="curve" smooth="yes"/>
      <point x="98" y="372" type="line" smooth="yes"/>
      <point x="92" y="368"/>
      <point x="86" y="358"/>
      <point x="84" y="350" type="curve" smooth="yes"/>
      <point x="51" y="208" type="line" smooth="yes"/>
      <point x="49" y="201"/>
      <point x="50" y="191"/>
      <point x="53" y="184" type="curve" smooth="yes"/>
      <point x="84" y="106" type="line"/>
      <point x="92" y="32" type="line" smooth="yes"/>
      <point x="94" y="16"/>
      <point x="108" y="0"/>
      <point x="124" y="-3" type="curve" smooth="yes"/>
      <point x="302" y="-38" type="line" smooth="yes"/>
      <point x="317" y="-41"/>
      <point x="335" y="-34"/>
    </contour>
  </outline>
</glyph>
<glyph name="asterisk" format="1">
  <advance width="576"/>
  <unicode hex="002A"/>
  <outline>
    <contour>
      <point x="416" y="270" type="curve" smooth="yes"/>
      <point x="433" y="283"/>
      <point x="437" y="309"/>
      <point x="424" y="326" type="curve" smooth="yes"/>
      <point x="374" y="391" type="line"/>
      <point x="335" y="455" type="line"/>
      <point x="331" y="462" type="line"/>
      <point x="486" y="462" type="line" smooth="yes"/>
      <point x="508" y="462"/>
      <point x="526" y="480"/>
      <point x="526" y="502" type="curve" smooth="yes"/>
      <point x="526" y="524"/>
      <point x="508" y="542"/>
      <point x="486" y="542" type="curve" smooth="yes"/>
      <point x="311" y="542" type="line"/>
      <point x="328" y="589" type="line" smooth="yes"/>
      <point x="330" y="596"/>
      <point x="330" y="608"/>
      <point x="328" y="616" type="curve" smooth="yes"/>
      <point x="292" y="716" type="line" smooth="yes"/>
      <point x="284" y="736"/>
      <point x="261" y="747"/>
      <point x="240" y="740" type="curve" smooth="yes"/>
      <point x="220" y="732"/>
      <point x="209" y="709"/>
      <point x="216" y="688" type="curve" smooth="yes"/>
      <point x="248" y="602" type="line"/>
      <point x="227" y="542" type="line"/>
      <point x="90" y="542" type="line" smooth="yes"/>
      <point x="68" y="542"/>
      <point x="50" y="524"/>
      <point x="50" y="502" type="curve" smooth="yes"/>
      <point x="50" y="480"/>
      <point x="68" y="462"/>
      <point x="90" y="462" type="curve" smooth="yes"/>
      <point x="182" y="462" type="line"/>
      <point x="164" y="424" type="line"/>
      <point x="77" y="329" type="line" smooth="yes"/>
      <point x="63" y="313"/>
      <point x="64" y="287"/>
      <point x="80" y="272" type="curve" smooth="yes"/>
      <point x="96" y="258"/>
      <point x="122" y="259"/>
      <point x="137" y="275" type="curve" smooth="yes"/>
      <point x="228" y="375" type="line" smooth="yes"/>
      <point x="230" y="378"/>
      <point x="233" y="382"/>
      <point x="234" y="385" type="curve" smooth="yes"/>
      <point x="256" y="432" type="line"/>
      <point x="265" y="416" type="line"/>
      <point x="307" y="348" type="line" smooth="yes"/>
      <point x="308" y="347"/>
      <point x="309" y="345"/>
      <point x="309" y="344" type="curve" smooth="yes"/>
      <point x="360" y="278" type="line" smooth="yes"/>
      <point x="373" y="261"/>
      <point x="399" y="257"/>
    </contour>
  </outline>
</glyph>
<glyph name="plus" format="1">
  <advance width="563"/>
  <unicode hex="002B"/>
  <outline>
    <contour>
      <point x="315" y="118" type="curve" smooth="yes"/>
      <point x="325" y="218" type="line"/>
      <point x="334" y="282" type="line"/>
      <point x="473" y="282" type="line" smooth="yes"/>
      <point x="495" y="282"/>
      <point x="513" y="300"/>
      <point x="513" y="322" type="curve" smooth="yes"/>
      <point x="513" y="344"/>
      <point x="495" y="362"/>
      <point x="473" y="362" type="curve" smooth="yes"/>
      <point x="329" y="362" type="line"/>
      <point x="309" y="419" type="line"/>
      <point x="350" y="505" type="line" smooth="yes"/>
      <point x="359" y="524"/>
      <point x="351" y="549"/>
      <point x="331" y="558" type="curve" smooth="yes"/>
      <point x="312" y="567"/>
      <point x="287" y="559"/>
      <point x="278" y="539" type="curve" smooth="yes"/>
      <point x="230" y="439" type="line" smooth="yes"/>
      <point x="226" y="431"/>
      <point x="225" y="418"/>
      <point x="228" y="409" type="curve" smooth="yes"/>
      <point x="244" y="362" type="line"/>
      <point x="90" y="362" type="line" smooth="yes"/>
      <point x="68" y="362"/>
      <point x="50" y="344"/>
      <point x="50" y="322" type="curve" smooth="yes"/>
      <point x="50" y="300"/>
      <point x="68" y="282"/>
      <point x="90" y="282" type="curve" smooth="yes"/>
      <point x="254" y="282" type="line"/>
      <point x="245" y="226" type="line"/>
      <point x="235" y="126" type="line" smooth="yes"/>
      <point x="233" y="104"/>
      <point x="250" y="84"/>
      <point x="271" y="82" type="curve" smooth="yes"/>
      <point x="293" y="80"/>
      <point x="313" y="97"/>
    </contour>
  </outline>
</glyph>
<glyph name="comma" format="1">
  <advance width="300"/>
  <unicode hex="002C"/>
  <outline>
    <contour>
      <point x="90" y="-98" type="curve" smooth="yes"/>
      <point x="210" y="-98" type="line" smooth="yes"/>
      <point x="234" y="-98"/>
      <point x="252" y="-79"/>
      <point x="250" y="-55" type="curve" smooth="yes"/>
      <point x="242" y="45" type="line" smooth="yes"/>
      <point x="242" y="46"/>
      <point x="242" y="48"/>
      <point x="241" y="49" type="curve" smooth="yes"/>
      <point x="223" y="149" type="line" smooth="yes"/>
      <point x="220" y="170"/>
      <point x="198" y="185"/>
      <point x="177" y="181" type="curve" smooth="yes"/>
      <point x="156" y="178"/>
      <point x="141" y="156"/>
      <point x="145" y="135" type="curve" smooth="yes"/>
      <point x="162" y="37" type="line"/>
      <point x="167" y="-18" type="line"/>
      <point x="90" y="-18" type="line" smooth="yes"/>
      <point x="68" y="-18"/>
      <point x="50" y="-36"/>
      <point x="50" y="-58" type="curve" smooth="yes"/>
      <point x="50" y="-80"/>
      <point x="68" y="-98"/>
    </contour>
  </outline>
</glyph>
<glyph name="hyphen" format="1">
  <advance width="384"/>
  <unicode hex="002D"/>
  <outline>
    <contour>
      <point x="90" y="256" type="curve" smooth="yes"/>
      <point x="294" y="256" type="line" smooth="yes"/>
      <point x="316" y="256"/>
      <point x="334" y="274"/>
      <point x="334" y="296" type="curve" smooth="yes"/>
      <point x="334" y="318"/>
      <point x="316" y="336"/>
      <point x="294" y="336" type="curve" smooth="yes"/>
      <point x="90" y="336" type="line" smooth="yes"/>
      <point x="68" y="336"/>
      <point x="50" y="318"/>
      <point x="50" y="296" type="curve" smooth="yes"/>
      <point x="50" y="274"/>
      <point x="68" y="256"/>
    </contour>
  </outline>
</glyph>
<glyph name="period" format="1">
  <advance width="209"/>
  <unicode hex="002E"/>
  <outline>
    <contour>
      <point x="52" y="23" type="curve" smooth="yes"/>
      <point x="45" y="3"/>
      <point x="57" y="-21"/>
      <point x="77" y="-28" type="curve" smooth="yes"/>
      <point x="106" y="-38" type="line" smooth="yes"/>
      <point x="126" y="-45"/>
      <point x="150" y="-33"/>
      <point x="157" y="-13" type="curve" smooth="yes"/>
      <point x="164" y="7"/>
      <point x="152" y="31"/>
      <point x="132" y="38" type="curve" smooth="yes"/>
      <point x="103" y="48" type="line" smooth="yes"/>
      <point x="83" y="55"/>
      <point x="59" y="43"/>
    </contour>
  </outline>
</glyph>
<glyph name="slash" format="1">
  <advance width="748"/>
  <unicode hex="002F"/>
  <outline>
    <contour>
      <point x="126" y="-16" type="curve" smooth="yes"/>
      <point x="165" y="61" type="line"/>
      <point x="220" y="135" type="line"/>
      <point x="305" y="212" type="line" smooth="yes"/>
      <point x="306" y="214"/>
      <point x="308" y="216"/>
      <point x="309" y="217" type="curve" smooth="yes"/>
      <point x="375" y="300" type="line"/>
      <point x="430" y="380" type="line"/>
      <point x="481" y="460" type="line"/>
      <point x="533" y="537" type="line"/>
      <point x="596" y="617" type="line" smooth="yes"/>
      <point x="598" y="620"/>
      <point x="601" y="624"/>
      <point x="602" y="626" type="curve" smooth="yes"/>
      <point x="634" y="702" type="line"/>
      <point x="691" y="778" type="line" smooth="yes"/>
      <point x="704" y="795"/>
      <point x="700" y="821"/>
      <point x="683" y="834" type="curve" smooth="yes"/>
      <point x="666" y="847"/>
      <point x="640" y="843"/>
      <point x="627" y="826" type="curve" smooth="yes"/>
      <point x="567" y="746" type="line" smooth="yes"/>
      <point x="565" y="744"/>
      <point x="563" y="740"/>
      <point x="562" y="738" type="curve" smooth="yes"/>
      <point x="530" y="663" type="line"/>
      <point x="471" y="587" type="line"/>
      <point x="415" y="504" type="line"/>
      <point x="362" y="424" type="line"/>
      <point x="309" y="344" type="line"/>
      <point x="249" y="269" type="line"/>
      <point x="163" y="192" type="line" smooth="yes"/>
      <point x="161" y="190"/>
      <point x="159" y="188"/>
      <point x="158" y="186" type="curve" smooth="yes"/>
      <point x="99" y="106" type="line" smooth="yes"/>
      <point x="98" y="104"/>
      <point x="96" y="102"/>
      <point x="95" y="100" type="curve" smooth="yes"/>
      <point x="54" y="20" type="line" smooth="yes"/>
      <point x="45" y="1"/>
      <point x="53" y="-24"/>
      <point x="72" y="-34" type="curve" smooth="yes"/>
      <point x="91" y="-43"/>
      <point x="116" y="-35"/>
    </contour>
  </outline>
</glyph>
<glyph name="zero" format="1">
  <advance width="799"/>
  <unicode hex="0030"/>
  <outline>
    <contour>
      <point x="294" y="-38" type="curve" smooth="yes"/>
      <point x="479" y="-38" type="line" smooth="yes"/>
      <point x="482" y="-38"/>
      <point x="487" y="-37"/>
      <point x="489" y="-37" type="curve" smooth="yes"/>
      <point x="624" y="-1" type="line" smooth="yes"/>
      <point x="629" y="1"/>
      <point x="636" y="5"/>
      <point x="640" y="8" type="curve" smooth="yes"/>
      <point x="732" y="88" type="line" smooth="yes"/>
      <point x="739" y="95"/>
      <point x="745" y="108"/>
      <point x="746" y="117" type="curve" smooth="yes"/>
      <point x="749" y="200" type="line" smooth="yes"/>
      <point x="749" y="205"/>
      <point x="748" y="213"/>
      <point x="746" y="217" type="curve" smooth="yes"/>
      <point x="710" y="306" type="line"/>
      <point x="747" y="494" type="line" smooth="yes"/>
      <point x="748" y="500"/>
      <point x="748" y="509"/>
      <point x="746" y="515" type="curve" smooth="yes"/>
      <point x="719" y="597" type="line"/>
      <point x="740" y="634" type="line" smooth="yes"/>
      <point x="746" y="644"/>
      <point x="747" y="662"/>
      <point x="741" y="673" type="curve" smooth="yes"/>
      <point x="687" y="770" type="line" smooth="yes"/>
      <point x="683" y="777"/>
      <point x="673" y="785"/>
      <point x="665" y="788" type="curve" smooth="yes"/>
      <point x="513" y="840" type="line" smooth="yes"/>
      <point x="509" y="841"/>
      <point x="504" y="842"/>
      <point x="500" y="842" type="curve" smooth="yes"/>
      <point x="262" y="842" type="line" smooth="yes"/>
      <point x="259" y="842"/>
      <point x="254" y="841"/>
      <point x="251" y="840" type="curve" smooth="yes"/>
      <point x="123" y="804" type="line" smooth="yes"/>
      <point x="111" y="801"/>
      <point x="98" y="789"/>
      <point x="95" y="777" type="curve" smooth="yes"/>
      <point x="72" y="696" type="line" smooth="yes"/>
      <point x="71" y="695"/>
      <point x="71" y="693"/>
      <point x="71" y="691" type="curve" smooth="yes"/>
      <point x="57" y="608" type="line" smooth="yes"/>
      <point x="57" y="605"/>
      <point x="57" y="600"/>
      <point x="57" y="597" type="curve" smooth="yes"/>
      <point x="69" y="501" type="line"/>
      <point x="61" y="405" type="line" smooth="yes"/>
      <point x="61" y="404"/>
      <point x="61" y="402"/>
      <point x="61" y="401" type="curve" smooth="yes"/>
      <point x="64" y="304" type="line"/>
      <point x="50" y="208" type="line" smooth="yes"/>
      <point x="50" y="204"/>
      <point x="50" y="199"/>
      <point x="50" y="196" type="curve" smooth="yes"/>
      <point x="63" y="113" type="line" smooth="yes"/>
      <point x="64" y="107"/>
      <point x="67" y="99"/>
      <point x="71" y="94" type="curve" smooth="yes"/>
      <point x="132" y="14" type="line" smooth="yes"/>
      <point x="136" y="8"/>
      <point x="145" y="2"/>
      <point x="151" y="0" type="curve" smooth="yes"/>
      <point x="259" y="-36" type="line" smooth="yes"/>
      <point x="267" y="-39"/>
      <point x="275" y="-38"/>
      <point x="283" y="-36" type="curve"/>
      <point x="286" y="-37"/>
      <point x="290" y="-38"/>
    </contour>
    <contour>
      <point x="176" y="157" type="line"/>
      <point x="150" y="122" type="line"/>
      <point x="141" y="135" type="line"/>
      <point x="130" y="202" type="line"/>
      <point x="144" y="296" type="line" smooth="yes"/>
      <point x="144" y="298"/>
      <point x="144" y="301"/>
      <point x="144" y="303" type="curve" smooth="yes"/>
      <point x="141" y="401" type="line"/>
      <point x="149" y="499" type="line" smooth="yes"/>
      <point x="149" y="501"/>
      <point x="149" y="505"/>
      <point x="149" y="507" type="curve" smooth="yes"/>
      <point x="137" y="601" type="line"/>
      <point x="149" y="676" type="line"/>
      <point x="166" y="733" type="line"/>
      <point x="268" y="762" type="line"/>
      <point x="493" y="762" type="line"/>
      <point x="586" y="730" type="line"/>
      <point x="537" y="689" type="line" smooth="yes"/>
      <point x="534" y="687"/>
      <point x="530" y="682"/>
      <point x="528" y="679" type="curve" smooth="yes"/>
      <point x="485" y="606" type="line"/>
      <point x="430" y="532" type="line" smooth="yes"/>
      <point x="429" y="531"/>
      <point x="428" y="530"/>
      <point x="428" y="529" type="curve" smooth="yes"/>
      <point x="384" y="457" type="line"/>
      <point x="316" y="385" type="line" smooth="yes"/>
      <point x="314" y="382"/>
      <point x="311" y="379"/>
      <point x="310" y="376" type="curve" smooth="yes"/>
      <point x="270" y="301" type="line"/>
      <point x="234" y="228" type="line"/>
    </contour>
    <contour>
      <point x="238" y="106" type="line"/>
      <point x="299" y="181" type="line" smooth="yes"/>
      <point x="301" y="183"/>
      <point x="303" y="187"/>
      <point x="304" y="189" type="curve" smooth="yes"/>
      <point x="341" y="263" type="line"/>
      <point x="378" y="334" type="line"/>
      <point x="445" y="405" type="line" smooth="yes"/>
      <point x="446" y="407"/>
      <point x="449" y="410"/>
      <point x="450" y="412" type="curve" smooth="yes"/>
      <point x="495" y="485" type="line"/>
      <point x="551" y="559" type="line" smooth="yes"/>
      <point x="551" y="560"/>
      <point x="553" y="562"/>
      <point x="553" y="563" type="curve" smooth="yes"/>
      <point x="594" y="633" type="line"/>
      <point x="647" y="677" type="line"/>
      <point x="659" y="654" type="line"/>
      <point x="641" y="622" type="line" smooth="yes"/>
      <point x="635" y="614"/>
      <point x="634" y="599"/>
      <point x="637" y="589" type="curve" smooth="yes"/>
      <point x="667" y="499" type="line"/>
      <point x="629" y="310" type="line" smooth="yes"/>
      <point x="627" y="303"/>
      <point x="628" y="293"/>
      <point x="631" y="287" type="curve" smooth="yes"/>
      <point x="669" y="195" type="line"/>
      <point x="666" y="137" type="line"/>
      <point x="594" y="74" type="line"/>
      <point x="474" y="42" type="line"/>
      <point x="294" y="42" type="line" smooth="yes"/>
      <point x="290" y="42"/>
      <point x="287" y="41"/>
      <point x="283" y="40" type="curve"/>
      <point x="208" y="65" type="line"/>
    </contour>
  </outline>
</glyph>
<glyph name="one" format="1">
  <advance width="798"/>
  <unicode hex="0031"/>
  <outline>
    <contour>
      <point x="121" y="-39" type="curve" smooth="yes"/>
      <point x="708" y="-39" type="line" smooth="yes"/>
      <point x="730" y="-39"/>
      <point x="748" y="-21"/>
      <point x="748" y="1" type="curve" smooth="yes"/>
      <point x="748" y="23"/>
      <point x="730" y="41"/>
      <point x="708" y="41" type="curve" smooth="yes"/>
      <point x="426" y="41" type="line"/>
      <point x="428" y="45"/>
      <point x="430" y="49"/>
      <point x="430" y="53" type="curve" smooth="yes"/>
      <point x="452" y="195" type="line" smooth="yes"/>
      <point x="452" y="200"/>
      <point x="452" y="207"/>
      <point x="451" y="211" type="curve" smooth="yes"/>
      <point x="425" y="306" type="line"/>
      <point x="428" y="394" type="line"/>
      <point x="460" y="488" type="line" smooth="yes"/>
      <point x="462" y="494"/>
      <point x="462" y="503"/>
      <point x="461" y="508" type="curve" smooth="yes"/>
      <point x="443" y="605" type="line"/>
      <point x="443" y="701" type="line" smooth="yes"/>
      <point x="443" y="742"/>
      <point x="398" y="758"/>
      <point x="372" y="726" type="curve" smooth="yes"/>
      <point x="343" y="691" type="line"/>
      <point x="253" y="647" type="line"/>
      <point x="217" y="641" type="line"/>
      <point x="90" y="641" type="line" smooth="yes"/>
      <point x="68" y="641"/>
      <point x="50" y="623"/>
      <point x="50" y="601" type="curve" smooth="yes"/>
      <point x="50" y="579"/>
      <point x="68" y="561"/>
      <point x="90" y="561" type="curve" smooth="yes"/>
      <point x="220" y="561" type="line" smooth="yes"/>
      <point x="222" y="561"/>
      <point x="224" y="561"/>
      <point x="226" y="561" type="curve" smooth="yes"/>
      <point x="271" y="568" type="line" smooth="yes"/>
      <point x="275" y="569"/>
      <point x="280" y="571"/>
      <point x="283" y="572" type="curve" smooth="yes"/>
      <point x="363" y="612" type="line"/>
      <point x="363" y="601" type="line" smooth="yes"/>
      <point x="363" y="599"/>
      <point x="363" y="596"/>
      <point x="364" y="594" type="curve" smooth="yes"/>
      <point x="381" y="504" type="line"/>
      <point x="350" y="414" type="line" smooth="yes"/>
      <point x="349" y="411"/>
      <point x="348" y="406"/>
      <point x="348" y="402" type="curve" smooth="yes"/>
      <point x="345" y="302" type="line" smooth="yes"/>
      <point x="345" y="299"/>
      <point x="346" y="294"/>
      <point x="346" y="291" type="curve" smooth="yes"/>
      <point x="371" y="199" type="line"/>
      <point x="355" y="88" type="line"/>
      <point x="257" y="47" type="line"/>
      <point x="219" y="41" type="line"/>
      <point x="121" y="41" type="line" smooth="yes"/>
      <point x="99" y="41"/>
      <point x="81" y="23"/>
      <point x="81" y="1" type="curve" smooth="yes"/>
      <point x="81" y="-21"/>
      <point x="99" y="-39"/>
    </contour>
  </outline>
</glyph>
<glyph name="two" format="1">
  <advance width="782"/>
  <unicode hex="0032"/>
  <outline>
    <contour>
      <point x="687" y="-40" type="line" smooth="yes"/>
      <point x="709" y="-40"/>
      <point x="727" y="-22"/>
      <point x="727" y="0" type="curve" smooth="yes"/>
      <point x="727" y="22"/>
      <point x="709" y="40"/>
      <point x="687" y="40" type="curve" smooth="yes"/>
      <point x="139" y="40" type="line"/>
      <point x="131" y="99" type="line"/>
      <point x="148" y="193" type="line" smooth="yes"/>
      <point x="149" y="195"/>
      <point x="149" y="200"/>
      <point x="149" y="203" type="curve" smooth="yes"/>
      <point x="142" y="319" type="line"/>
      <point x="202" y="354" type="line"/>
      <point x="274" y="360" type="line"/>
      <point x="388" y="360" type="line"/>
      <point x="506" y="360" type="line" smooth="yes"/>
      <point x="507" y="360"/>
      <point x="509" y="360"/>
      <point x="509" y="360" type="curve" smooth="yes"/>
      <point x="589" y="367" type="line" smooth="yes"/>
      <point x="594" y="368"/>
      <point x="601" y="370"/>
      <point x="605" y="372" type="curve" smooth="yes"/>
      <point x="694" y="424" type="line" smooth="yes"/>
      <point x="703" y="429"/>
      <point x="712" y="442"/>
      <point x="714" y="453" type="curve" smooth="yes"/>
      <point x="732" y="595" type="line" smooth="yes"/>
      <point x="733" y="603"/>
      <point x="730" y="615"/>
      <point x="725" y="622" type="curve" smooth="yes"/>
      <point x="693" y="671" type="line"/>
      <point x="656" y="763" type="line" smooth="yes"/>
      <point x="652" y="772"/>
      <point x="642" y="782"/>
      <point x="633" y="786" type="curve" smooth="yes"/>
      <point x="495" y="837" type="line" smooth="yes"/>
      <point x="491" y="839"/>
      <point x="485" y="840"/>
      <point x="481" y="840" type="curve" smooth="yes"/>
      <point x="277" y="840" type="line" smooth="yes"/>
      <point x="276" y="840"/>
      <point x="274" y="840"/>
      <point x="273" y="840" type="curve" smooth="yes"/>
      <point x="209" y="833" type="line" smooth="yes"/>
      <point x="203" y="832"/>
      <point x="194" y="828"/>
      <point x="189" y="825" type="curve" smooth="yes"/>
      <point x="123" y="773" type="line" smooth="yes"/>
      <point x="117" y="769"/>
      <point x="111" y="760"/>
      <point x="109" y="753" type="curve" smooth="yes"/>
      <point x="66" y="612" type="line" smooth="yes"/>
      <point x="59" y="591"/>
      <point x="72" y="568"/>
      <point x="92" y="562" type="curve" smooth="yes"/>
      <point x="113" y="555"/>
      <point x="136" y="568"/>
      <point x="142" y="588" type="curve" smooth="yes"/>
      <point x="182" y="718" type="line"/>
      <point x="229" y="755" type="line"/>
      <point x="279" y="760" type="line"/>
      <point x="474" y="760" type="line"/>
      <point x="588" y="717" type="line"/>
      <point x="620" y="637" type="line" smooth="yes"/>
      <point x="621" y="635"/>
      <point x="623" y="631"/>
      <point x="624" y="629" type="curve" smooth="yes"/>
      <point x="650" y="590" type="line"/>
      <point x="637" y="483" type="line"/>
      <point x="573" y="446" type="line"/>
      <point x="504" y="440" type="line"/>
      <point x="388" y="440" type="line"/>
      <point x="268" y="440" type="line"/>
      <point x="186" y="433" type="line" smooth="yes"/>
      <point x="181" y="432"/>
      <point x="174" y="430"/>
      <point x="170" y="428" type="curve" smooth="yes"/>
      <point x="80" y="376" type="line" smooth="yes"/>
      <point x="68" y="369"/>
      <point x="59" y="353"/>
      <point x="60" y="339" type="curve" smooth="yes"/>
      <point x="69" y="203" type="line"/>
      <point x="51" y="107" type="line" smooth="yes"/>
      <point x="50" y="104"/>
      <point x="50" y="98"/>
      <point x="50" y="94" type="curve" smooth="yes"/>
      <point x="65" y="-6" type="line" smooth="yes"/>
      <point x="68" y="-25"/>
      <point x="86" y="-40"/>
      <point x="105" y="-40" type="curve" smooth="yes"/>
    </contour>
  </outline>
</glyph>
<glyph name="three" format="1">
  <advance width="818"/>
  <unicode hex="0033"/>
  <outline>
    <contour>
      <point x="314" y="-39" type="curve" smooth="yes"/>
      <point x="415" y="-39" type="line"/>
      <point x="520" y="-39" type="line"/>
      <point x="612" y="-32" type="line" smooth="yes"/>
      <point x="619" y="-31"/>
      <point x="629" y="-27"/>
      <point x="635" y="-23" type="curve" smooth="yes"/>
      <point x="697" y="28" type="line" smooth="yes"/>
      <point x="702" y="32"/>
      <point x="707" y="39"/>
      <point x="709" y="44" type="curve" smooth="yes"/>
      <point x="766" y="186" type="line" smooth="yes"/>
      <point x="770" y="196"/>
      <point x="769" y="212"/>
      <point x="763" y="221" type="curve" smooth="yes"/>
      <point x="719" y="298" type="line"/>
      <point x="709" y="370" type="line" smooth="yes"/>
      <point x="707" y="386"/>
      <point x="693" y="401"/>
      <point x="677" y="404" type="curve" smooth="yes"/>
      <point x="674" y="405" type="line"/>
      <point x="679" y="408"/>
      <point x="683" y="412"/>
      <point x="686" y="416" type="curve" smooth="yes"/>
      <point x="734" y="497" type="line" smooth="yes"/>
      <point x="737" y="501"/>
      <point x="739" y="509"/>
      <point x="740" y="514" type="curve" smooth="yes"/>
      <point x="748" y="597" type="line" smooth="yes"/>
      <point x="748" y="600"/>
      <point x="748" y="605"/>
      <point x="747" y="607" type="curve" smooth="yes"/>
      <point x="724" y="749" type="line" smooth="yes"/>
      <point x="722" y="761"/>
      <point x="712" y="775"/>
      <point x="701" y="779" type="curve" smooth="yes"/>
      <point x="582" y="831" type="line" smooth="yes"/>
      <point x="579" y="832"/>
      <point x="574" y="833"/>
      <point x="570" y="834" type="curve" smooth="yes"/>
      <point x="502" y="841" type="line" smooth="yes"/>
      <point x="501" y="841"/>
      <point x="499" y="841"/>
      <point x="498" y="841" type="curve" smooth="yes"/>
      <point x="329" y="841" type="line" smooth="yes"/>
      <point x="326" y="841"/>
      <point x="322" y="841"/>
      <point x="320" y="840" type="curve" smooth="yes"/>
      <point x="163" y="804" type="line" smooth="yes"/>
      <point x="157" y="802"/>
      <point x="148" y="797"/>
      <point x="143" y="792" type="curve" smooth="yes"/>
      <point x="67" y="712" type="line" smooth="yes"/>
      <point x="62" y="706"/>
      <point x="57" y="695"/>
      <point x="56" y="687" type="curve" smooth="yes"/>
      <point x="50" y="604" type="line" smooth="yes"/>
      <point x="49" y="582"/>
      <point x="66" y="563"/>
      <point x="87" y="561" type="curve" smooth="yes"/>
      <point x="109" y="560"/>
      <point x="128" y="577"/>
      <point x="130" y="598" type="curve" smooth="yes"/>
      <point x="135" y="667" type="line"/>
      <point x="193" y="729" type="line"/>
      <point x="334" y="761" type="line"/>
      <point x="496" y="761" type="line"/>
      <point x="556" y="755" type="line"/>
      <point x="649" y="715" type="line"/>
      <point x="668" y="600" type="line"/>
      <point x="661" y="530" type="line"/>
      <point x="626" y="471" type="line"/>
      <point x="517" y="441" type="line"/>
      <point x="387" y="441" type="line"/>
      <point x="387" y="361" type="line"/>
      <point x="481" y="361" type="line"/>
      <point x="634" y="331" type="line"/>
      <point x="640" y="279" type="line" smooth="yes"/>
      <point x="641" y="275"/>
      <point x="643" y="268"/>
      <point x="646" y="264" type="curve" smooth="yes"/>
      <point x="685" y="198" type="line"/>
      <point x="639" y="84" type="line"/>
      <point x="594" y="47" type="line"/>
      <point x="514" y="41" type="line"/>
      <point x="415" y="41" type="line"/>
      <point x="318" y="41" type="line"/>
      <point x="173" y="72" type="line"/>
      <point x="155" y="120" type="line"/>
      <point x="171" y="193" type="line" smooth="yes"/>
      <point x="176" y="214"/>
      <point x="162" y="236"/>
      <point x="140" y="240" type="curve" smooth="yes"/>
      <point x="119" y="245"/>
      <point x="97" y="231"/>
      <point x="93" y="209" type="curve" smooth="yes"/>
      <point x="75" y="126" type="line" smooth="yes"/>
      <point x="74" y="120"/>
      <point x="74" y="110"/>
      <point x="76" y="104" type="curve" smooth="yes"/>
      <point x="105" y="24" type="line" smooth="yes"/>
      <point x="109" y="12"/>
      <point x="122" y="0"/>
      <point x="134" y="-2" type="curve" smooth="yes"/>
      <point x="306" y="-38" type="line" smooth="yes"/>
      <point x="308" y="-39"/>
      <point x="312" y="-39"/>
    </contour>
  </outline>
</glyph>
<glyph name="four" format="1">
  <advance width="752"/>
  <unicode hex="0034"/>
  <outline>
    <contour>
      <point x="664" y="-5" type="curve" smooth="yes"/>
      <point x="673" y="62" type="line"/>
      <point x="674" y="62" type="line" smooth="yes"/>
      <point x="695" y="68"/>
      <point x="707" y="91"/>
      <point x="700" y="112" type="curve" smooth="yes"/>
      <point x="684" y="165" type="line"/>
      <point x="686" y="198" type="line" smooth="yes"/>
      <point x="686" y="199"/>
      <point x="686" y="201"/>
      <point x="686" y="202" type="curve" smooth="yes"/>
      <point x="683" y="302" type="line" smooth="yes"/>
      <point x="683" y="303"/>
      <point x="683" y="306"/>
      <point x="682" y="308" type="curve" smooth="yes"/>
      <point x="664" y="404" type="line"/>
      <point x="663" y="499" type="line"/>
      <point x="670" y="597" type="line" smooth="yes"/>
      <point x="671" y="619"/>
      <point x="654" y="638"/>
      <point x="633" y="640" type="curve" smooth="yes"/>
      <point x="611" y="641"/>
      <point x="592" y="624"/>
      <point x="590" y="603" type="curve" smooth="yes"/>
      <point x="583" y="503" type="line" smooth="yes"/>
      <point x="583" y="502"/>
      <point x="583" y="501"/>
      <point x="583" y="500" type="curve" smooth="yes"/>
      <point x="584" y="400" type="line" smooth="yes"/>
      <point x="584" y="398"/>
      <point x="584" y="395"/>
      <point x="585" y="393" type="curve" smooth="yes"/>
      <point x="603" y="296" type="line"/>
      <point x="604" y="279" type="line"/>
      <point x="593" y="291" type="line" smooth="yes"/>
      <point x="589" y="296"/>
      <point x="580" y="301"/>
      <point x="574" y="303" type="curve" smooth="yes"/>
      <point x="438" y="339" type="line" smooth="yes"/>
      <point x="435" y="339"/>
      <point x="431" y="340"/>
      <point x="428" y="340" type="curve" smooth="yes"/>
      <point x="147" y="340" type="line"/>
      <point x="134" y="379" type="line"/>
      <point x="172" y="444" type="line"/>
      <point x="237" y="525" type="line" smooth="yes"/>
      <point x="240" y="528"/>
      <point x="243" y="535"/>
      <point x="244" y="539" type="curve" smooth="yes"/>
      <point x="268" y="620" type="line"/>
      <point x="299" y="696" type="line"/>
      <point x="365" y="774" type="line" smooth="yes"/>
      <point x="379" y="791"/>
      <point x="377" y="816"/>
      <point x="361" y="830" type="curve" smooth="yes"/>
      <point x="344" y="844"/>
      <point x="319" y="842"/>
      <point x="305" y="826" type="curve" smooth="yes"/>
      <point x="234" y="743" type="line" smooth="yes"/>
      <point x="231" y="740"/>
      <point x="228" y="735"/>
      <point x="227" y="732" type="curve" smooth="yes"/>
      <point x="193" y="648" type="line" smooth="yes"/>
      <point x="193" y="647"/>
      <point x="192" y="646"/>
      <point x="192" y="644" type="curve" smooth="yes"/>
      <point x="170" y="569" type="line"/>
      <point x="108" y="492" type="line" smooth="yes"/>
      <point x="107" y="490"/>
      <point x="105" y="488"/>
      <point x="105" y="487" type="curve" smooth="yes"/>
      <point x="56" y="404" type="line" smooth="yes"/>
      <point x="50" y="395"/>
      <point x="49" y="380"/>
      <point x="52" y="370" type="curve" smooth="yes"/>
      <point x="81" y="287" type="line" smooth="yes"/>
      <point x="86" y="272"/>
      <point x="103" y="260"/>
      <point x="119" y="260" type="curve" smooth="yes"/>
      <point x="423" y="260" type="line"/>
      <point x="542" y="228" type="line"/>
      <point x="600" y="163" type="line"/>
      <point x="603" y="156" type="line"/>
      <point x="599" y="104" type="line"/>
      <point x="584" y="7" type="line" smooth="yes"/>
      <point x="581" y="-14"/>
      <point x="597" y="-35"/>
      <point x="618" y="-39" type="curve" smooth="yes"/>
      <point x="639" y="-42"/>
      <point x="660" y="-26"/>
    </contour>
  </outline>
</glyph>
<glyph name="five" format="1">
  <advance width="807"/>
  <unicode hex="0035"/>
  <outline>
    <contour>
      <point x="310" y="-39" type="curve" smooth="yes"/>
      <point x="504" y="-39" type="line" smooth="yes"/>
      <point x="505" y="-39"/>
      <point x="507" y="-39"/>
      <point x="508" y="-39" type="curve" smooth="yes"/>
      <point x="586" y="-32" type="line" smooth="yes"/>
      <point x="590" y="-32"/>
      <point x="596" y="-30"/>
      <point x="600" y="-28" type="curve" smooth="yes"/>
      <point x="705" y="23" type="line" smooth="yes"/>
      <point x="715" y="28"/>
      <point x="725" y="41"/>
      <point x="727" y="51" type="curve" smooth="yes"/>
      <point x="756" y="193" type="line" smooth="yes"/>
      <point x="757" y="196"/>
      <point x="757" y="201"/>
      <point x="757" y="204" type="curve" smooth="yes"/>
      <point x="750" y="288" type="line" smooth="yes"/>
      <point x="749" y="295"/>
      <point x="745" y="305"/>
      <point x="740" y="311" type="curve" smooth="yes"/>
      <point x="669" y="391" type="line" smooth="yes"/>
      <point x="664" y="397"/>
      <point x="655" y="402"/>
      <point x="648" y="404" type="curve" smooth="yes"/>
      <point x="492" y="440" type="line" smooth="yes"/>
      <point x="490" y="441"/>
      <point x="486" y="441"/>
      <point x="483" y="441" type="curve" smooth="yes"/>
      <point x="166" y="441" type="line"/>
      <point x="164" y="503" type="line" smooth="yes"/>
      <point x="164" y="506"/>
      <point x="163" y="511"/>
      <point x="162" y="514" type="curve" smooth="yes"/>
      <point x="132" y="601" type="line"/>
      <point x="157" y="670" type="line"/>
      <point x="181" y="731" type="line"/>
      <point x="302" y="761" type="line"/>
      <point x="697" y="761" type="line" smooth="yes"/>
      <point x="719" y="761"/>
      <point x="737" y="779"/>
      <point x="737" y="801" type="curve" smooth="yes"/>
      <point x="737" y="823"/>
      <point x="719" y="841"/>
      <point x="697" y="841" type="curve" smooth="yes"/>
      <point x="297" y="841" type="line" smooth="yes"/>
      <point x="294" y="841"/>
      <point x="290" y="840"/>
      <point x="287" y="840" type="curve" smooth="yes"/>
      <point x="142" y="804" type="line" smooth="yes"/>
      <point x="131" y="801"/>
      <point x="118" y="790"/>
      <point x="114" y="779" type="curve" smooth="yes"/>
      <point x="82" y="698" type="line"/>
      <point x="52" y="615" type="line" smooth="yes"/>
      <point x="49" y="607"/>
      <point x="49" y="595"/>
      <point x="51" y="588" type="curve" smooth="yes"/>
      <point x="84" y="493" type="line"/>
      <point x="88" y="399" type="line" smooth="yes"/>
      <point x="89" y="378"/>
      <point x="107" y="361"/>
      <point x="128" y="361" type="curve" smooth="yes"/>
      <point x="478" y="361" type="line"/>
      <point x="617" y="329" type="line"/>
      <point x="671" y="268" type="line"/>
      <point x="677" y="203" type="line"/>
      <point x="653" y="87" type="line"/>
      <point x="572" y="47" type="line"/>
      <point x="502" y="41" type="line"/>
      <point x="315" y="41" type="line"/>
      <point x="179" y="73" type="line"/>
      <point x="132" y="130" type="line"/>
      <point x="139" y="197" type="line" smooth="yes"/>
      <point x="141" y="218"/>
      <point x="125" y="238"/>
      <point x="103" y="241" type="curve" smooth="yes"/>
      <point x="82" y="243"/>
      <point x="62" y="227"/>
      <point x="59" y="205" type="curve" smooth="yes"/>
      <point x="50" y="122" type="line" smooth="yes"/>
      <point x="49" y="113"/>
      <point x="53" y="99"/>
      <point x="59" y="92" type="curve" smooth="yes"/>
      <point x="126" y="12" type="line" smooth="yes"/>
      <point x="130" y="6"/>
      <point x="140" y="0"/>
      <point x="147" y="-2" type="curve" smooth="yes"/>
      <point x="301" y="-38" type="line" smooth="yes"/>
      <point x="303" y="-39"/>
      <point x="307" y="-39"/>
    </contour>
  </outline>
</glyph>
<glyph name="six" format="1">
  <advance width="818"/>
  <unicode hex="0036"/>
  <outline>
    <contour>
      <point x="303" y="-39" type="curve" smooth="yes"/>
      <point x="392" y="-39" type="line"/>
      <point x="506" y="-39" type="line"/>
      <point x="596" y="-32" type="line" smooth="yes"/>
      <point x="601" y="-32"/>
      <point x="608" y="-30"/>
      <point x="612" y="-27" type="curve" smooth="yes"/>
      <point x="710" y="24" type="line" smooth="yes"/>
      <point x="718" y="29"/>
      <point x="727" y="40"/>
      <point x="730" y="49" type="curve" smooth="yes"/>
      <point x="766" y="191" type="line" smooth="yes"/>
      <point x="767" y="196"/>
      <point x="767" y="204"/>
      <point x="766" y="209" type="curve" smooth="yes"/>
      <point x="748" y="293" type="line" smooth="yes"/>
      <point x="747" y="297"/>
      <point x="744" y="303"/>
      <point x="742" y="307" type="curve" smooth="yes"/>
      <point x="687" y="388" type="line" smooth="yes"/>
      <point x="682" y="395"/>
      <point x="671" y="402"/>
      <point x="663" y="404" type="curve" smooth="yes"/>
      <point x="513" y="440" type="line" smooth="yes"/>
      <point x="511" y="441"/>
      <point x="507" y="441"/>
      <point x="504" y="441" type="curve" smooth="yes"/>
      <point x="311" y="441" type="line"/>
      <point x="211" y="473" type="line"/>
      <point x="154" y="525" type="line"/>
      <point x="145" y="603" type="line"/>
      <point x="146" y="667" type="line"/>
      <point x="210" y="730" type="line"/>
      <point x="311" y="761" type="line"/>
      <point x="529" y="761" type="line"/>
      <point x="560" y="756" type="line"/>
      <point x="647" y="714" type="line"/>
      <point x="690" y="588" type="line" smooth="yes"/>
      <point x="697" y="568"/>
      <point x="720" y="556"/>
      <point x="741" y="563" type="curve" smooth="yes"/>
      <point x="761" y="570"/>
      <point x="773" y="593"/>
      <point x="766" y="614" type="curve" smooth="yes"/>
      <point x="718" y="755" type="line" smooth="yes"/>
      <point x="715" y="764"/>
      <point x="706" y="775"/>
      <point x="697" y="779" type="curve" smooth="yes"/>
      <point x="590" y="830" type="line" smooth="yes"/>
      <point x="587" y="831"/>
      <point x="582" y="833"/>
      <point x="579" y="833" type="curve" smooth="yes"/>
      <point x="540" y="840" type="line" smooth="yes"/>
      <point x="538" y="841"/>
      <point x="535" y="841"/>
      <point x="533" y="841" type="curve" smooth="yes"/>
      <point x="305" y="841" type="line" smooth="yes"/>
      <point x="302" y="841"/>
      <point x="296" y="840"/>
      <point x="293" y="839" type="curve" smooth="yes"/>
      <point x="177" y="803" type="line" smooth="yes"/>
      <point x="172" y="802"/>
      <point x="165" y="797"/>
      <point x="162" y="794" type="curve" smooth="yes"/>
      <point x="78" y="713" type="line" smooth="yes"/>
      <point x="72" y="707"/>
      <point x="66" y="694"/>
      <point x="66" y="685" type="curve" smooth="yes"/>
      <point x="65" y="620" type="line"/>
      <point x="62" y="614"/>
      <point x="60" y="607"/>
      <point x="60" y="600" type="curve" smooth="yes"/>
      <point x="62" y="517" type="line" smooth="yes"/>
      <point x="62" y="508"/>
      <point x="68" y="495"/>
      <point x="74" y="489" type="curve"/>
      <point x="64" y="404" type="line"/>
      <point x="56" y="303" type="line"/>
      <point x="50" y="203" type="line" smooth="yes"/>
      <point x="50" y="199"/>
      <point x="51" y="192"/>
      <point x="52" y="187" type="curve" smooth="yes"/>
      <point x="82" y="104" type="line" smooth="yes"/>
      <point x="83" y="101"/>
      <point x="86" y="97"/>
      <point x="88" y="94" type="curve" smooth="yes"/>
      <point x="146" y="14" type="line" smooth="yes"/>
      <point x="150" y="7"/>
      <point x="160" y="1"/>
      <point x="167" y="-1" type="curve" smooth="yes"/>
      <point x="292" y="-37" type="line" smooth="yes"/>
      <point x="295" y="-38"/>
      <point x="300" y="-39"/>
    </contour>
    <contour>
      <point x="500" y="41" type="line"/>
      <point x="392" y="41" type="line"/>
      <point x="309" y="41" type="line"/>
      <point x="203" y="72" type="line"/>
      <point x="156" y="136" type="line"/>
      <point x="130" y="207" type="line"/>
      <point x="136" y="299" type="line"/>
      <point x="144" y="398" type="line"/>
      <point x="147" y="423" type="line"/>
      <point x="163" y="408" type="line" smooth="yes"/>
      <point x="167" y="404"/>
      <point x="174" y="400"/>
      <point x="178" y="399" type="curve" smooth="yes"/>
      <point x="293" y="363" type="line" smooth="yes"/>
      <point x="296" y="362"/>
      <point x="302" y="361"/>
      <point x="305" y="361" type="curve" smooth="yes"/>
      <point x="499" y="361" type="line"/>
      <point x="629" y="330" type="line"/>
      <point x="672" y="268" type="line"/>
      <point x="686" y="202" type="line"/>
      <point x="657" y="86" type="line"/>
      <point x="582" y="47" type="line"/>
    </contour>
  </outline>
</glyph>
<glyph name="seven" format="1">
  <advance width="745"/>
  <unicode hex="0037"/>
  <outline>
    <contour>
      <point x="289" y="-27" type="curve" smooth="yes"/>
      <point x="352" y="59" type="line"/>
      <point x="423" y="142" type="line" smooth="yes"/>
      <point x="424" y="143"/>
      <point x="425" y="145"/>
      <point x="426" y="146" type="curve" smooth="yes"/>
      <point x="484" y="232" type="line" smooth="yes"/>
      <point x="487" y="235"/>
      <point x="489" y="242"/>
      <point x="490" y="246" type="curve" smooth="yes"/>
      <point x="505" y="320" type="line"/>
      <point x="582" y="397" type="line" smooth="yes"/>
      <point x="584" y="399"/>
      <point x="587" y="402"/>
      <point x="588" y="405" type="curve" smooth="yes"/>
      <point x="641" y="490" type="line" smooth="yes"/>
      <point x="642" y="492"/>
      <point x="644" y="495"/>
      <point x="644" y="497" type="curve" smooth="yes"/>
      <point x="677" y="583" type="line" smooth="yes"/>
      <point x="678" y="585"/>
      <point x="679" y="588"/>
      <point x="679" y="590" type="curve" smooth="yes"/>
      <point x="695" y="673" type="line" smooth="yes"/>
      <point x="696" y="680"/>
      <point x="695" y="691"/>
      <point x="692" y="697" type="curve" smooth="yes"/>
      <point x="656" y="777" type="line" smooth="yes"/>
      <point x="651" y="787"/>
      <point x="639" y="797"/>
      <point x="628" y="800" type="curve" smooth="yes"/>
      <point x="469" y="836" type="line" smooth="yes"/>
      <point x="466" y="837"/>
      <point x="462" y="837"/>
      <point x="460" y="837" type="curve" smooth="yes"/>
      <point x="90" y="837" type="line" smooth="yes"/>
      <point x="68" y="837"/>
      <point x="50" y="819"/>
      <point x="50" y="797" type="curve" smooth="yes"/>
      <point x="50" y="775"/>
      <point x="68" y="757"/>
      <point x="90" y="757" type="curve" smooth="yes"/>
      <point x="456" y="757" type="line"/>
      <point x="591" y="726" type="line"/>
      <point x="614" y="675" type="line"/>
      <point x="601" y="608" type="line"/>
      <point x="571" y="529" type="line"/>
      <point x="522" y="451" type="line"/>
      <point x="440" y="368" type="line" smooth="yes"/>
      <point x="435" y="363"/>
      <point x="430" y="354"/>
      <point x="429" y="348" type="curve" smooth="yes"/>
      <point x="413" y="270" type="line"/>
      <point x="361" y="193" type="line"/>
      <point x="288" y="106" type="line"/>
      <point x="225" y="21" type="line" smooth="yes"/>
      <point x="212" y="3"/>
      <point x="216" y="-22"/>
      <point x="233" y="-35" type="curve" smooth="yes"/>
      <point x="251" y="-48"/>
      <point x="276" y="-44"/>
    </contour>
  </outline>
</glyph>
<glyph name="eight" format="1">
  <advance width="818"/>
  <unicode hex="0038"/>
  <outline>
    <contour>
      <point x="289" y="-40" type="curve" smooth="yes"/>
      <point x="539" y="-40" type="line" smooth="yes"/>
      <point x="540" y="-40"/>
      <point x="542" y="-40"/>
      <point x="543" y="-40" type="curve" smooth="yes"/>
      <point x="616" y="-33" type="line" smooth="yes"/>
      <point x="622" y="-32"/>
      <point x="631" y="-29"/>
      <point x="636" y="-26" type="curve" smooth="yes"/>
      <point x="707" y="26" type="line" smooth="yes"/>
      <point x="713" y="30"/>
      <point x="720" y="39"/>
      <point x="722" y="46" type="curve" smooth="yes"/>
      <point x="766" y="188" type="line" smooth="yes"/>
      <point x="768" y="195"/>
      <point x="768" y="206"/>
      <point x="766" y="213" type="curve" smooth="yes"/>
      <point x="737" y="297" type="line" smooth="yes"/>
      <point x="736" y="299"/>
      <point x="734" y="303"/>
      <point x="733" y="305" type="curve" smooth="yes"/>
      <point x="681" y="385" type="line" smooth="yes"/>
      <point x="677" y="393"/>
      <point x="667" y="400"/>
      <point x="658" y="402" type="curve"/>
      <point x="684" y="433" type="line" smooth="yes"/>
      <point x="687" y="436"/>
      <point x="690" y="443"/>
      <point x="691" y="447" type="curve" smooth="yes"/>
      <point x="733" y="589" type="line"/>
      <point x="754" y="674" type="line" smooth="yes"/>
      <point x="757" y="686"/>
      <point x="752" y="702"/>
      <point x="744" y="711" type="curve" smooth="yes"/>
      <point x="669" y="791" type="line" smooth="yes"/>
      <point x="665" y="795"/>
      <point x="658" y="800"/>
      <point x="653" y="802" type="curve" smooth="yes"/>
      <point x="550" y="838" type="line" smooth="yes"/>
      <point x="547" y="839"/>
      <point x="541" y="840"/>
      <point x="537" y="840" type="curve" smooth="yes"/>
      <point x="335" y="840" type="line"/>
      <point x="224" y="833" type="line" smooth="yes"/>
      <point x="218" y="833"/>
      <point x="209" y="830"/>
      <point x="204" y="826" type="curve" smooth="yes"/>
      <point x="129" y="775" type="line" smooth="yes"/>
      <point x="123" y="771"/>
      <point x="117" y="764"/>
      <point x="114" y="758" type="curve" smooth="yes"/>
      <point x="52" y="616" type="line" smooth="yes"/>
      <point x="48" y="606"/>
      <point x="49" y="589"/>
      <point x="55" y="580" type="curve" smooth="yes"/>
      <point x="103" y="496" type="line"/>
      <point x="146" y="417" type="line" smooth="yes"/>
      <point x="149" y="412"/>
      <point x="155" y="406"/>
      <point x="160" y="402" type="curve"/>
      <point x="118" y="375" type="line" smooth="yes"/>
      <point x="110" y="370"/>
      <point x="103" y="358"/>
      <point x="101" y="349" type="curve" smooth="yes"/>
      <point x="74" y="208" type="line" smooth="yes"/>
      <point x="73" y="205"/>
      <point x="73" y="200"/>
      <point x="73" y="197" type="curve" smooth="yes"/>
      <point x="79" y="114" type="line" smooth="yes"/>
      <point x="80" y="106"/>
      <point x="84" y="95"/>
      <point x="90" y="89" type="curve" smooth="yes"/>
      <point x="165" y="9" type="line" smooth="yes"/>
      <point x="169" y="5"/>
      <point x="175" y="1"/>
      <point x="180" y="-1" type="curve" smooth="yes"/>
      <point x="275" y="-37" type="line" smooth="yes"/>
      <point x="279" y="-39"/>
      <point x="285" y="-40"/>
    </contour>
    <contour>
      <point x="500" y="439" type="line" smooth="yes"/>
      <point x="498" y="440"/>
      <point x="494" y="440"/>
      <point x="491" y="440" type="curve" smooth="yes"/>
      <point x="317" y="440" type="line"/>
      <point x="208" y="470" type="line"/>
      <point x="172" y="537" type="line"/>
      <point x="134" y="603" type="line"/>
      <point x="183" y="715" type="line"/>
      <point x="240" y="754" type="line"/>
      <point x="335" y="760" type="line"/>
      <point x="530" y="760" type="line"/>
      <point x="617" y="729" type="line"/>
      <point x="671" y="672" type="line"/>
      <point x="657" y="611" type="line"/>
      <point x="617" y="478" type="line"/>
      <point x="590" y="446" type="line"/>
      <point x="519" y="440" type="line" smooth="yes"/>
      <point x="515" y="440"/>
      <point x="511" y="439"/>
      <point x="508" y="437" type="curve"/>
    </contour>
    <contour>
      <point x="598" y="46" type="line"/>
      <point x="537" y="40" type="line"/>
      <point x="296" y="40" type="line"/>
      <point x="217" y="70" type="line"/>
      <point x="158" y="134" type="line"/>
      <point x="153" y="198" type="line"/>
      <point x="176" y="317" type="line"/>
      <point x="233" y="354" type="line"/>
      <point x="327" y="360" type="line"/>
      <point x="486" y="360" type="line"/>
      <point x="623" y="329" type="line"/>
      <point x="663" y="266" type="line"/>
      <point x="686" y="199" type="line"/>
      <point x="650" y="83" type="line"/>
    </contour>
  </outline>
</glyph>
<glyph name="nine" format="1">
  <advance width="786"/>
  <unicode hex="0039"/>
  <outline>
    <contour>
      <point x="458" y="439" type="line" smooth="yes"/>
      <point x="456" y="440"/>
      <point x="452" y="440"/>
      <point x="450" y="440" type="curve" smooth="yes"/>
      <point x="284" y="440" type="line"/>
      <point x="173" y="470" type="line"/>
      <point x="138" y="529" type="line"/>
      <point x="132" y="599" type="line"/>
      <point x="147" y="717" type="line"/>
      <point x="209" y="754" type="line"/>
      <point x="298" y="760" type="line"/>
      <point x="350" y="760" type="line"/>
      <point x="460" y="760" type="line"/>
      <point x="607" y="729" type="line"/>
      <point x="632" y="671" type="line"/>
      <point x="650" y="597" type="line"/>
      <point x="640" y="506" type="line"/>
      <point x="620" y="408" type="line" smooth="yes"/>
      <point x="620" y="408" type="line"/>
    </contour>
    <contour>
      <point x="255" y="-40" type="curve" smooth="yes"/>
      <point x="454" y="-40" type="line" smooth="yes"/>
      <point x="457" y="-40"/>
      <point x="461" y="-39"/>
      <point x="464" y="-39" type="curve" smooth="yes"/>
      <point x="602" y="-3" type="line" smooth="yes"/>
      <point x="609" y="-1"/>
      <point x="619" y="6"/>
      <point x="624" y="12" type="curve" smooth="yes"/>
      <point x="684" y="93" type="line" smooth="yes"/>
      <point x="685" y="94"/>
      <point x="687" y="96"/>
      <point x="687" y="98" type="curve" smooth="yes"/>
      <point x="731" y="181" type="line" smooth="yes"/>
      <point x="734" y="187"/>
      <point x="736" y="196"/>
      <point x="736" y="202" type="curve" smooth="yes"/>
      <point x="732" y="302" type="line" smooth="yes"/>
      <point x="732" y="305"/>
      <point x="731" y="310"/>
      <point x="730" y="313" type="curve" smooth="yes"/>
      <point x="700" y="402" type="line"/>
      <point x="719" y="492" type="line" smooth="yes"/>
      <point x="719" y="493"/>
      <point x="720" y="495"/>
      <point x="720" y="496" type="curve" smooth="yes"/>
      <point x="731" y="596" type="line" smooth="yes"/>
      <point x="731" y="600"/>
      <point x="731" y="606"/>
      <point x="730" y="610" type="curve" smooth="yes"/>
      <point x="709" y="693" type="line" smooth="yes"/>
      <point x="708" y="695"/>
      <point x="708" y="698"/>
      <point x="707" y="699" type="curve" smooth="yes"/>
      <point x="672" y="780" type="line" smooth="yes"/>
      <point x="668" y="790"/>
      <point x="655" y="801"/>
      <point x="644" y="803" type="curve" smooth="yes"/>
      <point x="472" y="839" type="line" smooth="yes"/>
      <point x="470" y="840"/>
      <point x="466" y="840"/>
      <point x="464" y="840" type="curve" smooth="yes"/>
      <point x="350" y="840" type="line"/>
      <point x="292" y="840" type="line"/>
      <point x="194" y="833" type="line" smooth="yes"/>
      <point x="189" y="833"/>
      <point x="181" y="830"/>
      <point x="176" y="827" type="curve" smooth="yes"/>
      <point x="90" y="776" type="line" smooth="yes"/>
      <point x="80" y="771"/>
      <point x="72" y="757"/>
      <point x="70" y="747" type="curve" smooth="yes"/>
      <point x="52" y="605" type="line" smooth="yes"/>
      <point x="52" y="603"/>
      <point x="52" y="599"/>
      <point x="52" y="597" type="curve" smooth="yes"/>
      <point x="59" y="513" type="line" smooth="yes"/>
      <point x="60" y="508"/>
      <point x="62" y="500"/>
      <point x="65" y="496" type="curve" smooth="yes"/>
      <point x="113" y="415" type="line" smooth="yes"/>
      <point x="118" y="408"/>
      <point x="128" y="400"/>
      <point x="137" y="397" type="curve" smooth="yes"/>
      <point x="268" y="361" type="line" smooth="yes"/>
      <point x="271" y="361"/>
      <point x="276" y="360"/>
      <point x="279" y="360" type="curve" smooth="yes"/>
      <point x="446" y="360" type="line"/>
      <point x="603" y="330" type="line"/>
      <point x="615" y="274" type="line"/>
      <point x="635" y="191" type="line" smooth="yes"/>
      <point x="636" y="187"/>
      <point x="638" y="183"/>
      <point x="640" y="179" type="curve"/>
      <point x="618" y="138" type="line"/>
      <point x="568" y="71" type="line"/>
      <point x="449" y="40" type="line"/>
      <point x="257" y="40" type="line"/>
      <point x="203" y="46" type="line"/>
      <point x="160" y="81" type="line"/>
      <point x="129" y="209" type="line" smooth="yes"/>
      <point x="124" y="230"/>
      <point x="102" y="244"/>
      <point x="81" y="239" type="curve" smooth="yes"/>
      <point x="60" y="234"/>
      <point x="46" y="212"/>
      <point x="51" y="191" type="curve" smooth="yes"/>
      <point x="85" y="49" type="line" smooth="yes"/>
      <point x="87" y="42"/>
      <point x="93" y="32"/>
      <point x="99" y="27" type="curve" smooth="yes"/>
      <point x="161" y="-24" type="line" smooth="yes"/>
      <point x="166" y="-28"/>
      <point x="176" y="-32"/>
      <point x="183" y="-33" type="curve" smooth="yes"/>
      <point x="251" y="-40" type="line" smooth="yes"/>
      <point x="252" y="-40"/>
      <point x="254" y="-40"/>
    </contour>
  </outline>
</glyph>
<glyph name="colon" format="1">
  <advance width="195"/>
  <unicode hex="003A"/>
  <outline>
    <contour>
      <point x="141" y="563" type="curve" smooth="yes"/>
      <point x="151" y="582"/>
      <point x="144" y="607"/>
      <point x="126" y="618" type="curve" smooth="yes"/>
      <point x="110" y="627" type="line" smooth="yes"/>
      <point x="91" y="637"/>
      <point x="66" y="630"/>
      <point x="55" y="612" type="curve" smooth="yes"/>
      <point x="45" y="593"/>
      <point x="52" y="568"/>
      <point x="70" y="557" type="curve" smooth="yes"/>
      <point x="86" y="548" type="line" smooth="yes"/>
      <point x="105" y="538"/>
      <point x="130" y="545"/>
    </contour>
    <contour>
      <point x="130" y="-27" type="curve" smooth="yes"/>
      <point x="146" y="-12"/>
      <point x="146" y="14"/>
      <point x="130" y="29" type="curve" smooth="yes"/>
      <point x="126" y="33" type="line" smooth="yes"/>
      <point x="111" y="49"/>
      <point x="85" y="49"/>
      <point x="70" y="33" type="curve" smooth="yes"/>
      <point x="54" y="18"/>
      <point x="54" y="-8"/>
      <point x="70" y="-23" type="curve" smooth="yes"/>
      <point x="74" y="-27" type="line" smooth="yes"/>
      <point x="89" y="-43"/>
      <point x="115" y="-43"/>
    </contour>
  </outline>
</glyph>
<glyph name="semicolon" format="1">
  <advance width="301"/>
  <unicode hex="003B"/>
  <outline>
    <contour>
      <point x="142" y="559" type="curve" smooth="yes"/>
      <point x="155" y="542"/>
      <point x="181" y="538"/>
      <point x="198" y="551" type="curve" smooth="yes"/>
      <point x="210" y="560" type="line" smooth="yes"/>
      <point x="227" y="573"/>
      <point x="231" y="599"/>
      <point x="218" y="616" type="curve" smooth="yes"/>
      <point x="205" y="633"/>
      <point x="179" y="637"/>
      <point x="162" y="624" type="curve" smooth="yes"/>
      <point x="150" y="615" type="line" smooth="yes"/>
      <point x="133" y="602"/>
      <point x="129" y="576"/>
    </contour>
    <contour>
      <point x="90" y="-48" type="curve" smooth="yes"/>
      <point x="166" y="-48" type="line" smooth="yes"/>
      <point x="187" y="-48"/>
      <point x="205" y="-31"/>
      <point x="206" y="-10" type="curve" smooth="yes"/>
      <point x="211" y="83" type="line"/>
      <point x="248" y="177" type="line" smooth="yes"/>
      <point x="256" y="197"/>
      <point x="246" y="221"/>
      <point x="226" y="229" type="curve" smooth="yes"/>
      <point x="206" y="237"/>
      <point x="182" y="227"/>
      <point x="174" y="207" type="curve" smooth="yes"/>
      <point x="134" y="107" type="line" smooth="yes"/>
      <point x="132" y="103"/>
      <point x="131" y="98"/>
      <point x="131" y="94" type="curve" smooth="yes"/>
      <point x="128" y="32" type="line"/>
      <point x="90" y="32" type="line" smooth="yes"/>
      <point x="68" y="32"/>
      <point x="50" y="14"/>
      <point x="50" y="-8" type="curve" smooth="yes"/>
      <point x="50" y="-30"/>
      <point x="68" y="-48"/>
    </contour>
  </outline>
</glyph>
<glyph name="less" format="1">
  <advance width="611"/>
  <unicode hex="003C"/>
  <outline>
    <contour>
      <point x="558" y="87" type="curve" smooth="yes"/>
      <point x="566" y="107"/>
      <point x="557" y="131"/>
      <point x="537" y="140" type="curve" smooth="yes"/>
      <point x="422" y="189" type="line"/>
      <point x="318" y="238" type="line"/>
      <point x="238" y="287" type="line" smooth="yes"/>
      <point x="236" y="288"/>
      <point x="234" y="289"/>
      <point x="232" y="290" type="curve" smooth="yes"/>
      <point x="199" y="303" type="line"/>
      <point x="231" y="316" type="line"/>
      <point x="343" y="366" type="line" smooth="yes"/>
      <point x="345" y="367"/>
      <point x="347" y="368"/>
      <point x="348" y="369" type="curve" smooth="yes"/>
      <point x="429" y="419" type="line"/>
      <point x="512" y="469" type="line" smooth="yes"/>
      <point x="530" y="480"/>
      <point x="536" y="505"/>
      <point x="525" y="524" type="curve" smooth="yes"/>
      <point x="514" y="542"/>
      <point x="489" y="548"/>
      <point x="470" y="537" type="curve" smooth="yes"/>
      <point x="387" y="487" type="line"/>
      <point x="308" y="438" type="line"/>
      <point x="199" y="390" type="line"/>
      <point x="77" y="340" type="line" smooth="yes"/>
      <point x="41" y="325"/>
      <point x="41" y="280"/>
      <point x="77" y="266" type="curve" smooth="yes"/>
      <point x="199" y="217" type="line"/>
      <point x="278" y="169" type="line" smooth="yes"/>
      <point x="279" y="168"/>
      <point x="281" y="167"/>
      <point x="282" y="167" type="curve" smooth="yes"/>
      <point x="388" y="117" type="line"/>
      <point x="505" y="66" type="line" smooth="yes"/>
      <point x="525" y="58"/>
      <point x="549" y="67"/>
    </contour>
  </outline>
</glyph>
<glyph name="equal" format="1">
  <advance width="793"/>
  <unicode hex="003D"/>
  <outline>
    <contour>
      <point x="122" y="398" type="curve" smooth="yes"/>
      <point x="703" y="398" type="line" smooth="yes"/>
      <point x="725" y="398"/>
      <point x="743" y="416"/>
      <point x="743" y="438" type="curve" smooth="yes"/>
      <point x="743" y="460"/>
      <point x="725" y="478"/>
      <point x="703" y="478" type="curve" smooth="yes"/>
      <point x="122" y="478" type="line" smooth="yes"/>
      <point x="100" y="478"/>
      <point x="82" y="460"/>
      <point x="82" y="438" type="curve" smooth="yes"/>
      <point x="82" y="416"/>
      <point x="100" y="398"/>
    </contour>
    <contour>
      <point x="90" y="98" type="curve" smooth="yes"/>
      <point x="696" y="98" type="line" smooth="yes"/>
      <point x="718" y="98"/>
      <point x="736" y="116"/>
      <point x="736" y="138" type="curve" smooth="yes"/>
      <point x="736" y="160"/>
      <point x="718" y="178"/>
      <point x="696" y="178" type="curve" smooth="yes"/>
      <point x="90" y="178" type="line" smooth="yes"/>
      <point x="68" y="178"/>
      <point x="50" y="160"/>
      <point x="50" y="138" type="curve" smooth="yes"/>
      <point x="50" y="116"/>
      <point x="68" y="98"/>
    </contour>
  </outline>
</glyph>
<glyph name="greater" format="1">
  <advance width="604"/>
  <unicode hex="003E"/>
  <outline>
    <contour>
      <point x="124" y="84" type="curve" smooth="yes"/>
      <point x="234" y="135" type="line"/>
      <point x="326" y="184" type="line"/>
      <point x="440" y="233" type="line" smooth="yes"/>
      <point x="441" y="234"/>
      <point x="443" y="235"/>
      <point x="444" y="235" type="curve" smooth="yes"/>
      <point x="532" y="285" type="line" smooth="yes"/>
      <point x="562" y="302"/>
      <point x="561" y="339"/>
      <point x="531" y="355" type="curve" smooth="yes"/>
      <point x="437" y="405" type="line" smooth="yes"/>
      <point x="436" y="406"/>
      <point x="434" y="407"/>
      <point x="433" y="407" type="curve" smooth="yes"/>
      <point x="309" y="456" type="line"/>
      <point x="214" y="506" type="line"/>
      <point x="107" y="556" type="line" smooth="yes"/>
      <point x="87" y="565"/>
      <point x="63" y="557"/>
      <point x="54" y="537" type="curve" smooth="yes"/>
      <point x="45" y="517"/>
      <point x="53" y="493"/>
      <point x="73" y="484" type="curve" smooth="yes"/>
      <point x="180" y="434" type="line"/>
      <point x="273" y="385" type="line" smooth="yes"/>
      <point x="274" y="384"/>
      <point x="276" y="383"/>
      <point x="277" y="383" type="curve" smooth="yes"/>
      <point x="401" y="334" type="line"/>
      <point x="429" y="319" type="line"/>
      <point x="406" y="306" type="line"/>
      <point x="293" y="257" type="line" smooth="yes"/>
      <point x="292" y="256"/>
      <point x="291" y="256"/>
      <point x="290" y="255" type="curve" smooth="yes"/>
      <point x="196" y="205" type="line"/>
      <point x="90" y="156" type="line" smooth="yes"/>
      <point x="71" y="147"/>
      <point x="62" y="123"/>
      <point x="71" y="103" type="curve" smooth="yes"/>
      <point x="80" y="84"/>
      <point x="104" y="75"/>
    </contour>
  </outline>
</glyph>
<glyph name="question" format="1">
  <advance width="683"/>
  <unicode hex="003F"/>
  <outline>
    <contour>
      <point x="305" y="163" type="curve" smooth="yes"/>
      <point x="325" y="171"/>
      <point x="335" y="195"/>
      <point x="327" y="215" type="curve" smooth="yes"/>
      <point x="289" y="307" type="line"/>
      <point x="290" y="359" type="line"/>
      <point x="392" y="359" type="line" smooth="yes"/>
      <point x="394" y="359"/>
      <point x="396" y="359"/>
      <point x="398" y="359" type="curve" smooth="yes"/>
      <point x="448" y="367" type="line" smooth="yes"/>
      <point x="452" y="367"/>
      <point x="457" y="369"/>
      <point x="460" y="370" type="curve" smooth="yes"/>
      <point x="566" y="422" type="line" smooth="yes"/>
      <point x="574" y="426"/>
      <point x="583" y="437"/>
      <point x="586" y="446" type="curve" smooth="yes"/>
      <point x="631" y="588" type="line" smooth="yes"/>
      <point x="633" y="593"/>
      <point x="633" y="603"/>
      <point x="632" y="608" type="curve" smooth="yes"/>
      <point x="615" y="692" type="line" smooth="yes"/>
      <point x="614" y="697"/>
      <point x="610" y="705"/>
      <point x="606" y="709" type="curve" smooth="yes"/>
      <point x="540" y="789" type="line" smooth="yes"/>
      <point x="535" y="795"/>
      <point x="525" y="801"/>
      <point x="518" y="803" type="curve" smooth="yes"/>
      <point x="356" y="839" type="line" smooth="yes"/>
      <point x="353" y="840"/>
      <point x="349" y="840"/>
      <point x="347" y="840" type="curve" smooth="yes"/>
      <point x="293" y="840" type="line"/>
      <point x="206" y="833" type="line" smooth="yes"/>
      <point x="201" y="832"/>
      <point x="193" y="830"/>
      <point x="188" y="827" type="curve" smooth="yes"/>
      <point x="106" y="775" type="line" smooth="yes"/>
      <point x="99" y="771"/>
      <point x="91" y="760"/>
      <point x="89" y="751" type="curve" smooth="yes"/>
      <point x="51" y="609" type="line" smooth="yes"/>
      <point x="46" y="588"/>
      <point x="59" y="566"/>
      <point x="80" y="560" type="curve" smooth="yes"/>
      <point x="101" y="555"/>
      <point x="123" y="568"/>
      <point x="129" y="589" type="curve" smooth="yes"/>
      <point x="162" y="716" type="line"/>
      <point x="223" y="754" type="line"/>
      <point x="293" y="760" type="line"/>
      <point x="343" y="760" type="line"/>
      <point x="487" y="728" type="line"/>
      <point x="538" y="666" type="line"/>
      <point x="552" y="602" type="line"/>
      <point x="515" y="486" type="line"/>
      <point x="430" y="445" type="line"/>
      <point x="389" y="439" type="line"/>
      <point x="251" y="439" type="line" smooth="yes"/>
      <point x="229" y="439"/>
      <point x="211" y="421"/>
      <point x="211" y="400" type="curve" smooth="yes"/>
      <point x="209" y="300" type="line" smooth="yes"/>
      <point x="209" y="296"/>
      <point x="210" y="289"/>
      <point x="212" y="284" type="curve" smooth="yes"/>
      <point x="253" y="185" type="line" smooth="yes"/>
      <point x="261" y="165"/>
      <point x="285" y="155"/>
    </contour>
    <contour>
      <point x="249" y="-40" type="curve" smooth="yes"/>
      <point x="271" y="-42"/>
      <point x="291" y="-25"/>
      <point x="293" y="-4" type="curve" smooth="yes"/>
      <point x="294" y="7" type="line" smooth="yes"/>
      <point x="296" y="29"/>
      <point x="279" y="49"/>
      <point x="258" y="51" type="curve" smooth="yes"/>
      <point x="236" y="53"/>
      <point x="216" y="36"/>
      <point x="214" y="15" type="curve" smooth="yes"/>
      <point x="213" y="4" type="line" smooth="yes"/>
      <point x="211" y="-18"/>
      <point x="228" y="-38"/>
    </contour>
  </outline>
</glyph>
<glyph name="at" format="1">
  <advance width="792"/>
  <unicode hex="0040"/>
  <outline>
    <contour>
      <point x="301" y="-82" type="curve" smooth="yes"/>
      <point x="495" y="-82" type="line" smooth="yes"/>
      <point x="517" y="-82"/>
      <point x="535" y="-64"/>
      <point x="535" y="-42" type="curve" smooth="yes"/>
      <point x="535" y="-20"/>
      <point x="517" y="-2"/>
      <point x="495" y="-2" type="curve" smooth="yes"/>
      <point x="306" y="-2" type="line"/>
      <point x="181" y="29" type="line"/>
      <point x="147" y="80" type="line"/>
      <point x="171" y="144" type="line" smooth="yes"/>
      <point x="173" y="152"/>
      <point x="173" y="165"/>
      <point x="170" y="173" type="curve" smooth="yes"/>
      <point x="134" y="263" type="line"/>
      <point x="150" y="353" type="line" smooth="yes"/>
      <point x="151" y="357"/>
      <point x="151" y="362"/>
      <point x="151" y="366" type="curve" smooth="yes"/>
      <point x="137" y="460" type="line"/>
      <point x="156" y="554" type="line" smooth="yes"/>
      <point x="157" y="560"/>
      <point x="157" y="569"/>
      <point x="155" y="575" type="curve" smooth="yes"/>
      <point x="137" y="630" type="line"/>
      <point x="207" y="686" type="line"/>
      <point x="323" y="718" type="line"/>
      <point x="487" y="718" type="line"/>
      <point x="607" y="686" type="line"/>
      <point x="660" y="628" type="line"/>
      <point x="652" y="563" type="line" smooth="yes"/>
      <point x="652" y="561"/>
      <point x="652" y="558"/>
      <point x="652" y="556" type="curve" smooth="yes"/>
      <point x="662" y="365" type="line"/>
      <point x="619" y="243" type="line"/>
      <point x="557" y="204" type="line"/>
      <point x="541" y="203" type="line"/>
      <point x="543" y="251" type="line"/>
      <point x="572" y="346" type="line" smooth="yes"/>
      <point x="575" y="354"/>
      <point x="574" y="367"/>
      <point x="570" y="375" type="curve" smooth="yes"/>
      <point x="531" y="460" type="line"/>
      <point x="560" y="545" type="line" smooth="yes"/>
      <point x="567" y="566"/>
      <point x="555" y="589"/>
      <point x="535" y="596" type="curve" smooth="yes"/>
      <point x="526" y="599"/>
      <point x="517" y="598"/>
      <point x="509" y="596" type="curve"/>
      <point x="503" y="598"/>
      <point x="497" y="598"/>
      <point x="491" y="598" type="curve" smooth="yes"/>
      <point x="435" y="591" type="line" smooth="yes"/>
      <point x="431" y="590"/>
      <point x="426" y="589"/>
      <point x="423" y="588" type="curve" smooth="yes"/>
      <point x="308" y="536" type="line" smooth="yes"/>
      <point x="295" y="530"/>
      <point x="284" y="514"/>
      <point x="284" y="500" type="curve" smooth="yes"/>
      <point x="282" y="359" type="line"/>
      <point x="281" y="307" type="line" smooth="yes"/>
      <point x="281" y="300"/>
      <point x="284" y="291"/>
      <point x="287" y="285" type="curve" smooth="yes"/>
      <point x="346" y="189" type="line" smooth="yes"/>
      <point x="350" y="183"/>
      <point x="358" y="176"/>
      <point x="364" y="173" type="curve" smooth="yes"/>
      <point x="477" y="122" type="line" smooth="yes"/>
      <point x="483" y="119"/>
      <point x="491" y="118"/>
      <point x="497" y="118" type="curve"/>
      <point x="499" y="118" type="line" smooth="yes"/>
      <point x="502" y="118"/>
      <point x="506" y="118"/>
      <point x="510" y="119" type="curve"/>
      <point x="574" y="125" type="line" smooth="yes"/>
      <point x="579" y="126"/>
      <point x="587" y="129"/>
      <point x="592" y="131" type="curve" smooth="yes"/>
      <point x="673" y="183" type="line" smooth="yes"/>
      <point x="680" y="187"/>
      <point x="687" y="197"/>
      <point x="690" y="204" type="curve" smooth="yes"/>
      <point x="740" y="346" type="line" smooth="yes"/>
      <point x="741" y="350"/>
      <point x="742" y="357"/>
      <point x="742" y="361" type="curve" smooth="yes"/>
      <point x="732" y="557" type="line"/>
      <point x="741" y="637" type="line" smooth="yes"/>
      <point x="742" y="647"/>
      <point x="738" y="661"/>
      <point x="731" y="668" type="curve" smooth="yes"/>
      <point x="659" y="749" type="line" smooth="yes"/>
      <point x="654" y="754"/>
      <point x="646" y="759"/>
      <point x="639" y="761" type="curve" smooth="yes"/>
      <point x="502" y="797" type="line" smooth="yes"/>
      <point x="499" y="797"/>
      <point x="495" y="798"/>
      <point x="492" y="798" type="curve" smooth="yes"/>
      <point x="318" y="798" type="line" smooth="yes"/>
      <point x="315" y="798"/>
      <point x="310" y="797"/>
      <point x="307" y="797" type="curve" smooth="yes"/>
      <point x="178" y="761" type="line" smooth="yes"/>
      <point x="173" y="760"/>
      <point x="167" y="757"/>
      <point x="163" y="754" type="curve" smooth="yes"/>
      <point x="65" y="675" type="line" smooth="yes"/>
      <point x="53" y="665"/>
      <point x="47" y="645"/>
      <point x="52" y="631" type="curve" smooth="yes"/>
      <point x="76" y="560" type="line"/>
      <point x="57" y="469" type="line" smooth="yes"/>
      <point x="56" y="465"/>
      <point x="56" y="459"/>
      <point x="56" y="455" type="curve" smooth="yes"/>
      <point x="70" y="361" type="line"/>
      <point x="54" y="266" type="line" smooth="yes"/>
      <point x="53" y="260"/>
      <point x="54" y="250"/>
      <point x="56" y="244" type="curve" smooth="yes"/>
      <point x="90" y="157" type="line"/>
      <point x="65" y="88" type="line" smooth="yes"/>
      <point x="61" y="78"/>
      <point x="63" y="62"/>
      <point x="69" y="52" type="curve" smooth="yes"/>
      <point x="124" y="-28" type="line" smooth="yes"/>
      <point x="128" y="-35"/>
      <point x="139" y="-43"/>
      <point x="147" y="-45" type="curve" smooth="yes"/>
      <point x="291" y="-81" type="line" smooth="yes"/>
      <point x="294" y="-81"/>
      <point x="298" y="-82"/>
    </contour>
    <contour>
      <point x="362" y="357" type="line"/>
      <point x="364" y="473" type="line"/>
      <point x="450" y="512" type="line"/>
      <point x="465" y="514" type="line"/>
      <point x="450" y="471" type="line" smooth="yes"/>
      <point x="447" y="463"/>
      <point x="448" y="449"/>
      <point x="452" y="441" type="curve" smooth="yes"/>
      <point x="491" y="355" type="line"/>
      <point x="465" y="270" type="line" smooth="yes"/>
      <point x="464" y="267"/>
      <point x="463" y="262"/>
      <point x="463" y="259" type="curve" smooth="yes"/>
      <point x="462" y="217" type="line"/>
      <point x="408" y="241" type="line"/>
      <point x="361" y="317" type="line"/>
    </contour>
  </outline>
</glyph>
<glyph name="A" format="1">
  <advance width="810"/>
  <unicode hex="0041"/>
  <outline>
    <contour>
      <point x="719" y="-30" type="curve" smooth="yes"/>
      <point x="748" y="4" type="line" smooth="yes"/>
      <point x="756" y="13"/>
      <point x="760" y="29"/>
      <point x="757" y="41" type="curve" smooth="yes"/>
      <point x="734" y="122" type="line"/>
      <point x="741" y="238" type="line"/>
      <point x="747" y="372" type="line" smooth="yes"/>
      <point x="747" y="374"/>
      <point x="747" y="379"/>
      <point x="746" y="381" type="curve" smooth="yes"/>
      <point x="725" y="499" type="line"/>
      <point x="744" y="589" type="line"/>
      <point x="760" y="672" type="line" smooth="yes"/>
      <point x="762" y="684"/>
      <point x="757" y="700"/>
      <point x="748" y="708" type="curve" smooth="yes"/>
      <point x="660" y="789" type="line" smooth="yes"/>
      <point x="656" y="793"/>
      <point x="648" y="797"/>
      <point x="643" y="798" type="curve" smooth="yes"/>
      <point x="502" y="835" type="line" smooth="yes"/>
      <point x="499" y="835"/>
      <point x="495" y="836"/>
      <point x="492" y="836" type="curve" smooth="yes"/>
      <point x="310" y="836" type="line" smooth="yes"/>
      <point x="308" y="836"/>
      <point x="304" y="836"/>
      <point x="301" y="835" type="curve" smooth="yes"/>
      <point x="142" y="800" type="line" smooth="yes"/>
      <point x="134" y="798"/>
      <point x="123" y="790"/>
      <point x="118" y="783" type="curve" smooth="yes"/>
      <point x="64" y="704" type="line" smooth="yes"/>
      <point x="59" y="697"/>
      <point x="56" y="683"/>
      <point x="57" y="675" type="curve" smooth="yes"/>
      <point x="70" y="599" type="line"/>
      <point x="56" y="505" type="line" smooth="yes"/>
      <point x="56" y="500"/>
      <point x="56" y="493"/>
      <point x="58" y="488" type="curve" smooth="yes"/>
      <point x="83" y="400" type="line"/>
      <point x="52" y="311" type="line" smooth="yes"/>
      <point x="51" y="308"/>
      <point x="50" y="302"/>
      <point x="50" y="298" type="curve" smooth="yes"/>
      <point x="50" y="197" type="line" smooth="yes"/>
      <point x="50" y="195"/>
      <point x="50" y="191"/>
      <point x="51" y="188" type="curve" smooth="yes"/>
      <point x="70" y="110" type="line"/>
      <point x="62" y="84" type="line" smooth="yes"/>
      <point x="48" y="37"/>
      <point x="111" y="10"/>
      <point x="135" y="53" type="curve" smooth="yes"/>
      <point x="149" y="77" type="line" smooth="yes"/>
      <point x="153" y="84"/>
      <point x="155" y="97"/>
      <point x="153" y="106" type="curve" smooth="yes"/>
      <point x="152" y="108" type="line"/>
      <point x="161" y="139" type="line" smooth="yes"/>
      <point x="162" y="141"/>
      <point x="163" y="144"/>
      <point x="163" y="146" type="curve" smooth="yes"/>
      <point x="171" y="222" type="line"/>
      <point x="191" y="276" type="line"/>
      <point x="321" y="306" type="line"/>
      <point x="664" y="306" type="line"/>
      <point x="661" y="242" type="line"/>
      <point x="654" y="121" type="line" smooth="yes"/>
      <point x="654" y="117"/>
      <point x="654" y="111"/>
      <point x="655" y="108" type="curve" smooth="yes"/>
      <point x="674" y="40" type="line"/>
      <point x="659" y="22" type="line" smooth="yes"/>
      <point x="645" y="6"/>
      <point x="647" y="-20"/>
      <point x="663" y="-34" type="curve" smooth="yes"/>
      <point x="679" y="-48"/>
      <point x="705" y="-46"/>
    </contour>
    <contour>
      <point x="152" y="350" type="line" smooth="yes"/>
      <point x="150" y="349" type="line"/>
      <point x="163" y="386" type="line" smooth="yes"/>
      <point x="165" y="392"/>
      <point x="165" y="403"/>
      <point x="163" y="410" type="curve" smooth="yes"/>
      <point x="137" y="502" type="line"/>
      <point x="151" y="594" type="line" smooth="yes"/>
      <point x="151" y="598"/>
      <point x="151" y="603"/>
      <point x="150" y="607" type="curve" smooth="yes"/>
      <point x="139" y="672" type="line"/>
      <point x="175" y="725" type="line"/>
      <point x="314" y="756" type="line"/>
      <point x="487" y="756" type="line"/>
      <point x="613" y="723" type="line"/>
      <point x="677" y="665" type="line"/>
      <point x="666" y="603" type="line"/>
      <point x="645" y="508" type="line" smooth="yes"/>
      <point x="644" y="504"/>
      <point x="644" y="497"/>
      <point x="645" y="492" type="curve" smooth="yes"/>
      <point x="664" y="386" type="line"/>
      <point x="317" y="386" type="line" smooth="yes"/>
      <point x="315" y="386"/>
      <point x="311" y="386"/>
      <point x="308" y="385" type="curve" smooth="yes"/>
    </contour>
  </outline>
</glyph>
<glyph name="B" format="1">
  <advance width="819"/>
  <unicode hex="0042"/>
  <outline>
    <contour>
      <point x="321" y="-36" type="curve" smooth="yes"/>
      <point x="491" y="-36" type="line"/>
      <point x="616" y="-29" type="line" smooth="yes"/>
      <point x="622" y="-29"/>
      <point x="631" y="-26"/>
      <point x="636" y="-22" type="curve" smooth="yes"/>
      <point x="713" y="29" type="line" smooth="yes"/>
      <point x="720" y="34"/>
      <point x="727" y="44"/>
      <point x="730" y="52" type="curve" smooth="yes"/>
      <point x="768" y="194" type="line" smooth="yes"/>
      <point x="769" y="200"/>
      <point x="769" y="210"/>
      <point x="767" y="217" type="curve" smooth="yes"/>
      <point x="739" y="300" type="line"/>
      <point x="706" y="383" type="line" smooth="yes"/>
      <point x="702" y="393"/>
      <point x="689" y="404"/>
      <point x="678" y="407" type="curve" smooth="yes"/>
      <point x="673" y="408" type="line"/>
      <point x="709" y="429" type="line" smooth="yes"/>
      <point x="720" y="436"/>
      <point x="729" y="450"/>
      <point x="729" y="463" type="curve" smooth="yes"/>
      <point x="733" y="605" type="line"/>
      <point x="740" y="685" type="line" smooth="yes"/>
      <point x="741" y="693"/>
      <point x="738" y="706"/>
      <point x="733" y="712" type="curve" smooth="yes"/>
      <point x="676" y="792" type="line" smooth="yes"/>
      <point x="671" y="798"/>
      <point x="661" y="805"/>
      <point x="653" y="807" type="curve" smooth="yes"/>
      <point x="514" y="843" type="line" smooth="yes"/>
      <point x="511" y="843"/>
      <point x="507" y="844"/>
      <point x="504" y="844" type="curve" smooth="yes"/>
      <point x="316" y="844" type="line" smooth="yes"/>
      <point x="313" y="844"/>
      <point x="309" y="843"/>
      <point x="306" y="843" type="curve" smooth="yes"/>
      <point x="166" y="808" type="line" smooth="yes"/>
      <point x="157" y="805"/>
      <point x="146" y="797"/>
      <point x="141" y="789" type="curve" smooth="yes"/>
      <point x="94" y="710" type="line" smooth="yes"/>
      <point x="90" y="705"/>
      <point x="88" y="694"/>
      <point x="88" y="687" type="curve" smooth="yes"/>
      <point x="94" y="610" type="line"/>
      <point x="78" y="513" type="line" smooth="yes"/>
      <point x="77" y="511"/>
      <point x="77" y="507"/>
      <point x="77" y="505" type="curve" smooth="yes"/>
      <point x="79" y="442" type="line"/>
      <point x="62" y="437"/>
      <point x="50" y="422"/>
      <point x="50" y="404" type="curve" smooth="yes"/>
      <point x="50" y="388"/>
      <point x="60" y="373"/>
      <point x="75" y="367" type="curve"/>
      <point x="67" y="309" type="line" smooth="yes"/>
      <point x="67" y="307"/>
      <point x="67" y="304"/>
      <point x="67" y="303" type="curve" smooth="yes"/>
      <point x="69" y="201" type="line" smooth="yes"/>
      <point x="69" y="198"/>
      <point x="70" y="192"/>
      <point x="71" y="189" type="curve" smooth="yes"/>
      <point x="120" y="47" type="line" smooth="yes"/>
      <point x="122" y="42"/>
      <point x="128" y="34"/>
      <point x="133" y="30" type="curve" smooth="yes"/>
      <point x="192" y="-20" type="line" smooth="yes"/>
      <point x="198" y="-25"/>
      <point x="208" y="-29"/>
      <point x="216" y="-30" type="curve" smooth="yes"/>
      <point x="319" y="-36" type="line" smooth="yes"/>
      <point x="319" y="-36"/>
      <point x="320" y="-36"/>
    </contour>
    <contour>
      <point x="173" y="601" type="line" smooth="yes"/>
      <point x="174" y="604"/>
      <point x="174" y="608"/>
      <point x="174" y="611" type="curve" smooth="yes"/>
      <point x="169" y="680" type="line"/>
      <point x="201" y="734" type="line"/>
      <point x="321" y="764" type="line"/>
      <point x="499" y="764" type="line"/>
      <point x="619" y="733" type="line"/>
      <point x="659" y="678" type="line"/>
      <point x="653" y="607" type="line"/>
      <point x="650" y="487" type="line"/>
      <point x="587" y="451" type="line"/>
      <point x="509" y="444" type="line"/>
      <point x="159" y="444" type="line"/>
      <point x="157" y="504" type="line"/>
    </contour>
    <contour>
      <point x="491" y="44" type="line"/>
      <point x="322" y="44" type="line"/>
      <point x="234" y="49" type="line"/>
      <point x="192" y="84" type="line"/>
      <point x="149" y="209" type="line"/>
      <point x="147" y="301" type="line"/>
      <point x="155" y="364" type="line"/>
      <point x="521" y="364" type="line"/>
      <point x="639" y="334" type="line"/>
      <point x="663" y="275" type="line"/>
      <point x="687" y="203" type="line"/>
      <point x="656" y="87" type="line"/>
      <point x="600" y="50" type="line"/>
    </contour>
  </outline>
</glyph>
<glyph name="C" format="1">
  <advance width="822"/>
  <unicode hex="0043"/>
  <outline>
    <contour>
      <point x="306" y="-42" type="curve" smooth="yes"/>
      <point x="511" y="-42" type="line" smooth="yes"/>
      <point x="512" y="-42"/>
      <point x="514" y="-42"/>
      <point x="516" y="-42" type="curve" smooth="yes"/>
      <point x="575" y="-35" type="line" smooth="yes"/>
      <point x="579" y="-34"/>
      <point x="585" y="-32"/>
      <point x="589" y="-31" type="curve" smooth="yes"/>
      <point x="688" y="21" type="line" smooth="yes"/>
      <point x="695" y="24"/>
      <point x="703" y="33"/>
      <point x="707" y="40" type="curve" smooth="yes"/>
      <point x="769" y="182" type="line" smooth="yes"/>
      <point x="777" y="202"/>
      <point x="768" y="226"/>
      <point x="748" y="235" type="curve" smooth="yes"/>
      <point x="728" y="243"/>
      <point x="704" y="234"/>
      <point x="695" y="214" type="curve" smooth="yes"/>
      <point x="639" y="85" type="line"/>
      <point x="559" y="44" type="line"/>
      <point x="509" y="38" type="line"/>
      <point x="307" y="38" type="line"/>
      <point x="218" y="43" type="line"/>
      <point x="166" y="79" type="line"/>
      <point x="131" y="198" type="line"/>
      <point x="148" y="290" type="line" smooth="yes"/>
      <point x="149" y="291"/>
      <point x="149" y="293"/>
      <point x="149" y="295" type="curve" smooth="yes"/>
      <point x="156" y="396" type="line" smooth="yes"/>
      <point x="156" y="397"/>
      <point x="156" y="399"/>
      <point x="156" y="400" type="curve" smooth="yes"/>
      <point x="153" y="500" type="line"/>
      <point x="160" y="597" type="line"/>
      <point x="175" y="672" type="line"/>
      <point x="200" y="729" type="line"/>
      <point x="306" y="758" type="line"/>
      <point x="499" y="758" type="line"/>
      <point x="611" y="727" type="line"/>
      <point x="653" y="662" type="line"/>
      <point x="690" y="582" type="line" smooth="yes"/>
      <point x="698" y="562"/>
      <point x="723" y="553"/>
      <point x="742" y="562" type="curve" smooth="yes"/>
      <point x="762" y="570"/>
      <point x="771" y="595"/>
      <point x="762" y="614" type="curve" smooth="yes"/>
      <point x="725" y="698" type="line" smooth="yes"/>
      <point x="724" y="699"/>
      <point x="723" y="702"/>
      <point x="722" y="703" type="curve" smooth="yes"/>
      <point x="670" y="784" type="line" smooth="yes"/>
      <point x="665" y="791"/>
      <point x="655" y="798"/>
      <point x="647" y="801" type="curve" smooth="yes"/>
      <point x="515" y="837" type="line" smooth="yes"/>
      <point x="512" y="837"/>
      <point x="507" y="838"/>
      <point x="504" y="838" type="curve" smooth="yes"/>
      <point x="301" y="838" type="line" smooth="yes"/>
      <point x="298" y="838"/>
      <point x="293" y="837"/>
      <point x="290" y="837" type="curve" smooth="yes"/>
      <point x="161" y="801" type="line" smooth="yes"/>
      <point x="151" y="799"/>
      <point x="139" y="789"/>
      <point x="135" y="779" type="curve" smooth="yes"/>
      <point x="100" y="700" type="line" smooth="yes"/>
      <point x="99" y="698"/>
      <point x="97" y="694"/>
      <point x="97" y="692" type="curve" smooth="yes"/>
      <point x="81" y="610" type="line" smooth="yes"/>
      <point x="80" y="608"/>
      <point x="80" y="606"/>
      <point x="80" y="605" type="curve" smooth="yes"/>
      <point x="73" y="503" type="line" smooth="yes"/>
      <point x="73" y="502"/>
      <point x="73" y="500"/>
      <point x="73" y="499" type="curve" smooth="yes"/>
      <point x="76" y="400" type="line"/>
      <point x="69" y="303" type="line"/>
      <point x="51" y="203" type="line" smooth="yes"/>
      <point x="50" y="198"/>
      <point x="50" y="190"/>
      <point x="52" y="185" type="curve" smooth="yes"/>
      <point x="93" y="43" type="line" smooth="yes"/>
      <point x="95" y="36"/>
      <point x="102" y="26"/>
      <point x="109" y="21" type="curve" smooth="yes"/>
      <point x="183" y="-29" type="line" smooth="yes"/>
      <point x="188" y="-32"/>
      <point x="197" y="-35"/>
      <point x="203" y="-36" type="curve" smooth="yes"/>
      <point x="304" y="-42" type="line" smooth="yes"/>
      <point x="304" y="-42"/>
      <point x="305" y="-42"/>
    </contour>
  </outline>
</glyph>
<glyph name="D" format="1">
  <advance width="818"/>
  <unicode hex="0044"/>
  <outline>
    <contour>
      <point x="98" y="-41" type="curve" smooth="yes"/>
      <point x="526" y="-41" type="line" smooth="yes"/>
      <point x="527" y="-41"/>
      <point x="529" y="-41"/>
      <point x="531" y="-41" type="curve" smooth="yes"/>
      <point x="591" y="-34" type="line" smooth="yes"/>
      <point x="594" y="-33"/>
      <point x="600" y="-32"/>
      <point x="603" y="-30" type="curve" smooth="yes"/>
      <point x="715" y="21" type="line" smooth="yes"/>
      <point x="726" y="26"/>
      <point x="736" y="40"/>
      <point x="738" y="53" type="curve" smooth="yes"/>
      <point x="755" y="194" type="line" smooth="yes"/>
      <point x="755" y="196"/>
      <point x="755" y="198"/>
      <point x="755" y="199" type="curve" smooth="yes"/>
      <point x="754" y="299" type="line"/>
      <point x="760" y="397" type="line"/>
      <point x="768" y="496" type="line" smooth="yes"/>
      <point x="770" y="517"/>
      <point x="753" y="537"/>
      <point x="731" y="539" type="curve" smooth="yes"/>
      <point x="710" y="541"/>
      <point x="690" y="524"/>
      <point x="688" y="502" type="curve" smooth="yes"/>
      <point x="680" y="401" type="line"/>
      <point x="674" y="299" type="line"/>
      <point x="675" y="201" type="line"/>
      <point x="661" y="84" type="line"/>
      <point x="575" y="45" type="line"/>
      <point x="524" y="39" type="line"/>
      <point x="151" y="39" type="line"/>
      <point x="165" y="88" type="line" smooth="yes"/>
      <point x="166" y="93"/>
      <point x="166" y="101"/>
      <point x="165" y="106" type="curve" smooth="yes"/>
      <point x="148" y="204" type="line"/>
      <point x="142" y="300" type="line"/>
      <point x="144" y="397" type="line"/>
      <point x="148" y="499" type="line"/>
      <point x="147" y="594" type="line"/>
      <point x="174" y="688" type="line" smooth="yes"/>
      <point x="177" y="696"/>
      <point x="176" y="708"/>
      <point x="172" y="716" type="curve" smooth="yes"/>
      <point x="152" y="759" type="line"/>
      <point x="521" y="759" type="line"/>
      <point x="617" y="728" type="line"/>
      <point x="671" y="664" type="line"/>
      <point x="689" y="589" type="line" smooth="yes"/>
      <point x="694" y="568"/>
      <point x="717" y="555"/>
      <point x="738" y="560" type="curve" smooth="yes"/>
      <point x="759" y="565"/>
      <point x="772" y="588"/>
      <point x="767" y="609" type="curve" smooth="yes"/>
      <point x="746" y="692" type="line" smooth="yes"/>
      <point x="745" y="697"/>
      <point x="741" y="704"/>
      <point x="738" y="708" type="curve" smooth="yes"/>
      <point x="671" y="789" type="line" smooth="yes"/>
      <point x="667" y="794"/>
      <point x="658" y="799"/>
      <point x="652" y="801" type="curve" smooth="yes"/>
      <point x="539" y="837" type="line" smooth="yes"/>
      <point x="536" y="838"/>
      <point x="530" y="839"/>
      <point x="527" y="839" type="curve" smooth="yes"/>
      <point x="90" y="839" type="line" smooth="yes"/>
      <point x="59" y="839"/>
      <point x="41" y="811"/>
      <point x="54" y="782" type="curve" smooth="yes"/>
      <point x="93" y="696" type="line"/>
      <point x="69" y="610" type="line" smooth="yes"/>
      <point x="68" y="607"/>
      <point x="67" y="602"/>
      <point x="67" y="599" type="curve" smooth="yes"/>
      <point x="68" y="499" type="line"/>
      <point x="64" y="401" type="line"/>
      <point x="62" y="300" type="line" smooth="yes"/>
      <point x="62" y="299"/>
      <point x="62" y="297"/>
      <point x="62" y="297" type="curve" smooth="yes"/>
      <point x="68" y="197" type="line" smooth="yes"/>
      <point x="68" y="195"/>
      <point x="68" y="193"/>
      <point x="69" y="192" type="curve" smooth="yes"/>
      <point x="85" y="101" type="line"/>
      <point x="59" y="10" type="line" smooth="yes"/>
      <point x="52" y="-17"/>
      <point x="70" y="-41"/>
    </contour>
  </outline>
</glyph>
<glyph name="E" format="1">
  <advance width="812"/>
  <unicode hex="0045"/>
  <outline>
    <contour>
      <point x="523" y="-40" type="line" smooth="yes"/>
      <point x="535" y="-40"/>
      <point x="545" y="-35"/>
      <point x="553" y="-26" type="curve"/>
      <point x="661" y="-4" type="line" smooth="yes"/>
      <point x="670" y="-2"/>
      <point x="682" y="6"/>
      <point x="687" y="14" type="curve" smooth="yes"/>
      <point x="735" y="93" type="line" smooth="yes"/>
      <point x="737" y="96"/>
      <point x="739" y="101"/>
      <point x="740" y="104" type="curve" smooth="yes"/>
      <point x="760" y="186" type="line" smooth="yes"/>
      <point x="765" y="207"/>
      <point x="752" y="230"/>
      <point x="731" y="235" type="curve" smooth="yes"/>
      <point x="710" y="240"/>
      <point x="687" y="227"/>
      <point x="682" y="206" type="curve" smooth="yes"/>
      <point x="663" y="130" type="line"/>
      <point x="627" y="71" type="line"/>
      <point x="478" y="40" type="line"/>
      <point x="302" y="40" type="line"/>
      <point x="234" y="45" type="line"/>
      <point x="181" y="81" type="line"/>
      <point x="153" y="200" type="line"/>
      <point x="166" y="303" type="line"/>
      <point x="223" y="344" type="line"/>
      <point x="282" y="357" type="line"/>
      <point x="387" y="359" type="line" smooth="yes"/>
      <point x="435" y="360"/>
      <point x="443" y="424"/>
      <point x="397" y="437" type="curve" smooth="yes"/>
      <point x="390" y="439" type="line" smooth="yes"/>
      <point x="387" y="440"/>
      <point x="382" y="441"/>
      <point x="379" y="441" type="curve" smooth="yes"/>
      <point x="250" y="442" type="line"/>
      <point x="205" y="453" type="line"/>
      <point x="159" y="491" type="line"/>
      <point x="160" y="598" type="line" smooth="yes"/>
      <point x="160" y="602"/>
      <point x="159" y="608"/>
      <point x="158" y="612" type="curve" smooth="yes"/>
      <point x="133" y="678" type="line"/>
      <point x="162" y="729" type="line"/>
      <point x="279" y="760" type="line"/>
      <point x="475" y="760" type="line"/>
      <point x="562" y="755" type="line"/>
      <point x="621" y="718" type="line"/>
      <point x="655" y="591" type="line" smooth="yes"/>
      <point x="661" y="571"/>
      <point x="684" y="558"/>
      <point x="705" y="563" type="curve" smooth="yes"/>
      <point x="725" y="569"/>
      <point x="738" y="592"/>
      <point x="733" y="613" type="curve" smooth="yes"/>
      <point x="694" y="754" type="line" smooth="yes"/>
      <point x="691" y="762"/>
      <point x="684" y="773"/>
      <point x="676" y="778" type="curve" smooth="yes"/>
      <point x="596" y="828" type="line" smooth="yes"/>
      <point x="591" y="831"/>
      <point x="583" y="833"/>
      <point x="577" y="834" type="curve" smooth="yes"/>
      <point x="481" y="840" type="line"/>
      <point x="380" y="840" type="line"/>
      <point x="274" y="840" type="line" smooth="yes"/>
      <point x="271" y="840"/>
      <point x="267" y="839"/>
      <point x="264" y="839" type="curve" smooth="yes"/>
      <point x="125" y="802" type="line" smooth="yes"/>
      <point x="116" y="799"/>
      <point x="105" y="791"/>
      <point x="101" y="783" type="curve" smooth="yes"/>
      <point x="54" y="701" type="line" smooth="yes"/>
      <point x="49" y="692"/>
      <point x="48" y="677"/>
      <point x="52" y="668" type="curve" smooth="yes"/>
      <point x="80" y="591" type="line"/>
      <point x="79" y="472" type="line" smooth="yes"/>
      <point x="78" y="462"/>
      <point x="85" y="448"/>
      <point x="93" y="441" type="curve" smooth="yes"/>
      <point x="153" y="392" type="line"/>
      <point x="105" y="357" type="line" smooth="yes"/>
      <point x="97" y="351"/>
      <point x="90" y="339"/>
      <point x="89" y="330" type="curve" smooth="yes"/>
      <point x="72" y="203" type="line" smooth="yes"/>
      <point x="72" y="199"/>
      <point x="72" y="193"/>
      <point x="73" y="189" type="curve" smooth="yes"/>
      <point x="107" y="47" type="line" smooth="yes"/>
      <point x="109" y="39"/>
      <point x="116" y="28"/>
      <point x="124" y="23" type="curve" smooth="yes"/>
      <point x="197" y="-27" type="line" smooth="yes"/>
      <point x="202" y="-30"/>
      <point x="211" y="-33"/>
      <point x="217" y="-34" type="curve" smooth="yes"/>
      <point x="297" y="-40" type="line" smooth="yes"/>
      <point x="298" y="-40"/>
      <point x="299" y="-40"/>
      <point x="300" y="-40" type="curve" smooth="yes"/>
    </contour>
  </outline>
</glyph>
<glyph name="F" format="1">
  <advance width="803"/>
  <unicode hex="0046"/>
  <outline>
    <contour>
      <point x="118" y="-40" type="curve" smooth="yes"/>
      <point x="139" y="-39"/>
      <point x="157" y="-20"/>
      <point x="156" y="2" type="curve" smooth="yes"/>
      <point x="151" y="101" type="line" smooth="yes"/>
      <point x="151" y="103"/>
      <point x="151" y="106"/>
      <point x="151" y="107" type="curve" smooth="yes"/>
      <point x="131" y="196" type="line"/>
      <point x="167" y="300" type="line"/>
      <point x="223" y="345" type="line"/>
      <point x="270" y="357" type="line"/>
      <point x="375" y="359" type="line" smooth="yes"/>
      <point x="377" y="359"/>
      <point x="381" y="359"/>
      <point x="383" y="360" type="curve" smooth="yes"/>
      <point x="393" y="362" type="line" smooth="yes"/>
      <point x="441" y="373"/>
      <point x="434" y="440"/>
      <point x="385" y="441" type="curve" smooth="yes"/>
      <point x="252" y="443" type="line"/>
      <point x="221" y="453" type="line"/>
      <point x="169" y="496" type="line"/>
      <point x="135" y="602" type="line"/>
      <point x="143" y="669" type="line"/>
      <point x="176" y="729" type="line"/>
      <point x="281" y="760" type="line"/>
      <point x="500" y="760" type="line"/>
      <point x="557" y="755" type="line"/>
      <point x="615" y="716" type="line"/>
      <point x="678" y="585" type="line" smooth="yes"/>
      <point x="687" y="565"/>
      <point x="712" y="557"/>
      <point x="731" y="566" type="curve" smooth="yes"/>
      <point x="751" y="575"/>
      <point x="759" y="600"/>
      <point x="750" y="619" type="curve" smooth="yes"/>
      <point x="682" y="761" type="line" smooth="yes"/>
      <point x="680" y="766"/>
      <point x="673" y="774"/>
      <point x="668" y="777" type="curve" smooth="yes"/>
      <point x="593" y="827" type="line" smooth="yes"/>
      <point x="588" y="830"/>
      <point x="580" y="833"/>
      <point x="574" y="834" type="curve" smooth="yes"/>
      <point x="506" y="840" type="line" smooth="yes"/>
      <point x="505" y="840"/>
      <point x="503" y="840"/>
      <point x="502" y="840" type="curve" smooth="yes"/>
      <point x="275" y="840" type="line" smooth="yes"/>
      <point x="272" y="840"/>
      <point x="267" y="839"/>
      <point x="264" y="838" type="curve" smooth="yes"/>
      <point x="137" y="802" type="line" smooth="yes"/>
      <point x="128" y="799"/>
      <point x="118" y="790"/>
      <point x="113" y="782" type="curve" smooth="yes"/>
      <point x="69" y="701" type="line" smooth="yes"/>
      <point x="67" y="697"/>
      <point x="65" y="690"/>
      <point x="65" y="686" type="curve" smooth="yes"/>
      <point x="54" y="603" type="line" smooth="yes"/>
      <point x="54" y="598"/>
      <point x="54" y="590"/>
      <point x="56" y="586" type="curve" smooth="yes"/>
      <point x="97" y="460" type="line" smooth="yes"/>
      <point x="99" y="454"/>
      <point x="104" y="446"/>
      <point x="109" y="442" type="curve" smooth="yes"/>
      <point x="162" y="398" type="line"/>
      <point x="108" y="355" type="line" smooth="yes"/>
      <point x="103" y="351"/>
      <point x="97" y="343"/>
      <point x="95" y="337" type="curve" smooth="yes"/>
      <point x="52" y="211" type="line" smooth="yes"/>
      <point x="50" y="205"/>
      <point x="50" y="195"/>
      <point x="51" y="190" type="curve" smooth="yes"/>
      <point x="72" y="94" type="line"/>
      <point x="76" y="-2" type="line" smooth="yes"/>
      <point x="77" y="-23"/>
      <point x="96" y="-41"/>
    </contour>
  </outline>
</glyph>
<glyph name="G" format="1">
  <advance width="811"/>
  <unicode hex="0047"/>
  <outline>
    <contour>
      <point x="302" y="-36" type="curve" smooth="yes"/>
      <point x="489" y="-36" type="line" smooth="yes"/>
      <point x="492" y="-36"/>
      <point x="496" y="-35"/>
      <point x="499" y="-35" type="curve" smooth="yes"/>
      <point x="645" y="1" type="line" smooth="yes"/>
      <point x="653" y="3"/>
      <point x="663" y="10"/>
      <point x="667" y="16" type="curve" smooth="yes"/>
      <point x="729" y="96" type="line" smooth="yes"/>
      <point x="731" y="100"/>
      <point x="734" y="105"/>
      <point x="735" y="109" type="curve" smooth="yes"/>
      <point x="759" y="193" type="line" smooth="yes"/>
      <point x="762" y="200"/>
      <point x="761" y="212"/>
      <point x="758" y="219" type="curve" smooth="yes"/>
      <point x="721" y="308" type="line"/>
      <point x="741" y="395" type="line" smooth="yes"/>
      <point x="747" y="421"/>
      <point x="729" y="444"/>
      <point x="702" y="444" type="curve" smooth="yes"/>
      <point x="501" y="444" type="line"/>
      <point x="388" y="475" type="line"/>
      <point x="350" y="533" type="line"/>
      <point x="347" y="605" type="line" smooth="yes"/>
      <point x="346" y="627"/>
      <point x="327" y="645"/>
      <point x="306" y="644" type="curve" smooth="yes"/>
      <point x="284" y="643"/>
      <point x="266" y="624"/>
      <point x="267" y="603" type="curve" smooth="yes"/>
      <point x="270" y="519" type="line" smooth="yes"/>
      <point x="270" y="513"/>
      <point x="273" y="504"/>
      <point x="277" y="498" type="curve" smooth="yes"/>
      <point x="330" y="418" type="line" smooth="yes"/>
      <point x="335" y="411"/>
      <point x="345" y="404"/>
      <point x="353" y="401" type="curve" smooth="yes"/>
      <point x="486" y="365" type="line" smooth="yes"/>
      <point x="488" y="365"/>
      <point x="493" y="364"/>
      <point x="496" y="364" type="curve" smooth="yes"/>
      <point x="652" y="364" type="line"/>
      <point x="640" y="313" type="line" smooth="yes"/>
      <point x="638" y="306"/>
      <point x="639" y="295"/>
      <point x="642" y="289" type="curve" smooth="yes"/>
      <point x="679" y="202" type="line"/>
      <point x="660" y="139" type="line"/>
      <point x="612" y="76" type="line"/>
      <point x="484" y="44" type="line"/>
      <point x="308" y="44" type="line"/>
      <point x="200" y="75" type="line"/>
      <point x="153" y="139" type="line"/>
      <point x="130" y="209" type="line"/>
      <point x="137" y="303" type="line"/>
      <point x="139" y="403" type="line" smooth="yes"/>
      <point x="139" y="404"/>
      <point x="139" y="406"/>
      <point x="139" y="406" type="curve" smooth="yes"/>
      <point x="133" y="505" type="line"/>
      <point x="130" y="600" type="line"/>
      <point x="148" y="670" type="line"/>
      <point x="194" y="732" type="line"/>
      <point x="324" y="764" type="line"/>
      <point x="469" y="764" type="line"/>
      <point x="615" y="732" type="line"/>
      <point x="657" y="673" type="line"/>
      <point x="665" y="599" type="line" smooth="yes"/>
      <point x="668" y="578"/>
      <point x="688" y="562"/>
      <point x="710" y="564" type="curve" smooth="yes"/>
      <point x="731" y="567"/>
      <point x="747" y="587"/>
      <point x="745" y="609" type="curve" smooth="yes"/>
      <point x="735" y="692" type="line" smooth="yes"/>
      <point x="735" y="698"/>
      <point x="732" y="706"/>
      <point x="728" y="710" type="curve" smooth="yes"/>
      <point x="672" y="791" type="line" smooth="yes"/>
      <point x="667" y="798"/>
      <point x="656" y="805"/>
      <point x="648" y="807" type="curve" smooth="yes"/>
      <point x="481" y="843" type="line" smooth="yes"/>
      <point x="479" y="844"/>
      <point x="475" y="844"/>
      <point x="473" y="844" type="curve" smooth="yes"/>
      <point x="319" y="844" type="line" smooth="yes"/>
      <point x="316" y="844"/>
      <point x="312" y="843"/>
      <point x="310" y="843" type="curve" smooth="yes"/>
      <point x="161" y="807" type="line" smooth="yes"/>
      <point x="153" y="805"/>
      <point x="143" y="798"/>
      <point x="138" y="791" type="curve" smooth="yes"/>
      <point x="79" y="711" type="line" smooth="yes"/>
      <point x="76" y="707"/>
      <point x="74" y="701"/>
      <point x="72" y="697" type="curve" smooth="yes"/>
      <point x="51" y="614" type="line" smooth="yes"/>
      <point x="50" y="611"/>
      <point x="50" y="606"/>
      <point x="50" y="603" type="curve" smooth="yes"/>
      <point x="53" y="503" type="line"/>
      <point x="59" y="403" type="line"/>
      <point x="57" y="305" type="line"/>
      <point x="50" y="207" type="line" smooth="yes"/>
      <point x="50" y="203"/>
      <point x="51" y="196"/>
      <point x="52" y="192" type="curve" smooth="yes"/>
      <point x="78" y="108" type="line" smooth="yes"/>
      <point x="79" y="105"/>
      <point x="82" y="100"/>
      <point x="84" y="97" type="curve" smooth="yes"/>
      <point x="144" y="16" type="line" smooth="yes"/>
      <point x="148" y="10"/>
      <point x="158" y="4"/>
      <point x="165" y="2" type="curve" smooth="yes"/>
      <point x="291" y="-34" type="line" smooth="yes"/>
      <point x="294" y="-35"/>
      <point x="299" y="-36"/>
    </contour>
  </outline>
</glyph>
<glyph name="H" format="1">
  <advance width="819"/>
  <unicode hex="0048"/>
  <outline>
    <contour>
      <point x="697" y="-44" type="curve" smooth="yes"/>
      <point x="718" y="-44"/>
      <point x="737" y="-26"/>
      <point x="737" y="-4" type="curve" smooth="yes"/>
      <point x="738" y="96" type="line"/>
      <point x="745" y="193" type="line"/>
      <point x="746" y="291" type="line"/>
      <point x="768" y="387" type="line" smooth="yes"/>
      <point x="769" y="392"/>
      <point x="769" y="400"/>
      <point x="768" y="405" type="curve" smooth="yes"/>
      <point x="749" y="485" type="line"/>
      <point x="751" y="488" type="line" smooth="yes"/>
      <point x="756" y="494"/>
      <point x="759" y="505"/>
      <point x="759" y="513" type="curve" smooth="yes"/>
      <point x="759" y="596" type="line" smooth="yes"/>
      <point x="759" y="600"/>
      <point x="758" y="606"/>
      <point x="757" y="610" type="curve" smooth="yes"/>
      <point x="742" y="648" type="line"/>
      <point x="737" y="700" type="line" smooth="yes"/>
      <point x="735" y="720"/>
      <point x="717" y="736"/>
      <point x="697" y="736" type="curve" smooth="yes"/>
      <point x="683" y="736" type="line" smooth="yes"/>
      <point x="653" y="736"/>
      <point x="635" y="710"/>
      <point x="645" y="682" type="curve" smooth="yes"/>
      <point x="664" y="630" type="line"/>
      <point x="668" y="594" type="line"/>
      <point x="665" y="508" type="line"/>
      <point x="634" y="467" type="line"/>
      <point x="517" y="436" type="line"/>
      <point x="308" y="436" type="line" smooth="yes"/>
      <point x="306" y="436"/>
      <point x="302" y="436"/>
      <point x="299" y="435" type="curve" smooth="yes"/>
      <point x="152" y="402" type="line"/>
      <point x="157" y="492" type="line"/>
      <point x="171" y="590" type="line" smooth="yes"/>
      <point x="171" y="592"/>
      <point x="171" y="594"/>
      <point x="171" y="596" type="curve" smooth="yes"/>
      <point x="172" y="696" type="line" smooth="yes"/>
      <point x="172" y="700"/>
      <point x="171" y="706"/>
      <point x="170" y="710" type="curve" smooth="yes"/>
      <point x="133" y="810" type="line" smooth="yes"/>
      <point x="125" y="830"/>
      <point x="101" y="841"/>
      <point x="81" y="834" type="curve" smooth="yes"/>
      <point x="61" y="826"/>
      <point x="50" y="802"/>
      <point x="57" y="782" type="curve" smooth="yes"/>
      <point x="92" y="689" type="line"/>
      <point x="91" y="599" type="line"/>
      <point x="77" y="502" type="line" smooth="yes"/>
      <point x="77" y="501"/>
      <point x="77" y="499"/>
      <point x="77" y="498" type="curve" smooth="yes"/>
      <point x="72" y="401" type="line"/>
      <point x="51" y="305" type="line" smooth="yes"/>
      <point x="49" y="298"/>
      <point x="50" y="287"/>
      <point x="53" y="281" type="curve" smooth="yes"/>
      <point x="71" y="236" type="line"/>
      <point x="62" y="210" type="line" smooth="yes"/>
      <point x="59" y="203"/>
      <point x="59" y="193"/>
      <point x="60" y="186" type="curve" smooth="yes"/>
      <point x="87" y="86" type="line" smooth="yes"/>
      <point x="91" y="69"/>
      <point x="109" y="56"/>
      <point x="126" y="56" type="curve" smooth="yes"/>
      <point x="133" y="56" type="line" smooth="yes"/>
      <point x="156" y="56"/>
      <point x="173" y="74"/>
      <point x="173" y="97" type="curve" smooth="yes"/>
      <point x="171" y="197" type="line" smooth="yes"/>
      <point x="171" y="201"/>
      <point x="170" y="207"/>
      <point x="168" y="211" type="curve" smooth="yes"/>
      <point x="157" y="237" type="line"/>
      <point x="168" y="265" type="line" smooth="yes"/>
      <point x="168" y="266"/>
      <point x="169" y="269"/>
      <point x="169" y="270" type="curve" smooth="yes"/>
      <point x="181" y="326" type="line"/>
      <point x="312" y="356" type="line"/>
      <point x="522" y="356" type="line" smooth="yes"/>
      <point x="525" y="356"/>
      <point x="529" y="357"/>
      <point x="532" y="357" type="curve" smooth="yes"/>
      <point x="668" y="393" type="line" smooth="yes"/>
      <point x="674" y="395"/>
      <point x="681" y="399"/>
      <point x="686" y="404" type="curve"/>
      <point x="688" y="396" type="line"/>
      <point x="667" y="305" type="line" smooth="yes"/>
      <point x="666" y="303"/>
      <point x="666" y="299"/>
      <point x="666" y="296" type="curve" smooth="yes"/>
      <point x="665" y="199" type="line"/>
      <point x="658" y="96" type="line"/>
      <point x="657" y="-4" type="line" smooth="yes"/>
      <point x="657" y="-25"/>
      <point x="675" y="-44"/>
    </contour>
  </outline>
</glyph>
<glyph name="I" format="1">
  <advance width="810"/>
  <unicode hex="0049"/>
  <outline>
    <contour>
      <point x="90" y="-41" type="curve" smooth="yes"/>
      <point x="576" y="-41" type="line" smooth="yes"/>
      <point x="624" y="-41"/>
      <point x="634" y="24"/>
      <point x="587" y="37" type="curve" smooth="yes"/>
      <point x="538" y="51" type="line"/>
      <point x="479" y="85" type="line"/>
      <point x="458" y="205" type="line"/>
      <point x="449" y="302" type="line"/>
      <point x="443" y="401" type="line" smooth="yes"/>
      <point x="443" y="403"/>
      <point x="442" y="406"/>
      <point x="442" y="408" type="curve" smooth="yes"/>
      <point x="422" y="496" type="line"/>
      <point x="457" y="585" type="line" smooth="yes"/>
      <point x="460" y="592"/>
      <point x="461" y="604"/>
      <point x="458" y="611" type="curve" smooth="yes"/>
      <point x="417" y="750" type="line" smooth="yes"/>
      <point x="416" y="753"/>
      <point x="415" y="756"/>
      <point x="413" y="759" type="curve"/>
      <point x="720" y="759" type="line" smooth="yes"/>
      <point x="742" y="759"/>
      <point x="760" y="777"/>
      <point x="760" y="799" type="curve" smooth="yes"/>
      <point x="760" y="821"/>
      <point x="742" y="839"/>
      <point x="720" y="839" type="curve" smooth="yes"/>
      <point x="222" y="839" type="line" smooth="yes"/>
      <point x="217" y="839"/>
      <point x="210" y="837"/>
      <point x="206" y="836" type="curve" smooth="yes"/>
      <point x="190" y="829" type="line" smooth="yes"/>
      <point x="149" y="811"/>
      <point x="158" y="756"/>
      <point x="203" y="752" type="curve" smooth="yes"/>
      <point x="274" y="746" type="line"/>
      <point x="345" y="711" type="line"/>
      <point x="378" y="602" type="line"/>
      <point x="343" y="514" type="line" smooth="yes"/>
      <point x="340" y="508"/>
      <point x="339" y="497"/>
      <point x="341" y="491" type="curve" smooth="yes"/>
      <point x="363" y="393" type="line"/>
      <point x="369" y="295" type="line"/>
      <point x="380" y="191" type="line"/>
      <point x="404" y="53" type="line" smooth="yes"/>
      <point x="404" y="48"/>
      <point x="407" y="43"/>
      <point x="409" y="39" type="curve"/>
      <point x="90" y="39" type="line" smooth="yes"/>
      <point x="68" y="39"/>
      <point x="50" y="21"/>
      <point x="50" y="-1" type="curve" smooth="yes"/>
      <point x="50" y="-23"/>
      <point x="68" y="-41"/>
    </contour>
  </outline>
</glyph>
<glyph name="J" format="1">
  <advance width="795"/>
  <unicode hex="004A"/>
  <outline>
    <contour>
      <point x="90" y="-41" type="curve" smooth="yes"/>
      <point x="227" y="-41" type="line" smooth="yes"/>
      <point x="230" y="-41"/>
      <point x="234" y="-40"/>
      <point x="237" y="-40" type="curve" smooth="yes"/>
      <point x="376" y="-4" type="line" smooth="yes"/>
      <point x="387" y="-1"/>
      <point x="399" y="10"/>
      <point x="403" y="20" type="curve" smooth="yes"/>
      <point x="434" y="100" type="line" smooth="yes"/>
      <point x="435" y="102"/>
      <point x="436" y="105"/>
      <point x="436" y="107" type="curve" smooth="yes"/>
      <point x="453" y="190" type="line" smooth="yes"/>
      <point x="454" y="193"/>
      <point x="454" y="199"/>
      <point x="454" y="203" type="curve" smooth="yes"/>
      <point x="441" y="306" type="line"/>
      <point x="425" y="399" type="line"/>
      <point x="443" y="490" type="line"/>
      <point x="467" y="591" type="line" smooth="yes"/>
      <point x="468" y="596"/>
      <point x="468" y="604"/>
      <point x="467" y="609" type="curve" smooth="yes"/>
      <point x="435" y="748" type="line" smooth="yes"/>
      <point x="434" y="752"/>
      <point x="432" y="756"/>
      <point x="430" y="759" type="curve"/>
      <point x="705" y="759" type="line" smooth="yes"/>
      <point x="727" y="759"/>
      <point x="745" y="777"/>
      <point x="745" y="799" type="curve" smooth="yes"/>
      <point x="745" y="821"/>
      <point x="727" y="839"/>
      <point x="705" y="839" type="curve" smooth="yes"/>
      <point x="221" y="839" type="line" smooth="yes"/>
      <point x="172" y="839"/>
      <point x="164" y="773"/>
      <point x="210" y="760" type="curve" smooth="yes"/>
      <point x="255" y="748" type="line"/>
      <point x="362" y="709" type="line"/>
      <point x="387" y="600" type="line"/>
      <point x="365" y="509" type="line"/>
      <point x="345" y="407" type="line" smooth="yes"/>
      <point x="344" y="403"/>
      <point x="344" y="396"/>
      <point x="345" y="392" type="curve" smooth="yes"/>
      <point x="363" y="291" type="line"/>
      <point x="374" y="200" type="line"/>
      <point x="359" y="126" type="line"/>
      <point x="336" y="68" type="line"/>
      <point x="222" y="39" type="line"/>
      <point x="90" y="39" type="line" smooth="yes"/>
      <point x="68" y="39"/>
      <point x="50" y="21"/>
      <point x="50" y="-1" type="curve" smooth="yes"/>
      <point x="50" y="-23"/>
      <point x="68" y="-41"/>
    </contour>
  </outline>
</glyph>
<glyph name="K" format="1">
  <advance width="803"/>
  <unicode hex="004B"/>
  <outline>
    <contour>
      <point x="730" y="-4" type="curve" smooth="yes"/>
      <point x="750" y="97" type="line" smooth="yes"/>
      <point x="751" y="99"/>
      <point x="751" y="103"/>
      <point x="751" y="105" type="curve" smooth="yes"/>
      <point x="750" y="206" type="line" smooth="yes"/>
      <point x="750" y="210"/>
      <point x="749" y="217"/>
      <point x="747" y="220" type="curve" smooth="yes"/>
      <point x="693" y="362" type="line" smooth="yes"/>
      <point x="691" y="367"/>
      <point x="686" y="374"/>
      <point x="682" y="378" type="curve" smooth="yes"/>
      <point x="659" y="398" type="line"/>
      <point x="673" y="402" type="line" smooth="yes"/>
      <point x="685" y="405"/>
      <point x="698" y="418"/>
      <point x="701" y="430" type="curve" smooth="yes"/>
      <point x="722" y="511" type="line"/>
      <point x="746" y="593" type="line" smooth="yes"/>
      <point x="748" y="597"/>
      <point x="748" y="605"/>
      <point x="748" y="610" type="curve" smooth="yes"/>
      <point x="734" y="703" type="line"/>
      <point x="752" y="796" type="line" smooth="yes"/>
      <point x="756" y="818"/>
      <point x="742" y="839"/>
      <point x="721" y="843" type="curve" smooth="yes"/>
      <point x="699" y="847"/>
      <point x="678" y="833"/>
      <point x="674" y="812" type="curve" smooth="yes"/>
      <point x="654" y="712" type="line" smooth="yes"/>
      <point x="654" y="708"/>
      <point x="653" y="702"/>
      <point x="654" y="698" type="curve" smooth="yes"/>
      <point x="667" y="607" type="line"/>
      <point x="645" y="531" type="line"/>
      <point x="629" y="472" type="line"/>
      <point x="525" y="443" type="line"/>
      <point x="506" y="444" type="line"/>
      <point x="425" y="444" type="line"/>
      <point x="308" y="444" type="line" smooth="yes"/>
      <point x="305" y="444"/>
      <point x="299" y="443"/>
      <point x="296" y="442" type="curve" smooth="yes"/>
      <point x="179" y="406" type="line" smooth="yes"/>
      <point x="174" y="404"/>
      <point x="167" y="400"/>
      <point x="163" y="396" type="curve"/>
      <point x="163" y="402" type="line" smooth="yes"/>
      <point x="163" y="405"/>
      <point x="163" y="409"/>
      <point x="162" y="412" type="curve" smooth="yes"/>
      <point x="142" y="511" type="line"/>
      <point x="130" y="603" type="line"/>
      <point x="146" y="697" type="line" smooth="yes"/>
      <point x="147" y="699"/>
      <point x="147" y="702"/>
      <point x="147" y="704" type="curve" smooth="yes"/>
      <point x="147" y="804" type="line" smooth="yes"/>
      <point x="147" y="826"/>
      <point x="129" y="844"/>
      <point x="107" y="844" type="curve" smooth="yes"/>
      <point x="85" y="844"/>
      <point x="67" y="826"/>
      <point x="67" y="804" type="curve" smooth="yes"/>
      <point x="67" y="707" type="line"/>
      <point x="51" y="611" type="line" smooth="yes"/>
      <point x="50" y="608"/>
      <point x="50" y="602"/>
      <point x="50" y="599" type="curve" smooth="yes"/>
      <point x="62" y="499" type="line" smooth="yes"/>
      <point x="62" y="498"/>
      <point x="63" y="497"/>
      <point x="63" y="496" type="curve" smooth="yes"/>
      <point x="83" y="401" type="line"/>
      <point x="77" y="306" type="line" smooth="yes"/>
      <point x="77" y="305"/>
      <point x="77" y="303"/>
      <point x="77" y="302" type="curve" smooth="yes"/>
      <point x="83" y="202" type="line"/>
      <point x="84" y="171" type="line"/>
      <point x="67" y="116" type="line" smooth="yes"/>
      <point x="59" y="88"/>
      <point x="77" y="64"/>
      <point x="105" y="64" type="curve" smooth="yes"/>
      <point x="127" y="64" type="line" smooth="yes"/>
      <point x="150" y="64"/>
      <point x="168" y="83"/>
      <point x="167" y="106" type="curve" smooth="yes"/>
      <point x="165" y="161" type="line"/>
      <point x="174" y="192" type="line" smooth="yes"/>
      <point x="176" y="197"/>
      <point x="176" y="205"/>
      <point x="176" y="209" type="curve" smooth="yes"/>
      <point x="167" y="275" type="line"/>
      <point x="214" y="333" type="line"/>
      <point x="314" y="364" type="line"/>
      <point x="425" y="364" type="line"/>
      <point x="500" y="364" type="line"/>
      <point x="583" y="359" type="line"/>
      <point x="622" y="324" type="line"/>
      <point x="670" y="198" type="line"/>
      <point x="671" y="109" type="line"/>
      <point x="652" y="12" type="line" smooth="yes"/>
      <point x="648" y="-9"/>
      <point x="662" y="-31"/>
      <point x="683" y="-35" type="curve" smooth="yes"/>
      <point x="704" y="-39"/>
      <point x="726" y="-25"/>
    </contour>
  </outline>
</glyph>
<glyph name="L" format="1">
  <advance width="773"/>
  <unicode hex="004C"/>
  <outline>
    <contour>
      <point x="318" y="-40" type="curve" smooth="yes"/>
      <point x="683" y="-40" type="line" smooth="yes"/>
      <point x="705" y="-40"/>
      <point x="723" y="-22"/>
      <point x="723" y="0" type="curve" smooth="yes"/>
      <point x="723" y="22"/>
      <point x="705" y="40"/>
      <point x="683" y="40" type="curve" smooth="yes"/>
      <point x="320" y="40" type="line"/>
      <point x="249" y="46" type="line"/>
      <point x="163" y="85" type="line"/>
      <point x="152" y="201" type="line"/>
      <point x="158" y="296" type="line"/>
      <point x="169" y="396" type="line" smooth="yes"/>
      <point x="169" y="401"/>
      <point x="168" y="409"/>
      <point x="166" y="415" type="curve" smooth="yes"/>
      <point x="132" y="503" type="line"/>
      <point x="150" y="592" type="line" smooth="yes"/>
      <point x="151" y="594"/>
      <point x="151" y="599"/>
      <point x="151" y="602" type="curve" smooth="yes"/>
      <point x="147" y="698" type="line"/>
      <point x="160" y="795" type="line" smooth="yes"/>
      <point x="162" y="816"/>
      <point x="147" y="837"/>
      <point x="125" y="840" type="curve" smooth="yes"/>
      <point x="104" y="842"/>
      <point x="83" y="827"/>
      <point x="80" y="805" type="curve" smooth="yes"/>
      <point x="67" y="705" type="line" smooth="yes"/>
      <point x="67" y="703"/>
      <point x="67" y="700"/>
      <point x="67" y="698" type="curve" smooth="yes"/>
      <point x="71" y="603" type="line"/>
      <point x="51" y="508" type="line" smooth="yes"/>
      <point x="50" y="502"/>
      <point x="50" y="492"/>
      <point x="53" y="485" type="curve" smooth="yes"/>
      <point x="88" y="395" type="line"/>
      <point x="78" y="304" type="line"/>
      <point x="72" y="202" type="line" smooth="yes"/>
      <point x="72" y="201"/>
      <point x="72" y="198"/>
      <point x="72" y="196" type="curve" smooth="yes"/>
      <point x="85" y="55" type="line" smooth="yes"/>
      <point x="86" y="42"/>
      <point x="97" y="27"/>
      <point x="109" y="22" type="curve" smooth="yes"/>
      <point x="222" y="-29" type="line" smooth="yes"/>
      <point x="226" y="-31"/>
      <point x="231" y="-33"/>
      <point x="235" y="-33" type="curve" smooth="yes"/>
      <point x="315" y="-40" type="line" smooth="yes"/>
      <point x="315" y="-40"/>
      <point x="317" y="-40"/>
    </contour>
  </outline>
</glyph>
<glyph name="M" format="1">
  <advance width="826"/>
  <unicode hex="004D"/>
  <outline>
    <contour>
      <point x="718" y="-41" type="curve" smooth="yes"/>
      <point x="739" y="-38"/>
      <point x="755" y="-17"/>
      <point x="752" y="5" type="curve" smooth="yes"/>
      <point x="738" y="99" type="line"/>
      <point x="753" y="193" type="line"/>
      <point x="775" y="290" type="line" smooth="yes"/>
      <point x="777" y="297"/>
      <point x="776" y="308"/>
      <point x="773" y="315" type="curve" smooth="yes"/>
      <point x="733" y="405" type="line"/>
      <point x="745" y="494" type="line"/>
      <point x="751" y="597" type="line"/>
      <point x="755" y="697" type="line" smooth="yes"/>
      <point x="755" y="701"/>
      <point x="755" y="706"/>
      <point x="754" y="709" type="curve" smooth="yes"/>
      <point x="729" y="809" type="line" smooth="yes"/>
      <point x="725" y="825"/>
      <point x="707" y="839"/>
      <point x="690" y="839" type="curve" smooth="yes"/>
      <point x="603" y="839" type="line" smooth="yes"/>
      <point x="602" y="839"/>
      <point x="599" y="839"/>
      <point x="598" y="839" type="curve" smooth="yes"/>
      <point x="543" y="832" type="line" smooth="yes"/>
      <point x="538" y="831"/>
      <point x="530" y="828"/>
      <point x="526" y="825" type="curve" smooth="yes"/>
      <point x="452" y="773" type="line" smooth="yes"/>
      <point x="447" y="770"/>
      <point x="441" y="763"/>
      <point x="438" y="757" type="curve" smooth="yes"/>
      <point x="408" y="692" type="line"/>
      <point x="392" y="751" type="line" smooth="yes"/>
      <point x="390" y="757"/>
      <point x="386" y="765"/>
      <point x="382" y="769" type="curve" smooth="yes"/>
      <point x="332" y="820" type="line" smooth="yes"/>
      <point x="326" y="826"/>
      <point x="314" y="831"/>
      <point x="306" y="832" type="curve" smooth="yes"/>
      <point x="206" y="839" type="line"/>
      <point x="120" y="839" type="line" smooth="yes"/>
      <point x="97" y="839"/>
      <point x="79" y="821"/>
      <point x="80" y="798" type="curve" smooth="yes"/>
      <point x="83" y="704" type="line"/>
      <point x="55" y="610" type="line" smooth="yes"/>
      <point x="54" y="607"/>
      <point x="53" y="601"/>
      <point x="53" y="597" type="curve" smooth="yes"/>
      <point x="57" y="497" type="line" smooth="yes"/>
      <point x="57" y="495"/>
      <point x="58" y="491"/>
      <point x="58" y="488" type="curve" smooth="yes"/>
      <point x="84" y="397" type="line"/>
      <point x="68" y="306" type="line"/>
      <point x="51" y="206" type="line" smooth="yes"/>
      <point x="50" y="202"/>
      <point x="50" y="197"/>
      <point x="50" y="193" type="curve" smooth="yes"/>
      <point x="65" y="93" type="line"/>
      <point x="86" y="-9" type="line" smooth="yes"/>
      <point x="90" y="-30"/>
      <point x="112" y="-44"/>
      <point x="133" y="-40" type="curve" smooth="yes"/>
      <point x="154" y="-36"/>
      <point x="168" y="-14"/>
      <point x="164" y="7" type="curve" smooth="yes"/>
      <point x="145" y="105" type="line"/>
      <point x="131" y="199" type="line"/>
      <point x="146" y="292" type="line"/>
      <point x="164" y="392" type="line" smooth="yes"/>
      <point x="165" y="397"/>
      <point x="165" y="405"/>
      <point x="164" y="410" type="curve" smooth="yes"/>
      <point x="137" y="505" type="line"/>
      <point x="133" y="594" type="line"/>
      <point x="161" y="688" type="line" smooth="yes"/>
      <point x="162" y="691"/>
      <point x="163" y="697"/>
      <point x="163" y="700" type="curve" smooth="yes"/>
      <point x="161" y="759" type="line"/>
      <point x="200" y="759" type="line"/>
      <point x="285" y="753" type="line"/>
      <point x="318" y="720" type="line"/>
      <point x="354" y="590" type="line"/>
      <point x="374" y="498" type="line"/>
      <point x="356" y="407" type="line" smooth="yes"/>
      <point x="351" y="381"/>
      <point x="369" y="359"/>
      <point x="396" y="359" type="curve" smooth="yes"/>
      <point x="406" y="359" type="line" smooth="yes"/>
      <point x="423" y="359"/>
      <point x="441" y="372"/>
      <point x="445" y="389" type="curve" smooth="yes"/>
      <point x="471" y="489" type="line" smooth="yes"/>
      <point x="473" y="494"/>
      <point x="473" y="503"/>
      <point x="472" y="508" type="curve" smooth="yes"/>
      <point x="452" y="595" type="line"/>
      <point x="506" y="714" type="line"/>
      <point x="563" y="754" type="line"/>
      <point x="606" y="759" type="line"/>
      <point x="659" y="759" type="line"/>
      <point x="675" y="695" type="line"/>
      <point x="671" y="601" type="line"/>
      <point x="665" y="504" type="line"/>
      <point x="652" y="404" type="line" smooth="yes"/>
      <point x="652" y="398"/>
      <point x="653" y="389"/>
      <point x="655" y="383" type="curve" smooth="yes"/>
      <point x="694" y="295" type="line"/>
      <point x="673" y="205" type="line"/>
      <point x="658" y="105" type="line" smooth="yes"/>
      <point x="658" y="102"/>
      <point x="658" y="97"/>
      <point x="658" y="93" type="curve" smooth="yes"/>
      <point x="672" y="-7" type="line" smooth="yes"/>
      <point x="675" y="-28"/>
      <point x="696" y="-44"/>
    </contour>
  </outline>
</glyph>
<glyph name="N" format="1">
  <advance width="828"/>
  <unicode hex="004E"/>
  <outline>
    <contour>
      <point x="621" y="-41" type="line"/>
      <point x="713" y="-41" type="line" smooth="yes"/>
      <point x="738" y="-41"/>
      <point x="756" y="-21"/>
      <point x="753" y="4" type="curve" smooth="yes"/>
      <point x="741" y="100" type="line"/>
      <point x="747" y="197" type="line" smooth="yes"/>
      <point x="747" y="198"/>
      <point x="747" y="199"/>
      <point x="747" y="200" type="curve" smooth="yes"/>
      <point x="744" y="295" type="line"/>
      <point x="765" y="390" type="line" smooth="yes"/>
      <point x="766" y="395"/>
      <point x="766" y="403"/>
      <point x="765" y="408" type="curve" smooth="yes"/>
      <point x="744" y="504" type="line"/>
      <point x="743" y="592" type="line"/>
      <point x="777" y="685" type="line" smooth="yes"/>
      <point x="779" y="691"/>
      <point x="779" y="700"/>
      <point x="778" y="706" type="curve" smooth="yes"/>
      <point x="760" y="806" type="line" smooth="yes"/>
      <point x="757" y="827"/>
      <point x="735" y="842"/>
      <point x="714" y="838" type="curve" smooth="yes"/>
      <point x="693" y="835"/>
      <point x="678" y="813"/>
      <point x="682" y="792" type="curve" smooth="yes"/>
      <point x="698" y="702" type="line"/>
      <point x="665" y="613" type="line" smooth="yes"/>
      <point x="664" y="609"/>
      <point x="663" y="603"/>
      <point x="663" y="599" type="curve" smooth="yes"/>
      <point x="664" y="499" type="line" smooth="yes"/>
      <point x="664" y="496"/>
      <point x="664" y="493"/>
      <point x="665" y="490" type="curve" smooth="yes"/>
      <point x="685" y="399" type="line"/>
      <point x="665" y="308" type="line" smooth="yes"/>
      <point x="664" y="305"/>
      <point x="664" y="301"/>
      <point x="664" y="298" type="curve" smooth="yes"/>
      <point x="667" y="200" type="line"/>
      <point x="661" y="101" type="line" smooth="yes"/>
      <point x="661" y="99"/>
      <point x="661" y="96"/>
      <point x="661" y="94" type="curve" smooth="yes"/>
      <point x="668" y="39" type="line"/>
      <point x="621" y="39" type="line"/>
      <point x="527" y="45" type="line"/>
      <point x="475" y="80" type="line"/>
      <point x="466" y="202" type="line" smooth="yes"/>
      <point x="466" y="204"/>
      <point x="465" y="207"/>
      <point x="465" y="209" type="curve" smooth="yes"/>
      <point x="440" y="302" type="line"/>
      <point x="450" y="395" type="line" smooth="yes"/>
      <point x="450" y="398"/>
      <point x="450" y="403"/>
      <point x="449" y="407" type="curve" smooth="yes"/>
      <point x="430" y="502" type="line"/>
      <point x="437" y="596" type="line" smooth="yes"/>
      <point x="437" y="599"/>
      <point x="437" y="602"/>
      <point x="437" y="605" type="curve" smooth="yes"/>
      <point x="416" y="746" type="line" smooth="yes"/>
      <point x="415" y="758"/>
      <point x="405" y="771"/>
      <point x="395" y="776" type="curve" smooth="yes"/>
      <point x="294" y="828" type="line" smooth="yes"/>
      <point x="291" y="829"/>
      <point x="286" y="831"/>
      <point x="283" y="831" type="curve" smooth="yes"/>
      <point x="241" y="838" type="line" smooth="yes"/>
      <point x="239" y="839"/>
      <point x="236" y="839"/>
      <point x="234" y="839" type="curve" smooth="yes"/>
      <point x="104" y="839" type="line" smooth="yes"/>
      <point x="85" y="839"/>
      <point x="67" y="823"/>
      <point x="64" y="804" type="curve" smooth="yes"/>
      <point x="51" y="704" type="line" smooth="yes"/>
      <point x="51" y="698"/>
      <point x="52" y="689"/>
      <point x="54" y="684" type="curve" smooth="yes"/>
      <point x="89" y="598" type="line"/>
      <point x="60" y="512" type="line" smooth="yes"/>
      <point x="58" y="505"/>
      <point x="58" y="494"/>
      <point x="60" y="488" type="curve" smooth="yes"/>
      <point x="88" y="393" type="line"/>
      <point x="88" y="301" type="line"/>
      <point x="80" y="206" type="line"/>
      <point x="52" y="110" type="line" smooth="yes"/>
      <point x="50" y="106"/>
      <point x="50" y="98"/>
      <point x="51" y="93" type="curve" smooth="yes"/>
      <point x="67" y="-7" type="line" smooth="yes"/>
      <point x="70" y="-29"/>
      <point x="91" y="-44"/>
      <point x="112" y="-40" type="curve" smooth="yes"/>
      <point x="134" y="-37"/>
      <point x="149" y="-16"/>
      <point x="145" y="5" type="curve" smooth="yes"/>
      <point x="131" y="96" type="line"/>
      <point x="158" y="188" type="line" smooth="yes"/>
      <point x="159" y="190"/>
      <point x="160" y="193"/>
      <point x="160" y="196" type="curve" smooth="yes"/>
      <point x="168" y="296" type="line" smooth="yes"/>
      <point x="168" y="297"/>
      <point x="168" y="298"/>
      <point x="168" y="299" type="curve" smooth="yes"/>
      <point x="168" y="399" type="line" smooth="yes"/>
      <point x="168" y="402"/>
      <point x="167" y="407"/>
      <point x="166" y="410" type="curve" smooth="yes"/>
      <point x="140" y="498" type="line"/>
      <point x="170" y="586" type="line" smooth="yes"/>
      <point x="173" y="594"/>
      <point x="172" y="607"/>
      <point x="169" y="614" type="curve" smooth="yes"/>
      <point x="132" y="704" type="line"/>
      <point x="139" y="759" type="line"/>
      <point x="231" y="759" type="line"/>
      <point x="263" y="754" type="line"/>
      <point x="340" y="714" type="line"/>
      <point x="357" y="598" type="line"/>
      <point x="350" y="502" type="line" smooth="yes"/>
      <point x="350" y="499"/>
      <point x="350" y="494"/>
      <point x="351" y="491" type="curve" smooth="yes"/>
      <point x="370" y="397" type="line"/>
      <point x="359" y="303" type="line" smooth="yes"/>
      <point x="359" y="299"/>
      <point x="359" y="293"/>
      <point x="360" y="289" type="curve" smooth="yes"/>
      <point x="386" y="192" type="line"/>
      <point x="397" y="54" type="line" smooth="yes"/>
      <point x="398" y="44"/>
      <point x="406" y="30"/>
      <point x="415" y="24" type="curve" smooth="yes"/>
      <point x="491" y="-27" type="line" smooth="yes"/>
      <point x="496" y="-31"/>
      <point x="505" y="-34"/>
      <point x="511" y="-34" type="curve" smooth="yes"/>
    </contour>
  </outline>
</glyph>
<glyph name="O" format="1">
  <advance width="807"/>
  <unicode hex="004F"/>
  <outline>
    <contour>
      <point x="287" y="-41" type="curve" smooth="yes"/>
      <point x="431" y="-41" type="line" smooth="yes"/>
      <point x="453" y="-41"/>
      <point x="471" y="-23"/>
      <point x="471" y="-1" type="curve" smooth="yes"/>
      <point x="471" y="21"/>
      <point x="453" y="39"/>
      <point x="431" y="39" type="curve" smooth="yes"/>
      <point x="293" y="39" type="line"/>
      <point x="203" y="69" type="line"/>
      <point x="162" y="131" type="line"/>
      <point x="146" y="205" type="line"/>
      <point x="140" y="300" type="line"/>
      <point x="142" y="394" type="line"/>
      <point x="165" y="490" type="line" smooth="yes"/>
      <point x="166" y="496"/>
      <point x="166" y="506"/>
      <point x="164" y="512" type="curve" smooth="yes"/>
      <point x="131" y="606" type="line"/>
      <point x="130" y="670" type="line"/>
      <point x="169" y="727" type="line"/>
      <point x="312" y="759" type="line"/>
      <point x="492" y="759" type="line"/>
      <point x="617" y="728" type="line"/>
      <point x="651" y="671" type="line"/>
      <point x="654" y="597" type="line" smooth="yes"/>
      <point x="654" y="595"/>
      <point x="655" y="592"/>
      <point x="655" y="590" type="curve" smooth="yes"/>
      <point x="676" y="499" type="line"/>
      <point x="654" y="408" type="line" smooth="yes"/>
      <point x="653" y="404"/>
      <point x="653" y="398"/>
      <point x="653" y="394" type="curve" smooth="yes"/>
      <point x="665" y="301" type="line"/>
      <point x="646" y="207" type="line" smooth="yes"/>
      <point x="645" y="201"/>
      <point x="645" y="193"/>
      <point x="647" y="187" type="curve" smooth="yes"/>
      <point x="668" y="119" type="line"/>
      <point x="643" y="69" type="line"/>
      <point x="520" y="38" type="line" smooth="yes"/>
      <point x="499" y="32"/>
      <point x="486" y="10"/>
      <point x="491" y="-11" type="curve" smooth="yes"/>
      <point x="497" y="-32"/>
      <point x="519" y="-45"/>
      <point x="540" y="-40" type="curve" smooth="yes"/>
      <point x="681" y="-4" type="line" smooth="yes"/>
      <point x="691" y="-1"/>
      <point x="702" y="8"/>
      <point x="707" y="17" type="curve" smooth="yes"/>
      <point x="747" y="98" type="line" smooth="yes"/>
      <point x="751" y="106"/>
      <point x="752" y="119"/>
      <point x="749" y="127" type="curve" smooth="yes"/>
      <point x="726" y="201" type="line"/>
      <point x="744" y="291" type="line" smooth="yes"/>
      <point x="745" y="295"/>
      <point x="745" y="300"/>
      <point x="745" y="304" type="curve" smooth="yes"/>
      <point x="734" y="397" type="line"/>
      <point x="756" y="490" type="line" smooth="yes"/>
      <point x="757" y="495"/>
      <point x="757" y="503"/>
      <point x="756" y="508" type="curve" smooth="yes"/>
      <point x="734" y="604" type="line"/>
      <point x="730" y="684" type="line" smooth="yes"/>
      <point x="730" y="690"/>
      <point x="728" y="698"/>
      <point x="725" y="703" type="curve" smooth="yes"/>
      <point x="678" y="783" type="line" smooth="yes"/>
      <point x="673" y="791"/>
      <point x="662" y="800"/>
      <point x="653" y="802" type="curve" smooth="yes"/>
      <point x="507" y="838" type="line" smooth="yes"/>
      <point x="504" y="838"/>
      <point x="500" y="839"/>
      <point x="497" y="839" type="curve" smooth="yes"/>
      <point x="308" y="839" type="line" smooth="yes"/>
      <point x="306" y="839"/>
      <point x="302" y="839"/>
      <point x="299" y="838" type="curve" smooth="yes"/>
      <point x="136" y="802" type="line" smooth="yes"/>
      <point x="127" y="800"/>
      <point x="116" y="792"/>
      <point x="111" y="785" type="curve" smooth="yes"/>
      <point x="57" y="704" type="line" smooth="yes"/>
      <point x="53" y="699"/>
      <point x="50" y="688"/>
      <point x="50" y="682" type="curve" smooth="yes"/>
      <point x="51" y="599" type="line" smooth="yes"/>
      <point x="51" y="595"/>
      <point x="52" y="589"/>
      <point x="53" y="586" type="curve" smooth="yes"/>
      <point x="84" y="497" type="line"/>
      <point x="63" y="408" type="line" smooth="yes"/>
      <point x="63" y="406"/>
      <point x="62" y="402"/>
      <point x="62" y="400" type="curve" smooth="yes"/>
      <point x="60" y="300" type="line" smooth="yes"/>
      <point x="60" y="299"/>
      <point x="60" y="297"/>
      <point x="60" y="297" type="curve" smooth="yes"/>
      <point x="66" y="197" type="line" smooth="yes"/>
      <point x="66" y="195"/>
      <point x="67" y="192"/>
      <point x="67" y="190" type="curve" smooth="yes"/>
      <point x="85" y="107" type="line" smooth="yes"/>
      <point x="86" y="103"/>
      <point x="89" y="97"/>
      <point x="91" y="94" type="curve" smooth="yes"/>
      <point x="143" y="13" type="line" smooth="yes"/>
      <point x="148" y="7"/>
      <point x="157" y="-1"/>
      <point x="164" y="-3" type="curve" smooth="yes"/>
      <point x="275" y="-39" type="line" smooth="yes"/>
      <point x="278" y="-40"/>
      <point x="283" y="-41"/>
    </contour>
  </outline>
</glyph>
<glyph name="P" format="1">
  <advance width="814"/>
  <unicode hex="0050"/>
  <outline>
    <contour>
      <point x="115" y="-36" type="curve" smooth="yes"/>
      <point x="136" y="-33"/>
      <point x="151" y="-11"/>
      <point x="147" y="10" type="curve" smooth="yes"/>
      <point x="136" y="73" type="line"/>
      <point x="141" y="79"/>
      <point x="145" y="87"/>
      <point x="146" y="95" type="curve" smooth="yes"/>
      <point x="151" y="153" type="line"/>
      <point x="165" y="189" type="line" smooth="yes"/>
      <point x="166" y="194"/>
      <point x="167" y="202"/>
      <point x="167" y="208" type="curve"/>
      <point x="178" y="235" type="line"/>
      <point x="303" y="267" type="line"/>
      <point x="517" y="267" type="line" smooth="yes"/>
      <point x="520" y="267"/>
      <point x="524" y="267"/>
      <point x="526" y="268" type="curve" smooth="yes"/>
      <point x="676" y="304" type="line" smooth="yes"/>
      <point x="690" y="307"/>
      <point x="704" y="321"/>
      <point x="706" y="335" type="curve" smooth="yes"/>
      <point x="721" y="410" type="line"/>
      <point x="761" y="489" type="line" smooth="yes"/>
      <point x="765" y="497"/>
      <point x="766" y="510"/>
      <point x="763" y="519" type="curve" smooth="yes"/>
      <point x="735" y="610" type="line"/>
      <point x="729" y="689" type="line" smooth="yes"/>
      <point x="729" y="692"/>
      <point x="729" y="696"/>
      <point x="728" y="698" type="curve" smooth="yes"/>
      <point x="703" y="779" type="line" smooth="yes"/>
      <point x="700" y="790"/>
      <point x="687" y="803"/>
      <point x="675" y="806" type="curve" smooth="yes"/>
      <point x="536" y="842" type="line" smooth="yes"/>
      <point x="533" y="842"/>
      <point x="529" y="843"/>
      <point x="526" y="843" type="curve" smooth="yes"/>
      <point x="318" y="843" type="line" smooth="yes"/>
      <point x="316" y="843"/>
      <point x="312" y="843"/>
      <point x="309" y="842" type="curve" smooth="yes"/>
      <point x="143" y="806" type="line" smooth="yes"/>
      <point x="134" y="804"/>
      <point x="122" y="795"/>
      <point x="117" y="787" type="curve" smooth="yes"/>
      <point x="69" y="706" type="line" smooth="yes"/>
      <point x="64" y="699"/>
      <point x="62" y="685"/>
      <point x="65" y="676" type="curve" smooth="yes"/>
      <point x="84" y="601" type="line"/>
      <point x="71" y="509" type="line" smooth="yes"/>
      <point x="71" y="506"/>
      <point x="71" y="503"/>
      <point x="71" y="501" type="curve" smooth="yes"/>
      <point x="77" y="405" type="line"/>
      <point x="62" y="309" type="line" smooth="yes"/>
      <point x="62" y="305"/>
      <point x="62" y="298"/>
      <point x="63" y="293" type="curve" smooth="yes"/>
      <point x="83" y="214" type="line"/>
      <point x="77" y="200" type="line" smooth="yes"/>
      <point x="76" y="197"/>
      <point x="74" y="191"/>
      <point x="74" y="188" type="curve" smooth="yes"/>
      <point x="73" y="171" type="line"/>
      <point x="52" y="117" type="line" smooth="yes"/>
      <point x="50" y="111"/>
      <point x="50" y="102"/>
      <point x="51" y="96" type="curve" smooth="yes"/>
      <point x="69" y="-4" type="line" smooth="yes"/>
      <point x="72" y="-25"/>
      <point x="94" y="-40"/>
    </contour>
    <contour>
      <point x="288" y="346" type="curve" smooth="yes"/>
      <point x="143" y="309" type="line"/>
      <point x="157" y="397" type="line" smooth="yes"/>
      <point x="157" y="399"/>
      <point x="157" y="403"/>
      <point x="157" y="405" type="curve" smooth="yes"/>
      <point x="151" y="501" type="line"/>
      <point x="165" y="597" type="line" smooth="yes"/>
      <point x="165" y="602"/>
      <point x="165" y="609"/>
      <point x="164" y="613" type="curve" smooth="yes"/>
      <point x="146" y="680" type="line"/>
      <point x="177" y="731" type="line"/>
      <point x="322" y="763" type="line"/>
      <point x="521" y="763" type="line"/>
      <point x="633" y="734" type="line"/>
      <point x="650" y="679" type="line"/>
      <point x="655" y="600" type="line" smooth="yes"/>
      <point x="655" y="598"/>
      <point x="656" y="594"/>
      <point x="657" y="591" type="curve" smooth="yes"/>
      <point x="682" y="510" type="line"/>
      <point x="647" y="441" type="line" smooth="yes"/>
      <point x="646" y="439"/>
      <point x="645" y="434"/>
      <point x="644" y="431" type="curve" smooth="yes"/>
      <point x="633" y="376" type="line"/>
      <point x="512" y="347" type="line"/>
      <point x="298" y="347" type="line" smooth="yes"/>
      <point x="295" y="347"/>
      <point x="291" y="346"/>
    </contour>
  </outline>
</glyph>
<glyph name="Q" format="1">
  <advance width="820"/>
  <unicode hex="0051"/>
  <outline>
    <contour>
      <point x="320" y="-41" type="curve" smooth="yes"/>
      <point x="435" y="-41" type="line" smooth="yes"/>
      <point x="456" y="-41"/>
      <point x="475" y="-23"/>
      <point x="475" y="-1" type="curve" smooth="yes"/>
      <point x="475" y="21"/>
      <point x="456" y="39"/>
      <point x="435" y="39" type="curve" smooth="yes"/>
      <point x="322" y="39" type="line"/>
      <point x="259" y="45" type="line"/>
      <point x="206" y="83" type="line"/>
      <point x="158" y="208" type="line"/>
      <point x="150" y="303" type="line" smooth="yes"/>
      <point x="150" y="304"/>
      <point x="149" y="306"/>
      <point x="149" y="307" type="curve" smooth="yes"/>
      <point x="130" y="401" type="line"/>
      <point x="138" y="496" type="line"/>
      <point x="146" y="596" type="line"/>
      <point x="150" y="666" type="line"/>
      <point x="201" y="727" type="line"/>
      <point x="337" y="759" type="line"/>
      <point x="504" y="759" type="line"/>
      <point x="632" y="729" type="line"/>
      <point x="658" y="667" type="line"/>
      <point x="687" y="598" type="line"/>
      <point x="656" y="513" type="line" smooth="yes"/>
      <point x="654" y="505"/>
      <point x="654" y="494"/>
      <point x="656" y="487" type="curve" smooth="yes"/>
      <point x="684" y="399" type="line"/>
      <point x="657" y="311" type="line" smooth="yes"/>
      <point x="656" y="308"/>
      <point x="655" y="303"/>
      <point x="655" y="299" type="curve" smooth="yes"/>
      <point x="654" y="233" type="line"/>
      <point x="643" y="232" type="line" smooth="yes"/>
      <point x="639" y="231"/>
      <point x="633" y="229"/>
      <point x="630" y="227" type="curve" smooth="yes"/>
      <point x="532" y="176" type="line" smooth="yes"/>
      <point x="524" y="171"/>
      <point x="515" y="160"/>
      <point x="512" y="150" type="curve" smooth="yes"/>
      <point x="477" y="9" type="line" smooth="yes"/>
      <point x="472" y="-12"/>
      <point x="485" y="-35"/>
      <point x="506" y="-40" type="curve" smooth="yes"/>
      <point x="527" y="-45"/>
      <point x="550" y="-32"/>
      <point x="555" y="-11" type="curve" smooth="yes"/>
      <point x="586" y="114" type="line"/>
      <point x="661" y="154" type="line"/>
      <point x="700" y="159" type="line" smooth="yes"/>
      <point x="719" y="162"/>
      <point x="734" y="180"/>
      <point x="734" y="199" type="curve" smooth="yes"/>
      <point x="735" y="293" type="line"/>
      <point x="764" y="387" type="line" smooth="yes"/>
      <point x="766" y="394"/>
      <point x="766" y="405"/>
      <point x="764" y="411" type="curve" smooth="yes"/>
      <point x="736" y="498" type="line"/>
      <point x="768" y="585" type="line" smooth="yes"/>
      <point x="771" y="594"/>
      <point x="770" y="607"/>
      <point x="767" y="615" type="curve" smooth="yes"/>
      <point x="731" y="698" type="line"/>
      <point x="698" y="778" type="line" smooth="yes"/>
      <point x="694" y="789"/>
      <point x="681" y="799"/>
      <point x="670" y="802" type="curve" smooth="yes"/>
      <point x="518" y="838" type="line" smooth="yes"/>
      <point x="516" y="839"/>
      <point x="512" y="839"/>
      <point x="509" y="839" type="curve" smooth="yes"/>
      <point x="332" y="839" type="line" smooth="yes"/>
      <point x="329" y="839"/>
      <point x="325" y="839"/>
      <point x="323" y="838" type="curve" smooth="yes"/>
      <point x="169" y="802" type="line" smooth="yes"/>
      <point x="162" y="800"/>
      <point x="152" y="794"/>
      <point x="148" y="788" type="curve" smooth="yes"/>
      <point x="80" y="708" type="line" smooth="yes"/>
      <point x="76" y="702"/>
      <point x="72" y="692"/>
      <point x="71" y="684" type="curve" smooth="yes"/>
      <point x="66" y="602" type="line"/>
      <point x="58" y="502" type="line"/>
      <point x="50" y="402" type="line" smooth="yes"/>
      <point x="50" y="399"/>
      <point x="50" y="394"/>
      <point x="51" y="391" type="curve" smooth="yes"/>
      <point x="70" y="293" type="line"/>
      <point x="79" y="195" type="line" smooth="yes"/>
      <point x="79" y="192"/>
      <point x="81" y="188"/>
      <point x="82" y="185" type="curve" smooth="yes"/>
      <point x="136" y="43" type="line" smooth="yes"/>
      <point x="138" y="37"/>
      <point x="144" y="29"/>
      <point x="150" y="25" type="curve" smooth="yes"/>
      <point x="221" y="-27" type="line" smooth="yes"/>
      <point x="226" y="-30"/>
      <point x="235" y="-33"/>
      <point x="241" y="-34" type="curve" smooth="yes"/>
      <point x="316" y="-41" type="line" smooth="yes"/>
      <point x="317" y="-41"/>
      <point x="319" y="-41"/>
    </contour>
  </outline>
</glyph>
<glyph name="R" format="1">
  <advance width="808"/>
  <unicode hex="0052"/>
  <outline>
    <contour>
      <point x="119" y="-44" type="curve" smooth="yes"/>
      <point x="140" y="-41"/>
      <point x="156" y="-21"/>
      <point x="154" y="1" type="curve" smooth="yes"/>
      <point x="143" y="93" type="line"/>
      <point x="168" y="186" type="line" smooth="yes"/>
      <point x="168" y="188"/>
      <point x="169" y="192"/>
      <point x="169" y="195" type="curve" smooth="yes"/>
      <point x="172" y="295" type="line" smooth="yes"/>
      <point x="172" y="300"/>
      <point x="171" y="307"/>
      <point x="169" y="311" type="curve" smooth="yes"/>
      <point x="131" y="401" type="line"/>
      <point x="146" y="487" type="line"/>
      <point x="175" y="585" type="line" smooth="yes"/>
      <point x="178" y="592"/>
      <point x="177" y="604"/>
      <point x="174" y="611" type="curve" smooth="yes"/>
      <point x="149" y="672" type="line"/>
      <point x="193" y="724" type="line"/>
      <point x="306" y="756" type="line"/>
      <point x="516" y="756" type="line"/>
      <point x="648" y="725" type="line"/>
      <point x="676" y="672" type="line"/>
      <point x="668" y="600" type="line" smooth="yes"/>
      <point x="668" y="599"/>
      <point x="668" y="597"/>
      <point x="668" y="596" type="curve" smooth="yes"/>
      <point x="667" y="496" type="line"/>
      <point x="667" y="425" type="line"/>
      <point x="626" y="366" type="line"/>
      <point x="521" y="335" type="line"/>
      <point x="510" y="336" type="line" smooth="yes"/>
      <point x="509" y="336"/>
      <point x="508" y="336"/>
      <point x="507" y="336" type="curve" smooth="yes"/>
      <point x="201" y="336" type="line"/>
      <point x="201" y="256" type="line"/>
      <point x="506" y="256" type="line"/>
      <point x="581" y="251" type="line"/>
      <point x="638" y="214" type="line"/>
      <point x="677" y="97" type="line"/>
      <point x="652" y="7" type="line" smooth="yes"/>
      <point x="646" y="-14"/>
      <point x="658" y="-37"/>
      <point x="679" y="-42" type="curve" smooth="yes"/>
      <point x="700" y="-48"/>
      <point x="723" y="-36"/>
      <point x="728" y="-15" type="curve" smooth="yes"/>
      <point x="757" y="87" type="line" smooth="yes"/>
      <point x="759" y="94"/>
      <point x="759" y="104"/>
      <point x="757" y="111" type="curve" smooth="yes"/>
      <point x="710" y="252" type="line" smooth="yes"/>
      <point x="707" y="260"/>
      <point x="700" y="269"/>
      <point x="694" y="273" type="curve" smooth="yes"/>
      <point x="662" y="294" type="line"/>
      <point x="662" y="294" type="line" smooth="yes"/>
      <point x="670" y="296"/>
      <point x="679" y="303"/>
      <point x="684" y="309" type="curve" smooth="yes"/>
      <point x="740" y="390" type="line" smooth="yes"/>
      <point x="744" y="395"/>
      <point x="747" y="406"/>
      <point x="747" y="413" type="curve" smooth="yes"/>
      <point x="747" y="496" type="line"/>
      <point x="748" y="594" type="line"/>
      <point x="756" y="675" type="line" smooth="yes"/>
      <point x="757" y="682"/>
      <point x="755" y="692"/>
      <point x="752" y="698" type="curve" smooth="yes"/>
      <point x="711" y="778" type="line" smooth="yes"/>
      <point x="706" y="787"/>
      <point x="694" y="797"/>
      <point x="684" y="799" type="curve" smooth="yes"/>
      <point x="530" y="835" type="line" smooth="yes"/>
      <point x="528" y="836"/>
      <point x="524" y="836"/>
      <point x="521" y="836" type="curve" smooth="yes"/>
      <point x="301" y="836" type="line" smooth="yes"/>
      <point x="298" y="836"/>
      <point x="293" y="835"/>
      <point x="290" y="835" type="curve" smooth="yes"/>
      <point x="160" y="798" type="line" smooth="yes"/>
      <point x="153" y="796"/>
      <point x="144" y="791"/>
      <point x="140" y="786" type="curve" smooth="yes"/>
      <point x="72" y="705" type="line" smooth="yes"/>
      <point x="63" y="694"/>
      <point x="60" y="676"/>
      <point x="65" y="663" type="curve" smooth="yes"/>
      <point x="95" y="594" type="line"/>
      <point x="69" y="507" type="line" smooth="yes"/>
      <point x="68" y="506"/>
      <point x="68" y="504"/>
      <point x="68" y="503" type="curve" smooth="yes"/>
      <point x="51" y="403" type="line" smooth="yes"/>
      <point x="49" y="396"/>
      <point x="51" y="386"/>
      <point x="53" y="381" type="curve" smooth="yes"/>
      <point x="92" y="289" type="line"/>
      <point x="89" y="202" type="line"/>
      <point x="63" y="106" type="line" smooth="yes"/>
      <point x="62" y="102"/>
      <point x="62" y="95"/>
      <point x="62" y="91" type="curve" smooth="yes"/>
      <point x="74" y="-9" type="line" smooth="yes"/>
      <point x="77" y="-30"/>
      <point x="97" y="-46"/>
    </contour>
  </outline>
</glyph>
<glyph name="S" format="1">
  <advance width="802"/>
  <unicode hex="0053"/>
  <outline>
    <contour>
      <point x="340" y="-36" type="curve" smooth="yes"/>
      <point x="529" y="-36" type="line" smooth="yes"/>
      <point x="532" y="-36"/>
      <point x="537" y="-35"/>
      <point x="540" y="-35" type="curve" smooth="yes"/>
      <point x="671" y="2" type="line" smooth="yes"/>
      <point x="682" y="5"/>
      <point x="694" y="17"/>
      <point x="698" y="28" type="curve" smooth="yes"/>
      <point x="725" y="111" type="line"/>
      <point x="751" y="194" type="line" smooth="yes"/>
      <point x="753" y="200"/>
      <point x="753" y="211"/>
      <point x="751" y="217" type="curve" smooth="yes"/>
      <point x="711" y="358" type="line" smooth="yes"/>
      <point x="709" y="366"/>
      <point x="702" y="376"/>
      <point x="695" y="381" type="curve" smooth="yes"/>
      <point x="621" y="431" type="line" smooth="yes"/>
      <point x="616" y="434"/>
      <point x="607" y="437"/>
      <point x="601" y="438" type="curve" smooth="yes"/>
      <point x="513" y="444" type="line" smooth="yes"/>
      <point x="512" y="444"/>
      <point x="511" y="444"/>
      <point x="510" y="444" type="curve" smooth="yes"/>
      <point x="301" y="444" type="line"/>
      <point x="244" y="450" type="line"/>
      <point x="197" y="488" type="line"/>
      <point x="133" y="608" type="line"/>
      <point x="153" y="669" type="line"/>
      <point x="195" y="732" type="line"/>
      <point x="329" y="764" type="line"/>
      <point x="529" y="764" type="line"/>
      <point x="646" y="734" type="line"/>
      <point x="664" y="683" type="line"/>
      <point x="653" y="609" type="line" smooth="yes"/>
      <point x="650" y="588"/>
      <point x="666" y="567"/>
      <point x="688" y="564" type="curve" smooth="yes"/>
      <point x="709" y="561"/>
      <point x="730" y="577"/>
      <point x="733" y="599" type="curve" smooth="yes"/>
      <point x="744" y="682" type="line" smooth="yes"/>
      <point x="745" y="687"/>
      <point x="744" y="695"/>
      <point x="742" y="700" type="curve" smooth="yes"/>
      <point x="715" y="781" type="line" smooth="yes"/>
      <point x="711" y="792"/>
      <point x="699" y="804"/>
      <point x="687" y="807" type="curve" smooth="yes"/>
      <point x="544" y="843" type="line" smooth="yes"/>
      <point x="541" y="843"/>
      <point x="537" y="844"/>
      <point x="534" y="844" type="curve" smooth="yes"/>
      <point x="324" y="844" type="line" smooth="yes"/>
      <point x="321" y="844"/>
      <point x="317" y="844"/>
      <point x="315" y="843" type="curve" smooth="yes"/>
      <point x="161" y="807" type="line" smooth="yes"/>
      <point x="153" y="805"/>
      <point x="142" y="797"/>
      <point x="137" y="790" type="curve" smooth="yes"/>
      <point x="83" y="709" type="line" smooth="yes"/>
      <point x="81" y="707"/>
      <point x="79" y="702"/>
      <point x="78" y="699" type="curve" smooth="yes"/>
      <point x="52" y="616" type="line" smooth="yes"/>
      <point x="49" y="607"/>
      <point x="50" y="593"/>
      <point x="55" y="585" type="curve" smooth="yes"/>
      <point x="130" y="444" type="line" smooth="yes"/>
      <point x="132" y="440"/>
      <point x="136" y="434"/>
      <point x="140" y="431" type="curve" smooth="yes"/>
      <point x="202" y="380" type="line" smooth="yes"/>
      <point x="207" y="376"/>
      <point x="217" y="372"/>
      <point x="224" y="371" type="curve" smooth="yes"/>
      <point x="295" y="364" type="line" smooth="yes"/>
      <point x="296" y="364"/>
      <point x="298" y="364"/>
      <point x="299" y="364" type="curve" smooth="yes"/>
      <point x="509" y="364" type="line"/>
      <point x="585" y="359" type="line"/>
      <point x="638" y="323" type="line"/>
      <point x="671" y="206" type="line"/>
      <point x="649" y="134" type="line"/>
      <point x="629" y="74" type="line"/>
      <point x="523" y="44" type="line"/>
      <point x="342" y="44" type="line"/>
      <point x="259" y="50" type="line"/>
      <point x="176" y="91" type="line"/>
      <point x="133" y="217" type="line" smooth="yes"/>
      <point x="126" y="237"/>
      <point x="103" y="249"/>
      <point x="82" y="242" type="curve" smooth="yes"/>
      <point x="62" y="235"/>
      <point x="50" y="212"/>
      <point x="57" y="191" type="curve" smooth="yes"/>
      <point x="105" y="50" type="line" smooth="yes"/>
      <point x="108" y="41"/>
      <point x="117" y="30"/>
      <point x="126" y="26" type="curve" smooth="yes"/>
      <point x="231" y="-25" type="line" smooth="yes"/>
      <point x="235" y="-27"/>
      <point x="241" y="-29"/>
      <point x="246" y="-29" type="curve" smooth="yes"/>
      <point x="337" y="-36" type="line" smooth="yes"/>
      <point x="338" y="-36"/>
      <point x="339" y="-36"/>
    </contour>
  </outline>
</glyph>
<glyph name="T" format="1">
  <advance width="678"/>
  <unicode hex="0054"/>
  <outline>
    <contour>
      <point x="407" y="-39" type="curve" smooth="yes"/>
      <point x="428" y="-35"/>
      <point x="442" y="-13"/>
      <point x="438" y="8" type="curve" smooth="yes"/>
      <point x="420" y="98" type="line"/>
      <point x="448" y="188" type="line" smooth="yes"/>
      <point x="450" y="194"/>
      <point x="450" y="204"/>
      <point x="449" y="210" type="curve" smooth="yes"/>
      <point x="426" y="300" type="line"/>
      <point x="451" y="390" type="line" smooth="yes"/>
      <point x="451" y="392"/>
      <point x="452" y="397"/>
      <point x="452" y="400" type="curve" smooth="yes"/>
      <point x="452" y="500" type="line"/>
      <point x="455" y="599" type="line" smooth="yes"/>
      <point x="455" y="603"/>
      <point x="454" y="609"/>
      <point x="453" y="613" type="curve" smooth="yes"/>
      <point x="433" y="670" type="line"/>
      <point x="488" y="723" type="line"/>
      <point x="597" y="755" type="line" smooth="yes"/>
      <point x="642" y="768"/>
      <point x="636" y="828"/>
      <point x="590" y="833" type="curve" smooth="yes"/>
      <point x="522" y="840" type="line" smooth="yes"/>
      <point x="521" y="840"/>
      <point x="519" y="840"/>
      <point x="518" y="840" type="curve" smooth="yes"/>
      <point x="90" y="840" type="line" smooth="yes"/>
      <point x="68" y="840"/>
      <point x="50" y="822"/>
      <point x="50" y="800" type="curve" smooth="yes"/>
      <point x="50" y="778"/>
      <point x="68" y="760"/>
      <point x="90" y="760" type="curve" smooth="yes"/>
      <point x="411" y="760" type="line"/>
      <point x="359" y="710" type="line" smooth="yes"/>
      <point x="349" y="700"/>
      <point x="344" y="681"/>
      <point x="349" y="668" type="curve" smooth="yes"/>
      <point x="375" y="594" type="line"/>
      <point x="372" y="500" type="line"/>
      <point x="372" y="405" type="line"/>
      <point x="346" y="310" type="line" smooth="yes"/>
      <point x="345" y="305"/>
      <point x="345" y="296"/>
      <point x="346" y="290" type="curve" smooth="yes"/>
      <point x="368" y="201" type="line"/>
      <point x="341" y="112" type="line" smooth="yes"/>
      <point x="339" y="106"/>
      <point x="339" y="98"/>
      <point x="340" y="92" type="curve" smooth="yes"/>
      <point x="360" y="-8" type="line" smooth="yes"/>
      <point x="364" y="-29"/>
      <point x="386" y="-43"/>
    </contour>
  </outline>
</glyph>
<glyph name="U" format="1">
  <advance width="828"/>
  <unicode hex="0055"/>
  <outline>
    <contour>
      <point x="316" y="-41" type="curve" smooth="yes"/>
      <point x="503" y="-41" type="line" smooth="yes"/>
      <point x="505" y="-41"/>
      <point x="509" y="-41"/>
      <point x="511" y="-40" type="curve" smooth="yes"/>
      <point x="689" y="-4" type="line" smooth="yes"/>
      <point x="700" y="-2"/>
      <point x="712" y="7"/>
      <point x="717" y="16" type="curve" smooth="yes"/>
      <point x="760" y="97" type="line" smooth="yes"/>
      <point x="762" y="100"/>
      <point x="764" y="106"/>
      <point x="764" y="109" type="curve" smooth="yes"/>
      <point x="778" y="193" type="line" smooth="yes"/>
      <point x="778" y="195"/>
      <point x="778" y="199"/>
      <point x="778" y="202" type="curve" smooth="yes"/>
      <point x="771" y="302" type="line" smooth="yes"/>
      <point x="771" y="303"/>
      <point x="770" y="306"/>
      <point x="770" y="307" type="curve" smooth="yes"/>
      <point x="730" y="498" type="line"/>
      <point x="753" y="589" type="line" smooth="yes"/>
      <point x="753" y="591"/>
      <point x="754" y="593"/>
      <point x="754" y="595" type="curve" smooth="yes"/>
      <point x="764" y="695" type="line" smooth="yes"/>
      <point x="764" y="700"/>
      <point x="763" y="707"/>
      <point x="762" y="712" type="curve" smooth="yes"/>
      <point x="728" y="812" type="line" smooth="yes"/>
      <point x="721" y="832"/>
      <point x="698" y="844"/>
      <point x="677" y="837" type="curve" smooth="yes"/>
      <point x="657" y="830"/>
      <point x="645" y="807"/>
      <point x="652" y="786" type="curve" smooth="yes"/>
      <point x="683" y="694" type="line"/>
      <point x="674" y="606" type="line"/>
      <point x="650" y="509" type="line" smooth="yes"/>
      <point x="649" y="504"/>
      <point x="649" y="496"/>
      <point x="650" y="491" type="curve" smooth="yes"/>
      <point x="691" y="293" type="line"/>
      <point x="698" y="201" type="line"/>
      <point x="686" y="129" type="line"/>
      <point x="655" y="71" type="line"/>
      <point x="499" y="39" type="line"/>
      <point x="322" y="39" type="line"/>
      <point x="215" y="71" type="line"/>
      <point x="140" y="135" type="line"/>
      <point x="137" y="192" type="line"/>
      <point x="174" y="284" type="line" smooth="yes"/>
      <point x="176" y="288"/>
      <point x="177" y="294"/>
      <point x="177" y="298" type="curve" smooth="yes"/>
      <point x="179" y="398" type="line" smooth="yes"/>
      <point x="179" y="402"/>
      <point x="178" y="409"/>
      <point x="177" y="413" type="curve" smooth="yes"/>
      <point x="144" y="502" type="line"/>
      <point x="161" y="592" type="line" smooth="yes"/>
      <point x="162" y="597"/>
      <point x="162" y="606"/>
      <point x="160" y="611" type="curve" smooth="yes"/>
      <point x="132" y="700" type="line"/>
      <point x="157" y="788" type="line" smooth="yes"/>
      <point x="163" y="809"/>
      <point x="151" y="831"/>
      <point x="130" y="837" type="curve" smooth="yes"/>
      <point x="109" y="843"/>
      <point x="87" y="831"/>
      <point x="81" y="810" type="curve" smooth="yes"/>
      <point x="52" y="710" type="line" smooth="yes"/>
      <point x="50" y="704"/>
      <point x="50" y="693"/>
      <point x="52" y="687" type="curve" smooth="yes"/>
      <point x="81" y="596" type="line"/>
      <point x="64" y="506" type="line" smooth="yes"/>
      <point x="63" y="501"/>
      <point x="63" y="491"/>
      <point x="65" y="485" type="curve" smooth="yes"/>
      <point x="99" y="392" type="line"/>
      <point x="97" y="307" type="line"/>
      <point x="60" y="214" type="line" smooth="yes"/>
      <point x="58" y="209"/>
      <point x="57" y="202"/>
      <point x="57" y="197" type="curve" smooth="yes"/>
      <point x="61" y="114" type="line" smooth="yes"/>
      <point x="61" y="104"/>
      <point x="67" y="91"/>
      <point x="75" y="85" type="curve" smooth="yes"/>
      <point x="170" y="5" type="line" smooth="yes"/>
      <point x="174" y="2"/>
      <point x="180" y="-2"/>
      <point x="184" y="-3" type="curve" smooth="yes"/>
      <point x="304" y="-39" type="line" smooth="yes"/>
      <point x="308" y="-40"/>
      <point x="313" y="-41"/>
    </contour>
  </outline>
</glyph>
<glyph name="V" format="1">
  <advance width="800"/>
  <unicode hex="0056"/>
  <outline>
    <contour>
      <point x="327" y="-40" type="curve" smooth="yes"/>
      <point x="538" y="-40" type="line" smooth="yes"/>
      <point x="542" y="-40"/>
      <point x="548" y="-39"/>
      <point x="551" y="-38" type="curve" smooth="yes"/>
      <point x="656" y="-1" type="line" smooth="yes"/>
      <point x="664" y="2"/>
      <point x="674" y="10"/>
      <point x="678" y="18" type="curve" smooth="yes"/>
      <point x="720" y="98" type="line" smooth="yes"/>
      <point x="721" y="102"/>
      <point x="723" y="107"/>
      <point x="724" y="110" type="curve" smooth="yes"/>
      <point x="737" y="193" type="line" smooth="yes"/>
      <point x="738" y="196"/>
      <point x="738" y="199"/>
      <point x="738" y="202" type="curve" smooth="yes"/>
      <point x="734" y="299" type="line"/>
      <point x="744" y="396" type="line" smooth="yes"/>
      <point x="744" y="399"/>
      <point x="744" y="403"/>
      <point x="744" y="405" type="curve" smooth="yes"/>
      <point x="731" y="499" type="line"/>
      <point x="746" y="594" type="line" smooth="yes"/>
      <point x="747" y="595"/>
      <point x="747" y="598"/>
      <point x="747" y="600" type="curve" smooth="yes"/>
      <point x="748" y="700" type="line"/>
      <point x="750" y="799" type="line" smooth="yes"/>
      <point x="750" y="821"/>
      <point x="732" y="840"/>
      <point x="711" y="840" type="curve" smooth="yes"/>
      <point x="689" y="840"/>
      <point x="670" y="822"/>
      <point x="670" y="801" type="curve" smooth="yes"/>
      <point x="668" y="700" type="line"/>
      <point x="667" y="603" type="line"/>
      <point x="652" y="506" type="line" smooth="yes"/>
      <point x="651" y="503"/>
      <point x="651" y="498"/>
      <point x="651" y="495" type="curve" smooth="yes"/>
      <point x="664" y="399" type="line"/>
      <point x="654" y="304" type="line" smooth="yes"/>
      <point x="654" y="302"/>
      <point x="654" y="300"/>
      <point x="654" y="298" type="curve" smooth="yes"/>
      <point x="658" y="203" type="line"/>
      <point x="646" y="130" type="line"/>
      <point x="614" y="69" type="line"/>
      <point x="531" y="40" type="line"/>
      <point x="352" y="40" type="line"/>
      <point x="294" y="158" type="line" smooth="yes"/>
      <point x="292" y="162"/>
      <point x="289" y="167"/>
      <point x="286" y="169" type="curve" smooth="yes"/>
      <point x="232" y="221" type="line" smooth="yes"/>
      <point x="227" y="227"/>
      <point x="216" y="232"/>
      <point x="208" y="232" type="curve" smooth="yes"/>
      <point x="148" y="237" type="line"/>
      <point x="131" y="301" type="line"/>
      <point x="152" y="391" type="line" smooth="yes"/>
      <point x="153" y="395"/>
      <point x="153" y="402"/>
      <point x="153" y="406" type="curve" smooth="yes"/>
      <point x="140" y="499" type="line"/>
      <point x="157" y="593" type="line" smooth="yes"/>
      <point x="157" y="594"/>
      <point x="158" y="595"/>
      <point x="158" y="596" type="curve" smooth="yes"/>
      <point x="167" y="696" type="line" smooth="yes"/>
      <point x="167" y="699"/>
      <point x="167" y="702"/>
      <point x="167" y="704" type="curve" smooth="yes"/>
      <point x="156" y="804" type="line" smooth="yes"/>
      <point x="153" y="826"/>
      <point x="133" y="842"/>
      <point x="112" y="840" type="curve" smooth="yes"/>
      <point x="90" y="837"/>
      <point x="74" y="817"/>
      <point x="76" y="796" type="curve" smooth="yes"/>
      <point x="87" y="700" type="line"/>
      <point x="78" y="606" type="line"/>
      <point x="60" y="507" type="line" smooth="yes"/>
      <point x="59" y="504"/>
      <point x="59" y="498"/>
      <point x="59" y="494" type="curve" smooth="yes"/>
      <point x="72" y="402" type="line"/>
      <point x="51" y="309" type="line" smooth="yes"/>
      <point x="50" y="304"/>
      <point x="50" y="295"/>
      <point x="51" y="290" type="curve" smooth="yes"/>
      <point x="77" y="190" type="line" smooth="yes"/>
      <point x="81" y="175"/>
      <point x="97" y="161"/>
      <point x="113" y="160" type="curve" smooth="yes"/>
      <point x="187" y="154" type="line"/>
      <point x="225" y="117" type="line"/>
      <point x="291" y="-18" type="line" smooth="yes"/>
      <point x="297" y="-30"/>
      <point x="313" y="-40"/>
    </contour>
  </outline>
</glyph>
